<svg width="275" height="196" viewBox="0 0 275 196" fill="none" xmlns="http://www.w3.org/2000/svg">
<path d="M98.4446 53.5756C101.114 54.2902 106.378 58.7471 107.975 60.1387C106.415 62.6022 103.802 66.5701 103.013 66.5513C101.885 66.5513 97.8054 62.038 96.2263 58.1077C95.4744 56.2272 95.6248 54.7228 96.3015 53.7449C96.9219 53.4628 97.6362 53.3499 98.4446 53.5756Z" fill="#E5577D"/>
<path d="M101.847 52.391C104.761 53.8766 110.438 57.8633 110.438 57.8633C110.438 57.8633 108.671 59.0104 107.957 60.1199C106.359 58.7283 101.095 54.2715 98.4258 53.5569C97.6174 53.35 96.9031 53.4441 96.2827 53.7261C97.1287 52.5038 99.9484 51.4131 101.847 52.391Z" fill="#F26692"/>
<path d="M264.907 93.7436L259.605 90.2458L248.552 75.8411C248.552 75.8411 258.064 73.3023 263.008 77.5711C267.933 81.8399 264.907 93.7436 264.907 93.7436Z" fill="#AF2352"/>
<path d="M165.349 151.006L148.261 139.309L148.994 133.065C148.994 133.065 158.506 130.527 163.45 134.795C168.394 139.064 165.349 151.006 165.349 151.006Z" fill="#AF2352"/>
<path d="M129.669 163.906C129.669 153.845 135.779 142.167 143.317 137.804C145.216 136.695 147.49 136.131 149.276 136.149C150.686 136.149 154.295 136.281 158.018 138.594C162.304 141.246 162.886 147.282 162.886 147.282L147.547 178.8C147.547 178.8 142.603 181.226 137.527 178.442C134.369 176.712 132.47 173.854 131.587 172.274C131.211 171.579 130.628 170.187 130.459 169.66C129.951 168.024 129.669 166.106 129.669 163.906Z" fill="#191919"/>
<path d="M163.356 151.701C163.356 161.762 157.247 173.44 149.709 177.803C142.17 182.166 136.061 177.54 136.061 167.479C136.061 157.418 142.17 145.74 149.709 141.377C157.247 137.033 163.356 141.659 163.356 151.701Z" fill="#333333"/>
<path d="M160.725 153.356C160.725 161.311 155.893 170.544 149.934 173.986C143.975 177.427 139.144 173.779 139.144 165.824C139.144 157.869 143.975 148.636 149.934 145.195C155.893 141.753 160.725 145.402 160.725 153.356Z" fill="#B3DDFF"/>
<path d="M150.291 146.85C144.934 149.934 140.591 158.246 140.591 165.392C140.591 172.538 144.934 175.81 150.291 172.726C155.649 169.642 159.991 161.33 159.991 154.184C159.991 147.038 155.649 143.747 150.291 146.85ZM148.186 149.238C148.43 148.899 149.464 148.053 150.235 147.64C151.062 147.188 151.946 146.511 153.826 146.643C154.239 146.68 154.634 146.906 154.841 147.132C155.141 147.451 155.085 147.865 154.747 148.505C154.427 149.125 153.957 150.028 153.525 150.686C153.299 151.006 153.168 150.874 152.716 150.912C152.265 150.949 151.776 150.987 151.419 151.137C150.536 151.513 149.878 151.927 149.257 152.435C148.938 152.679 148.788 152.604 148.675 152.435C148.336 151.965 148.092 151.307 147.885 150.667C147.772 150.272 147.791 149.821 148.186 149.238ZM155.461 156.798C155.461 160.596 153.149 165.016 150.291 166.67C147.434 168.325 145.122 166.576 145.122 162.759C145.122 158.96 147.434 154.541 150.291 152.886C153.149 151.25 155.461 152.999 155.461 156.798ZM142.02 159.788C142.734 156.76 143.449 155.651 144.05 154.522C144.595 153.488 145.46 152.172 145.742 151.946C146.212 151.551 146.456 151.701 146.607 152.059C146.87 152.642 147.096 153.319 147.19 154.033C147.227 154.315 147.208 154.579 146.945 154.974C146.419 155.745 145.93 156.61 145.366 157.851C145.141 158.358 144.915 159.111 144.689 159.825C144.483 160.521 144.501 160.803 144.238 161.01C143.712 161.424 143.054 161.8 142.584 162.044C142.095 162.308 141.87 162.232 141.832 161.612C141.813 161.198 141.851 160.446 142.02 159.788ZM144.163 172.067C143.9 172.067 143.186 171.428 142.791 170.789C142.358 170.093 141.757 169.529 141.512 166.915C141.456 166.351 141.531 165.58 141.625 165.128C141.776 164.433 142.039 164.15 142.509 164C142.96 163.868 143.599 163.662 144.107 163.662C144.351 163.662 144.276 163.962 144.389 164.527C144.501 165.091 144.614 165.711 144.765 166.05C145.159 166.877 145.535 167.366 145.968 167.742C146.175 167.93 146.156 168.212 146.062 168.532C145.817 169.397 145.46 170.337 145.103 171.165C144.896 171.691 144.595 172.067 144.163 172.067ZM153.092 169.266C152.848 169.66 152.359 170.281 151.927 170.676C149.897 172.481 149.051 172.519 148.242 172.763C147.49 172.989 146.513 173.008 146.306 172.857C145.987 172.594 146.024 172.124 146.212 171.597C146.532 170.732 146.908 169.811 147.359 169.021C147.528 168.72 147.697 168.494 147.998 168.494C148.581 168.476 149.201 168.363 150.085 167.987C150.442 167.836 150.968 167.441 151.438 167.084C151.927 166.727 152.096 166.445 152.265 166.614C152.622 166.934 152.98 167.479 153.205 167.874C153.487 168.288 153.468 168.664 153.092 169.266ZM158.525 160.502C158.13 161.706 157.848 163.003 156.175 165.636C155.818 166.2 155.311 166.764 154.991 167.047C154.521 167.46 154.296 167.347 154.145 166.821C153.995 166.332 153.788 165.617 153.732 164.94C153.694 164.602 153.901 164.433 154.258 163.793C154.615 163.154 155.01 162.458 155.198 161.931C155.687 160.653 155.95 159.712 156.138 158.81C156.232 158.358 156.42 158.133 156.645 157.982C157.247 157.55 157.886 157.23 158.488 157.004C158.845 156.873 159.127 156.929 159.183 157.531C159.202 157.851 158.882 159.393 158.525 160.502ZM158.506 155.613C157.905 155.876 157.266 156.083 156.721 156.121C156.514 156.139 156.345 156.064 156.345 155.65C156.307 154.823 156.194 154.033 155.912 153.093C155.799 152.717 155.499 152.284 155.254 151.889C154.991 151.495 154.803 151.476 154.897 151.1C155.104 150.329 155.442 149.37 155.705 148.711C155.969 148.016 156.232 147.715 156.664 147.752C156.946 147.771 157.378 147.959 157.66 148.26C158.958 149.67 159.033 150.818 159.24 151.795C159.428 152.679 159.484 154.071 159.39 154.466C159.183 155.143 158.864 155.444 158.506 155.613Z" fill="white"/>
<path d="M150.855 154.861C148.524 156.196 146.645 159.807 146.645 162.891C146.645 165.994 148.524 167.404 150.855 166.069C153.186 164.734 155.066 161.123 155.066 158.039C155.048 154.936 153.168 153.507 150.855 154.861Z" fill="#444444"/>
<path d="M142.603 162.026C143.054 161.781 143.731 161.424 144.257 160.991C144.52 160.784 144.501 160.502 144.708 159.807C144.915 159.111 145.141 158.34 145.385 157.832C145.949 156.591 146.438 155.745 146.964 154.955C147.227 154.56 147.246 154.297 147.208 154.015C147.096 153.281 146.87 152.623 146.626 152.04C146.475 151.683 146.231 151.532 145.761 151.927C145.479 152.153 144.614 153.469 144.069 154.504C143.486 155.632 142.753 156.741 142.039 159.769C141.888 160.427 141.832 161.179 141.87 161.574C141.87 162.214 142.114 162.289 142.603 162.026Z" fill="#333333"/>
<path d="M148.675 152.435C148.806 152.604 148.957 152.698 149.257 152.435C149.878 151.946 150.536 151.513 151.419 151.137C151.776 150.987 152.265 150.949 152.716 150.912C153.168 150.874 153.299 151.024 153.525 150.686C153.957 150.028 154.427 149.125 154.747 148.505C155.085 147.846 155.141 147.451 154.841 147.132C154.634 146.925 154.22 146.68 153.825 146.643C151.946 146.511 151.062 147.169 150.235 147.639C149.464 148.053 148.411 148.899 148.186 149.238C147.791 149.821 147.772 150.272 147.885 150.648C148.092 151.307 148.336 151.946 148.675 152.435Z" fill="#333333"/>
<path d="M159.202 151.777C158.995 150.818 158.92 149.671 157.623 148.241C157.341 147.94 156.909 147.752 156.627 147.734C156.194 147.696 155.95 147.997 155.668 148.693C155.423 149.351 155.066 150.291 154.86 151.081C154.766 151.476 154.954 151.476 155.217 151.871C155.48 152.266 155.762 152.679 155.875 153.074C156.157 154.033 156.269 154.823 156.307 155.632C156.326 156.046 156.476 156.121 156.683 156.102C157.247 156.064 157.886 155.857 158.469 155.594C158.826 155.444 159.146 155.124 159.315 154.447C159.446 154.033 159.39 152.661 159.202 151.777Z" fill="#333333"/>
<path d="M158.487 156.967C157.886 157.193 157.247 157.512 156.645 157.945C156.42 158.114 156.232 158.321 156.138 158.772C155.95 159.675 155.686 160.634 155.198 161.894C155.01 162.402 154.615 163.097 154.258 163.756C153.901 164.395 153.694 164.583 153.731 164.903C153.807 165.561 154.013 166.294 154.145 166.783C154.295 167.31 154.521 167.423 154.991 167.009C155.292 166.746 155.799 166.181 156.175 165.598C157.848 162.966 158.13 161.668 158.525 160.465C158.882 159.355 159.202 157.813 159.183 157.456C159.127 156.91 158.845 156.835 158.487 156.967Z" fill="#333333"/>
<path d="M152.284 166.633C152.096 166.483 151.927 166.746 151.457 167.103C150.968 167.46 150.461 167.855 150.103 168.006C149.22 168.382 148.6 168.495 148.017 168.514C147.716 168.514 147.547 168.739 147.378 169.04C146.945 169.849 146.551 170.751 146.231 171.616C146.043 172.143 145.987 172.594 146.325 172.876C146.513 173.027 147.509 173.008 148.261 172.782C149.07 172.538 149.915 172.481 151.946 170.695C152.378 170.3 152.867 169.679 153.111 169.285C153.487 168.664 153.487 168.288 153.243 167.893C152.998 167.498 152.641 166.934 152.284 166.633Z" fill="#333333"/>
<path d="M145.986 167.742C145.554 167.366 145.178 166.877 144.783 166.05C144.614 165.711 144.501 165.091 144.407 164.527C144.295 163.963 144.37 163.643 144.125 163.662C143.637 163.68 142.979 163.869 142.527 164C142.058 164.151 141.794 164.433 141.644 165.128C141.55 165.58 141.475 166.351 141.531 166.915C141.776 169.529 142.377 170.093 142.809 170.789C143.223 171.428 143.937 172.068 144.182 172.068C144.614 172.068 144.896 171.692 145.122 171.184C145.498 170.338 145.855 169.416 146.08 168.551C146.174 168.213 146.193 167.931 145.986 167.742Z" fill="#333333"/>
<path d="M230.374 105.328C230.374 95.2668 236.483 83.5887 244.021 79.2259C245.92 78.1164 248.195 77.5522 249.98 77.571C251.39 77.571 255 77.7027 258.722 80.0157C263.027 82.6673 263.591 88.7037 263.591 88.7037L248.251 120.221C248.251 120.221 243.307 122.647 238.231 119.864C235.073 118.134 233.175 115.276 232.291 113.696C231.915 113 231.332 111.609 231.163 111.082C230.656 109.446 230.374 107.509 230.374 105.328Z" fill="#191919"/>
<path d="M261.369 105.664C265.902 95.0076 264.69 84.2887 258.662 81.7223C252.633 79.156 244.071 85.714 239.538 96.3702C235.005 107.026 236.217 117.745 242.245 120.312C248.274 122.878 256.836 116.32 261.369 105.664Z" fill="#333333"/>
<path d="M261.429 94.7592C261.429 102.714 256.598 111.947 250.639 115.389C244.679 118.83 239.848 115.182 239.848 107.227C239.848 99.2724 244.679 90.0391 250.639 86.5977C256.598 83.1564 261.429 86.8234 261.429 94.7592Z" fill="#B3DDFF"/>
<path d="M250.996 88.2526C245.638 91.3366 241.295 99.6486 241.295 106.795C241.295 113.941 245.638 117.213 250.996 114.129C256.353 111.045 260.696 102.733 260.696 95.5867C260.696 88.4407 256.353 85.1685 250.996 88.2526ZM248.909 90.6596C249.153 90.3211 250.187 89.475 250.958 89.0612C251.785 88.6099 252.669 87.9329 254.548 88.0646C254.962 88.1022 255.357 88.3278 255.564 88.5535C255.864 88.8732 255.808 89.2869 255.47 89.9263C255.15 90.5468 254.68 91.4495 254.248 92.1077C254.022 92.4274 253.89 92.2957 253.439 92.3333C252.988 92.3709 252.499 92.4085 252.142 92.559C251.259 92.9351 250.601 93.3488 249.98 93.8566C249.661 94.101 249.51 94.0258 249.398 93.8566C249.059 93.3864 248.815 92.7282 248.608 92.0889C248.476 91.6751 248.495 91.2238 248.909 90.6596ZM256.165 98.2006C256.165 101.999 253.853 106.418 250.996 108.073C248.138 109.728 245.826 107.979 245.826 104.162C245.826 100.363 248.138 95.944 250.996 94.2891C253.853 92.653 256.165 94.4019 256.165 98.2006ZM242.724 101.191C243.438 98.163 244.153 97.0347 244.754 95.9251C245.3 94.8909 246.164 93.5745 246.446 93.3488C246.916 92.9539 247.161 93.1044 247.311 93.4617C247.574 94.0446 247.8 94.7216 247.894 95.4362C247.931 95.7183 247.913 95.9815 247.649 96.3765C247.123 97.1475 246.634 98.0125 246.07 99.2537C245.845 99.7614 245.619 100.514 245.394 101.228C245.187 101.924 245.206 102.206 244.942 102.413C244.416 102.827 243.758 103.203 243.288 103.447C242.799 103.711 242.574 103.635 242.536 103.015C242.517 102.601 242.555 101.849 242.724 101.191ZM244.867 113.47C244.604 113.47 243.89 112.831 243.495 112.192C243.062 111.496 242.461 110.932 242.217 108.318C242.16 107.754 242.235 106.983 242.329 106.531C242.48 105.835 242.743 105.553 243.213 105.403C243.664 105.271 244.303 105.064 244.811 105.064C245.055 105.064 244.98 105.365 245.093 105.93C245.206 106.494 245.318 107.114 245.469 107.453C245.863 108.28 246.239 108.769 246.672 109.145C246.879 109.333 246.86 109.615 246.766 109.935C246.521 110.8 246.164 111.74 245.807 112.568C245.6 113.113 245.3 113.489 244.867 113.47ZM253.797 110.687C253.552 111.082 253.063 111.703 252.631 112.098C250.601 113.903 249.755 113.959 248.946 114.185C248.195 114.411 247.217 114.429 247.01 114.279C246.691 114.016 246.728 113.546 246.916 113.019C247.236 112.154 247.612 111.233 248.063 110.443C248.232 110.142 248.401 109.916 248.702 109.916C249.285 109.897 249.905 109.785 250.789 109.408C251.146 109.258 251.672 108.863 252.142 108.506C252.631 108.149 252.8 107.866 252.969 108.036C253.327 108.355 253.684 108.901 253.909 109.296C254.191 109.691 254.191 110.067 253.797 110.687ZM259.229 101.924C258.835 103.128 258.553 104.425 256.879 107.058C256.522 107.622 256.015 108.186 255.695 108.468C255.225 108.882 255 108.769 254.849 108.243C254.699 107.754 254.492 107.039 254.436 106.362C254.398 106.024 254.605 105.854 254.962 105.215C255.319 104.576 255.714 103.88 255.902 103.353C256.391 102.074 256.654 101.134 256.842 100.232C256.936 99.7802 257.124 99.5546 257.349 99.4041C257.951 98.9716 258.59 98.6519 259.192 98.4262C259.549 98.2946 259.831 98.351 259.887 98.9528C259.925 99.2725 259.586 100.815 259.229 101.924ZM259.21 97.0158C258.609 97.2791 257.97 97.486 257.425 97.5236C257.218 97.5424 257.049 97.4672 257.049 97.0535C257.011 96.226 256.898 95.4362 256.616 94.4959C256.504 94.1198 256.203 93.6873 255.958 93.2924C255.695 92.8975 255.507 92.8787 255.601 92.5026C255.808 91.7316 256.146 90.7725 256.41 90.1143C256.673 89.4185 256.936 89.1176 257.349 89.1552C257.631 89.174 258.064 89.3621 258.346 89.663C259.643 91.0734 259.718 92.2205 259.925 93.1984C260.113 94.0822 260.169 95.4738 260.075 95.8687C259.887 96.5457 259.568 96.8654 259.21 97.0158Z" fill="white"/>
<path d="M251.56 96.2635C249.229 97.5987 247.349 101.209 247.349 104.293C247.349 107.396 249.229 108.807 251.56 107.471C253.891 106.136 255.77 102.526 255.77 99.4416C255.752 96.3388 253.872 94.9284 251.56 96.2635Z" fill="#444444"/>
<path d="M243.307 103.428C243.758 103.184 244.435 102.827 244.961 102.394C245.224 102.187 245.206 101.905 245.412 101.209C245.619 100.514 245.845 99.7426 246.089 99.2349C246.653 97.9937 247.142 97.1475 247.668 96.3577C247.931 95.9628 247.95 95.6995 247.913 95.4174C247.8 94.684 247.574 94.0258 247.33 93.4429C247.179 93.0856 246.935 92.9351 246.465 93.33C246.183 93.5557 245.318 94.8721 244.773 95.9064C244.19 97.0347 243.457 98.1442 242.743 101.172C242.593 101.83 242.536 102.582 242.574 102.977C242.574 103.617 242.818 103.692 243.307 103.428Z" fill="#333333"/>
<path d="M249.379 93.8376C249.51 94.0068 249.661 94.1009 249.961 93.8376C250.582 93.3299 251.24 92.9161 252.123 92.54C252.48 92.3896 252.969 92.352 253.42 92.3144C253.872 92.2768 254.003 92.4272 254.229 92.0887C254.661 91.4306 255.131 90.5279 255.451 89.9073C255.789 89.2491 255.845 88.8543 255.545 88.5346C255.338 88.3277 254.924 88.0832 254.53 88.0456C252.65 87.914 251.766 88.5722 250.939 89.0423C250.168 89.456 249.116 90.3023 248.89 90.6408C248.495 91.2237 248.476 91.675 248.589 92.0511C248.796 92.7093 249.04 93.3675 249.379 93.8376Z" fill="#333333"/>
<path d="M259.906 93.1796C259.699 92.2205 259.624 91.0734 258.327 89.6442C258.045 89.3433 257.613 89.1552 257.331 89.1364C256.898 89.0988 256.654 89.3997 256.391 90.0955C256.146 90.7537 255.789 91.6939 255.582 92.4838C255.488 92.8787 255.676 92.8787 255.94 93.2736C256.203 93.6685 256.485 94.0822 256.598 94.4771C256.88 95.4362 256.992 96.226 257.03 97.0346C257.049 97.4484 257.199 97.5236 257.406 97.5048C257.97 97.4672 258.609 97.2603 259.192 96.9971C259.549 96.8466 259.868 96.5269 260.038 95.8499C260.15 95.455 260.094 94.0634 259.906 93.1796Z" fill="#333333"/>
<path d="M259.192 98.3886C258.59 98.6142 257.951 98.9339 257.349 99.3664C257.124 99.5357 256.936 99.7425 256.842 100.194C256.654 101.097 256.391 102.056 255.902 103.316C255.714 103.823 255.319 104.519 254.962 105.177C254.605 105.817 254.398 106.005 254.436 106.324C254.511 106.983 254.718 107.716 254.849 108.205C254.999 108.731 255.225 108.844 255.695 108.431C255.996 108.167 256.503 107.603 256.879 107.02C258.552 104.387 258.834 103.09 259.229 101.886C259.586 100.777 259.906 99.2348 259.887 98.8775C259.831 98.3134 259.549 98.2381 259.192 98.3886Z" fill="#333333"/>
<path d="M252.988 108.036C252.8 107.885 252.631 108.148 252.161 108.506C251.672 108.863 251.165 109.258 250.808 109.408C249.924 109.784 249.304 109.897 248.721 109.916C248.42 109.916 248.251 110.142 248.082 110.443C247.649 111.251 247.255 112.154 246.935 113.019C246.747 113.546 246.691 113.997 247.029 114.279C247.217 114.429 248.213 114.411 248.965 114.185C249.774 113.94 250.62 113.884 252.65 112.098C253.082 111.703 253.571 111.082 253.815 110.687C254.191 110.067 254.191 109.69 253.947 109.296C253.703 108.901 253.345 108.355 252.988 108.036Z" fill="#333333"/>
<path d="M246.69 109.164C246.258 108.788 245.882 108.299 245.487 107.472C245.318 107.133 245.205 106.512 245.111 105.948C244.999 105.384 245.074 105.064 244.829 105.083C244.341 105.102 243.683 105.29 243.232 105.422C242.762 105.572 242.498 105.854 242.348 106.55C242.254 107.001 242.179 107.772 242.235 108.337C242.48 110.951 243.081 111.515 243.514 112.21C243.927 112.85 244.641 113.47 244.886 113.489C245.318 113.489 245.6 113.113 245.826 112.605C246.202 111.759 246.559 110.838 246.784 109.973C246.878 109.634 246.897 109.352 246.69 109.164Z" fill="#333333"/>
<path d="M213.398 13.6709C211.876 12.8435 207.853 11.3015 207.345 11.0758C202.119 8.81918 197.683 5.92313 193.81 4.09902C187.945 1.35345 183.715 0.187526 182.85 0.394384C181.779 0.657657 180.595 1.03379 179.354 1.48512C181.309 2.36897 183.226 3.30924 185.069 4.13667C190.126 6.43091 195.145 8.85678 200.051 11.4707C209.883 16.7174 224.471 26.026 230.749 30.1067C220.41 31.5735 211.725 26.5901 201.987 24.954C192.25 23.318 180.049 21.964 170.18 22.5282C160.198 23.1112 151.043 25.5934 141.851 29.3733C137.339 31.235 131.079 33.2096 126.079 31.6111C124.255 33.3224 122.676 35.2217 121.153 37.3091C114.085 47.0314 108.145 58.2582 102.731 64.9152C102.073 65.4042 101.321 65.9684 100.494 66.6077C95.3429 70.5004 87.0339 76.7814 80.2664 82.0657C70.2467 89.8886 62.8025 96.4328 57.0501 105.666C57.5952 106.475 58.2344 107.359 58.9299 108.28C57.99 107.378 57.1817 106.512 56.5049 105.704C55.1326 107.904 52.5196 112.737 51.6173 114.918C48.5907 122.177 50.0946 128.571 50.0946 132.219C50.0946 135.078 52.0308 136.883 54.9258 138.218L60.1143 141.208L113.502 171.898C113.502 171.898 107.75 157.099 132.564 139.873C157.378 122.647 196.667 96.5833 222.534 78.9816C248.382 61.3798 272.125 47.5016 272.125 47.5016C272.125 47.5016 227.309 21.6067 213.398 13.6709Z" fill="#DD4A6A"/>
<path d="M200.051 11.4895C209.883 16.7362 224.471 26.0448 230.749 30.1255C220.41 31.5923 211.725 26.6089 201.987 24.9729C192.25 23.3368 180.049 21.9828 170.18 22.547C160.198 23.1299 151.043 25.6123 141.851 29.3921C137.339 31.2538 131.079 33.2284 126.079 31.63C127.752 30.0503 129.632 28.6023 131.906 27.3047C134.632 25.7439 154.352 14.4231 160.724 10.7561C162.21 9.90987 171.947 4.21188 179.373 1.46631C181.328 2.35016 183.245 3.29043 185.088 4.11786C190.144 6.4309 195.145 8.87561 200.051 11.4895Z" fill="#E5577D"/>
<path d="M110.701 148.862C115.439 137.541 126.962 125.694 139.369 116.028C147.227 109.897 157.19 102.375 161.852 98.8775C167.266 92.2204 173.207 80.9937 180.275 71.2713C183.208 67.247 186.309 63.9561 191.009 61.2482C193.735 59.6873 213.455 48.3665 219.827 44.6995C221.557 43.7028 234.584 36.0867 241.972 34.319C243.42 33.9805 251.033 36.5193 263.628 43.8345C265.771 45.0756 270.396 46.2416 272.125 47.5203C274.456 49.2504 274.757 54.6475 274.644 64.1254C274.607 66.9838 275.039 80.9937 271.956 85.112C271.956 85.112 271.956 85.112 271.937 85.112C270.753 87.4815 269.287 89.6253 267.613 91.3742C267.613 91.0921 267.651 90.7912 267.651 90.4903C267.651 75.9539 258.816 69.278 247.913 75.5589C237.648 81.4826 229.208 96.8277 228.268 110.744C224.189 113.113 215.222 118.266 202.044 125.675C185.238 135.115 171.289 142.901 167.398 145.063C166.214 132.746 157.905 127.443 147.829 133.272C136.925 139.572 128.09 156.459 128.09 170.996C128.09 171.259 128.109 171.503 128.128 171.767C125.158 173.027 121.398 174.493 120.101 174.174C114.142 172.65 109.16 170.751 109.16 166.181C109.179 162.533 107.656 156.121 110.701 148.862Z" fill="#D33C63"/>
<path d="M147.829 133.272C157.905 127.443 166.214 132.746 167.398 145.063C171.308 142.882 185.238 135.115 202.044 125.675C215.222 118.266 224.17 113.113 228.268 110.744C228.268 110.405 228.306 110.01 228.343 109.615C229.64 96.0004 237.893 81.3135 247.894 75.5403C258.797 69.2405 267.632 75.9352 267.632 90.4716C267.632 90.7537 267.613 91.0546 267.595 91.3555C266.768 92.2205 265.903 93.0103 264.982 93.6685C264.944 93.6873 264.906 93.7249 264.888 93.7437C264.906 93.3676 264.925 92.9727 264.925 92.5966C264.925 80.2415 257.406 74.5436 248.138 79.9031C238.87 85.2625 231.351 99.611 231.351 111.985C231.351 112.474 231.389 112.925 231.407 113.395L229.697 114.373L228.212 115.219L167.473 149.783L165.311 151.006C165.33 150.573 165.368 150.159 165.368 149.727C165.368 137.372 157.848 131.674 148.581 137.033C139.313 142.393 131.793 156.741 131.793 169.115C131.793 169.472 131.812 169.811 131.831 170.168C131.323 170.356 129.838 171.014 128.09 171.767C128.09 171.503 128.052 171.259 128.052 170.996C128.109 156.459 136.944 139.572 147.829 133.272Z" fill="#BF2E58"/>
<path d="M126.831 38.3433C129.387 40.3178 134.275 43.8344 142.246 48.4417C155.254 55.945 179.448 67.7358 179.448 67.7358L161.815 94.7402C151.57 85.7701 117.45 65.9682 110.72 62.414C112.844 58.5025 120.646 46.5988 126.831 38.3433Z" fill="#B5E0FF"/>
<path d="M124.424 80.6552C106.754 70.4252 104.197 66.6265 104.197 66.6265L124.631 36.5193C124.631 36.5193 125.308 37.1587 126.849 38.3434C120.665 46.5989 112.882 58.5026 110.739 62.4141C117.488 65.9683 151.588 85.7702 161.834 94.7404L159.653 98.1441C159.653 98.1441 143.298 91.5811 124.424 80.6552Z" fill="#97CDFC"/>
<path opacity="0.5" d="M178.451 69.278C178.451 69.278 151.457 65.4041 136.643 58.9351C119.518 51.4506 116.209 48.8931 116.209 48.8931L124.612 36.5193C124.612 36.5193 133.26 43.1387 145.122 50.0779C152.359 54.309 179.448 67.7548 179.448 67.7548L178.451 69.278Z" fill="white"/>
<path d="M60.415 123.681C60.227 120.579 59.0239 116.385 57.05 115.727C56.956 115.708 56.7681 115.915 56.5237 116.253C56.5237 115.877 56.5425 115.482 56.5801 115.106C57.5012 114.486 59.8322 112.718 59.851 112.831C65.0207 122.271 88.8009 136.356 104.987 136.544C106.434 136.563 101.264 140.719 100.907 140.625C97.5423 139.628 93.1998 139.892 89.7972 141.283C85.0224 138.575 79.9092 136.431 75.1907 133.573C71.337 131.241 65.2838 127.179 60.415 123.681Z" fill="#191919"/>
<path d="M77.3337 143.728C72.2017 141.189 65.5282 136.676 60.7721 133.629C59.851 133.046 59.7006 131.542 59.8134 129.906C65.0018 134.344 75.2095 140.268 83.8944 144.273C81.8078 145.195 79.5331 144.818 77.3337 143.728Z" fill="#191919"/>
<path d="M88.4062 141.942C87.7294 142.318 86.5827 142.901 85.4172 143.521C81.1311 141.227 76.657 139.252 72.465 136.732C68.2353 134.175 63.9868 131.486 59.9451 128.571C60.0955 127.33 60.3211 126.107 60.3962 125.261C67.3705 130.658 79.74 138.03 88.4062 141.942Z" fill="#191919"/>
<path d="M85.4172 143.502C85.0412 143.69 84.6653 143.897 84.3081 144.085C84.1765 144.16 84.0449 144.198 83.8945 144.273C75.1908 140.268 65.0019 134.344 59.8135 129.906C59.8511 129.455 59.8887 129.003 59.9451 128.552C63.968 131.467 68.2353 134.156 72.465 136.713C76.657 139.233 81.1311 141.208 85.4172 143.502Z" fill="#333333"/>
<path d="M60.4338 124.885C60.4526 124.509 60.4338 124.114 60.415 123.681C65.2839 127.179 71.337 131.241 75.1907 133.573C79.9092 136.431 85.0224 138.575 89.7973 141.283C89.3461 141.471 88.9137 141.659 88.5002 141.885C88.4814 141.904 88.4438 141.923 88.4062 141.941C79.7212 138.049 67.3517 130.677 60.3962 125.261C60.415 125.111 60.4338 124.998 60.4338 124.885Z" fill="#333333"/>
<path d="M99.0274 141.847C101.02 136.808 107.205 133.498 112.826 132.464C115.269 132.012 123.372 130.508 125.27 133.968C125.759 134.852 124.124 136.507 122.187 137.635C118.183 139.967 114.555 143.784 113.202 147.226C112.562 148.824 111.848 150.31 110.739 151.532C109.291 153.131 103.765 150.385 102.092 149.2C99.253 147.226 97.4671 145.815 99.0274 141.847Z" fill="#B5E0FF"/>
<path d="M62.9715 97.6929C63.9491 104.124 59.3622 114.11 57.0312 118.811C55.7529 121.387 52.5007 121.406 50.4141 118.454C51.2788 114.542 54.8129 105.459 62.9715 97.6929Z" fill="#B5E0FF"/>
<path d="M49.7186 123.061C49.8314 122.835 50.1698 122.628 50.4142 122.666C53.7227 123.005 55.189 125.656 55.8846 128.665C56.7681 132.482 57.5013 134.852 61.261 137.071C64.0244 138.707 66.8818 140.23 69.6828 141.81C74.3824 144.461 79.1009 147.094 83.8005 149.746C86.2256 150.385 88.5566 150.46 90.4552 149.388C93.181 147.846 95.0797 146.511 97.7867 148.956C101.246 152.077 103.934 156.873 104.122 161.424C104.197 163.116 104.122 163.511 101.791 162.345C96.1888 159.6 89.8725 155.162 85.6052 155.876C83.4246 154.654 65.9982 145.025 60.5842 141.49C60.1143 140.098 58.9676 139.045 57.5953 138.143C54.5687 136.131 51.6549 134.589 50.057 131.73C49.6998 129.549 49.2111 126.972 49.7186 123.061Z" fill="#191919"/>
<path d="M94.685 150.291C96.0573 151.081 97.1853 153.225 97.1853 155.068C97.1853 156.911 96.0761 157.757 94.685 156.948C93.3127 156.158 92.1848 154.015 92.1848 152.172C92.1848 150.329 93.3127 149.501 94.685 150.291Z" fill="#444444"/>
<path d="M53.0271 126.634C54.2866 127.349 55.3017 129.304 55.3017 130.959C55.3017 132.633 54.2866 133.404 53.0271 132.671C51.7676 131.956 50.7524 130 50.7524 128.345C50.7524 126.672 51.7676 125.901 53.0271 126.634Z" fill="#444444"/>
<path d="M100.193 155.707C101.095 156.234 101.828 157.625 101.828 158.829C101.828 160.032 101.095 160.578 100.193 160.051C99.2905 159.525 98.5574 158.133 98.5574 156.929C98.5574 155.745 99.2905 155.181 100.193 155.707Z" fill="#444444"/>
<path d="M229.415 48.7238C235.242 45.6397 241.145 44.8875 246.127 50.0966C247.536 51.5634 248.608 53.3499 249.849 54.9859L168.676 101.905V94.8719C171.816 89.7381 175.651 83.6263 179.053 78.4925C190.727 71.2713 201.029 66.3631 211.763 59.6685C217.609 56.0203 223.343 51.9395 229.415 48.7238Z" fill="#97CDFC"/>
<path d="M187.024 67.9428C192.137 63.9373 210.71 52.6166 225.692 44.2858C234.171 39.5657 238.231 37.1586 242.085 37.7604C245.469 38.287 246.916 39.9982 249.303 43.0447C252.574 47.2006 255.545 51.7139 255.545 51.7139L249.849 55.0048C248.627 53.3499 247.536 51.5822 246.127 50.1154C241.145 44.9064 235.242 45.6586 229.415 48.7427C223.343 51.9584 217.609 56.0391 211.763 59.6685C201.029 66.3632 190.708 71.2713 179.053 78.4925C182.493 73.3023 185.539 69.1087 187.024 67.9428Z" fill="#74A9D1"/>
<path opacity="0.5" d="M104.611 75.8787C109.01 78.8875 117.864 84.8864 126.455 90.2647C127.244 90.7724 126.868 91.9007 126.004 91.9571C117.431 92.5025 109.461 89.7381 102.731 84.7923C96.6025 80.2791 104.592 75.8787 104.611 75.8787Z" fill="white"/>
<path d="M100.193 141.904C100.795 140.268 103.483 137.184 106.603 137.466C109.968 137.786 114.254 138.218 111.905 141.885C110.438 144.179 109.893 146.38 109.254 147.734C108.502 149.313 107.318 150.761 105.25 149.614C101.753 147.658 98.6327 146.135 100.193 141.904Z" fill="white"/>
<path d="M58.3096 107.641C59.3999 108.581 57.6704 113.433 56.4297 116.517C55.189 119.601 54.4371 119.639 52.7828 118.774C51.1285 117.909 52.0121 114.242 53.6475 111.534C55.3206 108.807 56.8621 106.381 58.3096 107.641Z" fill="white"/>
<path d="M204.544 55.6254C204.544 55.6254 206.085 74.0922 206.085 83.2127C206.085 91.976 211.781 83.5512 211.857 81.8588C212.214 74.205 208.661 53.6885 208.661 53.6885L204.544 55.6254Z" fill="#D33C63"/>
<path d="M113.126 164.188C113.897 165.223 114.743 166.2 115.721 167.065C116.604 167.855 117.732 168.419 118.522 169.303C118.747 169.548 118.522 169.867 118.221 169.83C116.999 169.642 115.852 168.645 114.987 167.799C113.991 166.859 113.183 165.749 112.581 164.508C112.374 164.132 112.882 163.85 113.126 164.188Z" fill="#BF2E58"/>
<path d="M120.232 166.953C120.608 166.163 121.417 165.561 122.037 164.978C122.676 164.395 123.296 163.681 124.048 163.267C124.33 163.116 124.594 163.417 124.462 163.681C124.067 164.452 123.372 165.091 122.789 165.749C122.225 166.389 121.623 167.216 120.853 167.592C120.439 167.799 120.025 167.385 120.232 166.953Z" fill="#BF2E58"/>
<path opacity="0.5" d="M230.374 92.0325C230.374 92.0325 223.644 92.3522 203.867 102.751C182.343 114.053 177.982 116.855 162.905 130.715C167.925 133.423 169.466 139.459 169.466 139.459C169.466 139.459 210.861 115.163 225.824 106.795C226.351 101.191 227.234 97.5424 230.374 92.0325Z" fill="#DD4A6A"/>
<path d="M273.911 50.8489C273.911 50.8489 272.294 52.1276 270.358 53.2559C269.625 53.6885 269.362 55.2681 269.55 57.1487C269.813 60.0635 270.283 63.7305 270.415 65.1597C270.603 67.3411 273.159 65.8179 274.625 65.0656C275.396 62.7338 274.889 53.7073 273.911 50.8489Z" fill="#B5E0FF"/>
<path d="M238.87 36.6133C238.87 36.6133 246.033 52.9927 247.349 58.8787C247.969 61.6431 244.679 64.3699 244.378 63.1476C242.95 57.2803 239.942 45.1509 236.991 37.3279C236.803 36.8578 238.87 36.6133 238.87 36.6133Z" fill="#D33C63"/>
<path d="M207.12 55.2307C207.12 55.2307 209.695 73.9607 210.315 83.7207C211.462 101.792 209.15 120.391 209.15 120.391C209.15 120.391 209.263 109.559 209.018 104.369C208.605 95.1167 208.548 83.1753 207.759 76.6687C206.8 68.7705 206.086 55.8701 206.086 55.8701L207.12 55.2307Z" fill="#BF2E58"/>
<path d="M201.95 85.7326C203.754 85.0368 204.92 84.83 205.258 85.8831C205.728 87.3875 203.585 88.4782 202.815 88.8919C201.066 89.8133 198.867 91.4306 198.002 89.6441C197.137 87.82 200.502 86.2968 201.95 85.7326Z" fill="#333333"/>
<path d="M241.671 62.6211C243.476 61.9253 244.642 61.7184 244.98 62.7715C245.45 64.2759 243.307 65.3667 242.536 65.7804C240.788 66.7019 238.588 68.3191 237.724 66.5326C236.859 64.7085 240.205 63.1852 241.671 62.6211Z" fill="#333333"/>
<path d="M170.5 134.156C171.458 134.626 172.304 135.303 173.188 135.905C173.902 136.394 174.88 136.845 175.275 137.616C175.425 137.917 175.181 138.218 174.861 138.162C174.015 137.992 173.301 137.146 172.643 136.601C171.816 135.924 170.951 135.284 170.237 134.495C170.049 134.325 170.274 134.043 170.5 134.156Z" fill="#BF2E58"/>
<path d="M191.31 125.901C191.686 124.772 191.855 123.606 192.156 122.459C192.269 122.046 192.87 122.14 192.889 122.553C192.926 123.776 192.663 125.017 192.344 126.164C192.099 127.029 191.836 128.345 190.971 128.778C190.821 128.853 190.614 128.797 190.577 128.628C190.37 127.725 191.028 126.747 191.31 125.901Z" fill="#BF2E58"/>
<path d="M188.528 122.534C188.697 123.23 188.866 123.926 189.035 124.641C189.167 125.224 189.355 125.788 189.242 126.371C189.167 126.709 188.753 126.69 188.584 126.465C188.208 125.976 188.152 125.336 188.039 124.753C187.888 124.095 187.757 123.437 187.606 122.798C187.456 122.196 188.377 121.933 188.528 122.534Z" fill="#BF2E58"/>
<path d="M200.126 122.309C200.596 121.444 201.254 120.691 201.668 119.808C202.157 118.773 202.439 117.589 202.514 116.442C202.533 116.159 202.984 116.047 203.04 116.366C203.397 118.604 202.683 121.613 200.465 122.628C200.239 122.741 199.995 122.534 200.126 122.309Z" fill="#BF2E58"/>
<path d="M218.944 107.114C219.583 107.622 220.109 108.224 220.73 108.75C221.256 109.202 222.177 109.559 222.459 110.198C222.572 110.443 222.44 110.687 222.158 110.706C221.369 110.762 220.598 109.897 220.091 109.371C219.47 108.731 218.981 108.054 218.793 107.189C218.793 107.095 218.887 107.058 218.944 107.114Z" fill="#BF2E58"/>
<path d="M215.316 113.846C215.579 113.245 216.124 112.831 216.387 112.229C216.65 111.609 216.688 110.988 216.838 110.349C216.914 110.048 217.384 109.954 217.534 110.255C218.135 111.571 217.384 114.166 215.842 114.542C215.428 114.636 215.165 114.204 215.316 113.846Z" fill="#BF2E58"/>
<path d="M269.023 76.4616C268.948 76.1043 269.399 75.9162 269.606 76.2171C270.696 77.8532 270.546 80.3919 268.929 81.6142C268.704 81.7835 268.346 81.5014 268.44 81.2382C269.061 79.6021 269.437 78.2293 269.023 76.4616Z" fill="#BF2E58"/>
<path opacity="0.5" d="M179.204 9.55248C179.26 8.95071 180.632 7.78477 180.839 7.70955C183.809 6.52482 186.742 7.69075 189.299 9.25159C191.554 10.6244 194.581 12.4673 196.442 14.7615C197.288 15.8146 197.777 16.8677 195.502 16.8677C193.34 16.8677 182.249 13.163 180.256 11.9219C179.072 11.1885 178.865 10.3047 179.204 9.55248Z" fill="white"/>
<path d="M203.961 43.6277C214.301 38.8512 222.798 32.7582 233.851 29.8622C234.19 29.7682 234.434 30.2948 234.096 30.4452C224.358 35.0337 188.095 54.2902 179.711 60.5148C183.114 55.2305 195.446 47.5768 203.961 43.6277Z" fill="#D33C63"/>
<path d="M155.254 15.8147C165.593 11.0382 174.09 4.94525 185.144 2.04925C185.482 1.95522 185.727 2.48176 185.388 2.63221C175.651 7.22068 139.388 26.4773 131.004 32.7018C134.406 27.3987 146.738 19.7638 155.254 15.8147Z" fill="#D33C63"/>
<path d="M70.961 129.474C70.1527 130.884 70.9986 132.915 72.8785 134.006C74.7583 135.097 76.939 134.814 77.7473 133.404C78.5556 131.994 77.7097 129.963 75.8298 128.872C73.95 127.8 71.7693 128.063 70.961 129.474Z" fill="white"/>
<path d="M170.876 103.729C170.876 103.729 165.387 104.839 164.221 104.143C163.056 103.447 163.15 101.228 164.635 100.815C166.139 100.382 169.391 100.815 169.391 100.815L170.876 103.729Z" fill="#333333"/>
<path d="M178.264 102.338C175.256 99.4417 169.917 96.3012 167.868 95.5114C168.019 95.3421 168.169 95.1729 168.338 95.0224C169.823 93.7248 170.97 94.8908 172.436 95.5678C175.876 97.2038 180.839 100.025 182.907 104.124C184.618 107.528 184.336 109.841 181.648 110.179C182.249 107.923 180.971 104.933 178.264 102.338Z" fill="#E5577D"/>
<path d="M171.872 107.453C166.759 105.046 165.556 101.604 166.157 98.7833C166.421 97.5046 167.06 96.3763 167.868 95.5112C169.917 96.3011 175.256 99.4604 178.264 102.338C180.971 104.952 182.249 107.942 181.648 110.179C179.692 110.424 176.516 109.634 171.872 107.453Z" fill="#DD4A6A"/>
<path d="M83.0862 95.7557C91.2824 89.2867 103.351 80.1286 110.438 74.7691C105.87 71.4405 102.58 68.9583 102.58 68.9583C102.58 68.9583 84.8345 81.9339 75.1156 90.4526C71.3183 93.7812 68.9872 96.0754 66.4118 99.5355C66.299 102.544 63.968 110.067 63.6296 112.511C64.3628 113.545 65.3967 114.655 66.6186 115.746C68.2729 111.533 72.5026 104.105 83.0862 95.7557Z" fill="#333333"/>
<path d="M94.685 97.5237C97.4296 99.1973 125.684 115.558 131.154 118.717C141.437 111.101 154.502 100.42 154.502 100.42C154.502 100.42 138.11 93.5746 127.658 86.7671C122.15 83.1941 115.495 78.4363 110.419 74.7505C103.332 80.11 91.2637 89.2681 83.0675 95.7372C72.4838 104.087 68.2541 111.515 66.5999 115.727C68.4985 117.457 70.8671 119.206 73.3862 120.842C74.3449 117.815 77.2775 109.634 82.7855 104.218C89.6658 97.5049 91.6396 95.662 94.685 97.5237Z" fill="#191919"/>
<path d="M104.141 132.802C106.19 131.43 110.438 129.906 117.789 128.552C119.274 127.405 120.214 126.484 126.361 122.196C127.846 121.162 129.463 119.977 131.173 118.717C125.703 115.558 97.4485 99.1974 94.7039 97.5238C91.6585 95.662 89.6846 97.5049 82.8043 104.256C77.2963 109.672 74.3638 117.852 73.405 120.88C75.8676 122.497 78.4807 124.002 80.8869 125.243C88.9139 129.417 98.0688 131.975 104.141 132.802Z" fill="#333333"/>
<path d="M93.1057 99.3853C91.4139 98.3886 86.9022 103.052 83.9132 106.456C80.9242 109.86 78.048 115.313 79.4579 116.479C80.3415 117.213 82.3153 115.633 84.8719 112.831C86.3758 111.176 89.8912 107.001 91.4891 105.666C95.7564 102.018 96.0195 101.115 93.1057 99.3853Z" fill="#191919"/>
<path d="M101.076 103.598C99.3846 102.601 94.8729 107.265 91.8839 110.668C88.8949 114.072 86.0187 119.526 87.4286 120.692C88.3122 121.425 90.286 119.845 92.8426 117.043C94.3465 115.389 97.8619 111.214 99.4598 109.879C103.746 106.23 104.009 105.328 101.076 103.598Z" fill="#191919"/>
<path d="M110.175 108.318C108.483 107.321 103.972 111.985 100.983 115.389C97.9936 118.792 95.1174 124.246 96.5273 125.412C97.4108 126.145 99.3847 124.566 101.941 121.764C103.445 120.109 106.961 115.934 108.558 114.599C112.844 110.951 113.108 110.048 110.175 108.318Z" fill="#191919"/>
<path d="M118.616 113.414C116.924 112.417 112.412 117.081 109.423 120.485C106.434 123.888 103.558 129.342 104.968 130.508C105.851 131.241 107.825 129.662 110.382 126.86C111.886 125.205 115.401 121.03 116.999 119.695C121.285 116.047 121.548 115.144 118.616 113.414Z" fill="#191919"/>
<path d="M138.843 92.0325C123.24 83.9839 103.257 67.8113 93.275 62.0381C84.684 57.0735 79.2136 55.9264 75.7171 56.2461C75.1531 58.2018 75.4727 60.8157 78.9692 63.4485C86.0751 68.7704 111.397 85.5823 126.003 91.9761C126.003 91.9761 136.155 96.527 140.61 98.3511C143.58 99.5923 152.697 101.905 152.697 101.905L154.521 100.42C154.502 100.42 146.08 95.756 138.843 92.0325Z" fill="#D33C63"/>
<path d="M75.6984 56.2461C72.653 56.5282 71.1115 57.9386 70.3032 58.9165C66.5998 63.4297 66.0923 64.6144 73.5177 70.3876C82.9734 77.7405 104.366 91.299 111.077 92.0136C120.026 92.9539 125.985 91.9385 125.985 91.9385C111.378 85.5635 86.0376 68.7328 78.9505 63.4109C75.454 60.8158 75.1344 58.2018 75.6984 56.2461Z" fill="#DD4A6A"/>
<path opacity="0.5" d="M195.464 101.398C191.78 101.115 189.261 109.221 185.463 113.226C184.091 114.674 181.929 114.956 180.012 115.069C177.436 115.219 174.88 114.693 172.304 114.862C169.203 115.069 164.747 116.442 164.409 120.203C164.259 121.895 165.236 122.648 166.232 123.851C167.868 125.826 167.943 127.274 167.83 129.624C167.793 130.527 167.774 131.43 168.112 132.295C169.221 135.153 171.797 134.626 173.789 133.141C175.387 131.956 176.572 131.655 178.395 132.332C179.335 132.689 179.899 133.178 180.971 133.31C182.606 133.517 184.373 133.028 185.67 131.994C186.93 131.016 187.606 129.699 187.888 128.139C188.133 126.803 187.663 124.885 188.227 123.682C188.866 122.309 190.84 121.143 192.118 120.88C192.757 120.748 193.472 120.936 194.13 120.805C198.134 120.015 198.679 114.749 199.6 111.515C200.653 107.923 200.559 101.774 195.464 101.398Z" fill="#472210"/>
<path opacity="0.5" d="M159.145 112.624C157.792 110.744 155.085 109.126 152.735 110.142C151.344 110.744 150.742 112.267 149.314 112.869C148.111 113.357 145.103 113.809 144.689 117.231C144.52 118.661 146.344 119.977 147.227 120.992C149.051 123.061 151.006 124.998 152.491 127.349C153.807 129.417 154.859 132.689 157.98 131.73C160.743 130.903 161.138 127.556 161.27 125.13C161.42 121.35 161.495 115.896 159.145 112.624Z" fill="#472210"/>
<path opacity="0.5" d="M143.843 122.704C137.583 119.977 138.298 133.047 138.542 135.134C138.73 136.714 139.99 137.504 141.512 137.485C143.561 137.447 145.216 135.999 146.099 134.25C147.716 131.035 147.678 124.377 143.843 122.704Z" fill="#472210"/>
<path opacity="0.5" d="M203.04 35.0526C201.612 32.796 198.453 32.2318 195.84 32.796C190.784 33.9243 187.776 38.5504 182.193 38.5128C179.561 38.494 177.305 37.3656 174.861 36.651C172.699 36.0116 170.876 35.5603 168.018 36.6698C166.233 36.6886 165.274 36.0869 165.123 34.8646C164.747 34.15 164.729 33.3789 164.259 32.6831C163.601 31.7429 162.586 31.0659 161.439 30.6898C158.845 29.8435 155.912 30.5582 154.446 32.702C152.547 35.5039 154.013 39.359 152.171 42.0669C151.306 42.4242 150.498 42.9132 149.746 43.5902C147.829 45.3202 147.415 47.2948 149.803 48.8744C151.87 50.2472 154.653 50.3412 154.953 53.2372C155.085 54.6288 154.897 56.0769 155.649 57.3744C156.457 58.766 158.13 58.9917 157.679 61.0791C157.266 62.922 154.521 65.2162 153.393 66.8146C151.927 68.8832 149.276 72.3246 150.536 74.9197C151.664 77.2327 154.878 77.4772 157.115 76.4617C159.935 75.2018 161.646 72.3998 163.037 70.0115C164.014 68.3379 164.879 66.589 166.12 65.0469C167.492 63.3169 169.729 62.0757 170.838 60.1576C171.647 58.7472 171.534 57.4684 171.534 55.9264C171.534 54.1023 170.989 52.2218 174.015 51.5636C174.993 51.3568 176.271 51.8457 177.267 51.8645C181.666 51.9773 185.933 48.9873 189.637 47.182C193.547 45.245 206.781 40.9951 203.04 35.0526Z" fill="#472210"/>
<path opacity="0.5" d="M139.031 53.7826C138.279 52.6354 138.937 50.3412 139.614 49.3821C141.512 46.6742 144.802 43.7217 144.708 40.0735C144.633 37.1211 141.738 35.7107 139.087 36.6886C137.847 37.1399 137.057 40.8445 134.613 43.5337C131.887 46.5425 127.695 48.7804 126.455 49.9463C122.432 53.6885 121.041 57.0359 121.36 60.3644C121.586 62.8091 123.616 64.069 125.909 63.1664C127.583 62.5082 127.658 59.048 129.838 59.2173C132.451 59.4241 130.722 62.5082 132.057 63.7493C132.715 64.3511 133.373 64.5768 134.275 64.4828C137.245 64.1443 139.745 60.9474 140.441 58.2394C140.629 57.2991 140.29 55.6819 139.031 53.7826Z" fill="#472210"/>
<path opacity="0.5" d="M118.916 160.972C118.822 160.07 118.578 159.111 118.014 158.377C117.149 157.268 115.119 156.91 114.894 158.735C114.781 159.712 115.57 160.408 115.89 161.254C116.98 164.075 118.202 164.658 118.747 163.793C119.217 163.041 118.992 161.762 118.916 160.972Z" fill="#472210"/>
<path opacity="0.5" d="M202.833 105.158C201.856 106.061 201.16 109.559 203.078 111.477C204.619 113.019 205.428 108.449 205.54 107.302C205.653 105.986 204.206 103.899 202.833 105.158Z" fill="#472210"/>
<path opacity="0.5" d="M121.68 154.447C120.289 154.278 119.762 156.478 120.853 158.377C121.266 159.092 122.244 160.296 123.127 160.446C124.048 160.597 124.255 159.337 124.349 158.697C124.65 156.911 123.691 154.692 121.68 154.447Z" fill="#472210"/>
<path opacity="0.5" d="M136.117 141.133C135.647 139.271 134.557 137.917 134.989 135.868C135.196 134.927 136.004 133.931 135.835 132.915C135.647 131.73 134.595 131.448 133.561 131.806C131.512 132.52 130.402 135.003 129.989 136.958C129.744 138.124 129.425 142.713 130.91 144.781C131.831 146.079 133.767 146.398 135.064 145.383C136.38 144.367 136.474 142.6 136.117 141.133Z" fill="#472210"/>
<path opacity="0.5" d="M231.783 72.2119C231.295 66.307 230.242 58.5968 225.317 54.5725C223.681 53.2373 221.087 50.5858 219.094 51.5073C218.455 51.8082 218.248 52.6544 217.872 54.817C217.158 58.9541 215.485 58.5592 214.977 56.4719C214.677 55.2871 214.244 54.0084 212.947 53.9708C210.579 53.8956 210.278 56.9984 210.033 59.1986C209.827 60.9287 209.676 63.2418 208.172 63.1478C206.386 63.0537 205.71 65.3104 206.104 67.7738C206.349 69.3347 208.736 73.1709 208.229 77.5525C207.909 80.3921 206.913 82.7992 207.063 85.6388C207.157 87.2185 207.232 88.9862 208.304 90.2837C209.507 91.7505 212.026 92.3899 213.474 90.9231C214.601 89.7572 214.319 84.2284 216.425 90.3401C217.308 92.8977 216.65 96.5647 217.026 99.2538C217.553 102.902 218.06 107.979 221.933 106.325C225.505 104.783 225.73 101.604 226.275 97.7306C226.839 93.7815 225.824 89.4563 226.764 85.6012C226.971 84.7173 227.103 83.8147 227.911 83.2505C228.136 83.1001 228.719 83.3258 229.02 83.1754C229.922 82.7052 230.561 82.4795 231.182 81.6145C232.93 79.151 232.009 75.0138 231.783 72.2119Z" fill="white"/>
<path opacity="0.5" d="M82.2589 106.155C82.2589 106.155 89.91 101.774 91.8274 97.3544C93.7449 92.9351 95.23 88.9108 97.185 90.9606C99.1589 92.9915 95.9819 97.3544 95.9819 97.3544C95.9819 97.3544 101.828 92.8411 103.915 94.2139C106.002 95.5867 103.05 97.4672 101.603 98.5955C100.155 99.7238 98.6325 100.532 98.6325 100.532C98.6325 100.532 111.265 95.8876 113.22 99.8367C115.175 103.786 104.385 105.666 104.385 105.666C104.385 105.666 112.525 110.123 111.716 113.508C110.908 116.874 99.2717 113.076 99.1213 113.245C98.9709 113.395 103.295 118.999 99.2905 121.801C95.3052 124.603 92.9177 121.406 90.5867 118.115C88.2557 114.824 85.2855 112.267 82.7665 110.217C80.2475 108.167 79.6459 108.374 82.2589 106.155Z" fill="white"/>
<path d="M89.4777 102.375C87.2783 103.692 84.9848 104.801 82.5598 105.554L82.7666 110.217C85.5112 111.251 88.2558 112.248 90.8876 113.583C92.4855 114.373 93.9894 115.389 95.606 116.141C96.17 116.404 96.7716 116.799 97.4295 116.517C98.971 115.84 97.5987 113.978 96.9596 113.17C96.452 112.511 95.8316 111.872 95.1361 111.345C96.3392 111.59 97.5611 111.74 98.8018 111.834C99.7981 111.891 102.637 112.229 103.182 110.875C103.802 109.333 100.719 108.374 98.1627 107.904C98.783 107.773 99.3846 107.622 99.9861 107.434C100.926 107.133 102.637 106.607 102.411 105.253C102.186 103.861 100.306 104.049 99.2906 104.106C97.1475 104.256 95.1173 104.782 93.0118 104.971C94.4029 104.406 95.7376 103.579 96.358 102.281C96.8656 101.228 96.7904 99.7051 95.5121 99.3102C94.6473 99.0469 93.9142 99.5547 93.1998 99.9872C91.9403 100.702 90.756 101.623 89.4777 102.375Z" fill="#B5E0FF"/>
<path d="M81.9771 104.087C79.7024 105.704 77.4466 107.058 74.7208 107.81C74.3072 107.923 74.514 108.506 74.9276 108.431C75.172 108.393 79.0633 109.597 80.586 110.894C81.9583 112.06 82.8794 113.621 84.2705 114.749C84.4397 114.881 84.6653 114.843 84.7781 114.655C85.5488 113.301 84.6841 111.458 83.481 110.123C86.0376 111.139 89.4965 112.286 89.4401 110.838C89.4025 109.616 86.6767 108.262 85.7368 107.885C85.0036 107.585 84.1577 107.378 83.3118 107.284C84.0073 106.983 84.6277 106.532 85.0976 105.911C85.6804 105.14 86.3571 103.504 85.3232 102.752C84.1953 101.924 82.7854 103.504 81.9771 104.087Z" fill="#E1F4FF"/>
<path d="M81.4507 107.81C81.4507 107.81 85.53 107.772 87.3347 106.757C89.1393 105.742 87.7482 104.181 86.0563 105.422C84.3833 106.663 81.4507 107.81 81.4507 107.81Z" fill="white"/>
<path d="M89.365 109.032C89.365 109.032 91.3388 109.728 92.7111 110.236C94.0834 110.744 94.5346 109.446 92.354 108.901C90.1921 108.337 89.365 109.032 89.365 109.032Z" fill="white"/>
<path d="M100.099 103.109C100.099 103.109 102.862 103.127 104.761 102.262C106.66 101.397 105.456 99.799 103.558 100.89C101.697 101.962 100.099 103.109 100.099 103.109Z" fill="white"/>
<path d="M101.133 113.508C101.133 113.508 104.855 115.558 106.415 116.555C107.975 117.551 109.517 117.006 107.299 115.52C105.438 114.279 103.426 113.414 101.133 113.508Z" fill="white"/>
<path d="M104.385 106.475C104.385 106.475 106.848 106.926 108.389 106.306C109.931 105.685 108.821 104.594 107.412 105.365C106.039 106.136 104.385 106.475 104.385 106.475Z" fill="white"/>
<path d="M99.2905 117.1C99.2905 117.1 101.302 118.999 102.374 120.485C103.445 121.989 104.705 121.5 103.257 119.639C101.828 117.758 99.2905 117.1 99.2905 117.1Z" fill="#B5E0FF"/>
<path d="M93.3315 98.0126C93.3315 98.0126 97.8056 95.1166 98.4636 93.7062C99.1215 92.2958 97.6552 91.7881 96.5649 93.1421C95.4746 94.4772 93.3315 98.0126 93.3315 98.0126Z" fill="#97CDFC"/>
<path d="M36.0895 107.96C36.0895 107.96 36.4279 111.966 36.2023 113.282C35.9767 114.599 35.5632 116.573 35.5632 116.573C35.5632 116.573 36.7287 115.295 39.3041 114.091C41.8795 112.887 44.8873 111.928 44.8873 111.928L46.1092 114.091C46.1092 114.091 43.2706 117.984 40.902 119.62C38.5333 121.256 35.9767 121.538 34.7736 122.309C33.5705 123.08 33.2509 122.929 32.311 121.688C31.3711 120.428 29.7356 119.996 29.5288 115.953C29.3408 111.91 29.1528 109.54 29.1528 109.54L36.0895 107.96Z" fill="#FFC9B6"/>
<path d="M5.71098 169.792C6.57571 168.137 11.3318 170.187 13.0988 171.202C14.8659 172.218 11.8581 174.963 11.5197 175.151C11.2002 175.34 3.9439 173.177 5.71098 169.792Z" fill="#191919"/>
<path d="M27.8559 163.06C27.7431 161.95 30.2809 161.593 33.2887 161.537C36.2965 161.48 38.4207 161.555 38.1952 162.778C37.9508 164 37.274 166.125 33.4579 165.918C29.6418 165.693 28.0439 164.827 27.8559 163.06Z" fill="#191919"/>
<path d="M10.8055 125.675C10.5799 125.788 9.00079 126.258 8.81281 127.518C8.62482 128.778 10.5235 129.38 11.3882 128.12C12.2342 126.841 10.8055 125.675 10.8055 125.675Z" fill="#67893B"/>
<path d="M38.9283 143.973C37.9319 141.754 30.4877 132.107 28.5702 130.602C27.2919 127.236 27.4235 127.386 26.2956 126.07C26.1076 125.844 17.0655 130.771 17.0843 131.091C17.4414 135.623 20.374 143.408 28.1378 148.787C28.5702 149.802 27.0287 151.927 26.8219 155.895C26.6152 159.844 27.7055 160.427 28.965 165.749C29.1906 166.689 35.7325 168.984 36.8416 165.862C39.6238 158.171 39.605 145.496 38.9283 143.973Z" fill="#67893B"/>
<path d="M23.3442 138.387C24.4721 135.51 24.5849 131.298 23.1186 128.646C23.0058 128.439 12.0462 128.251 12.065 128.233C12.347 127.8 10.0536 128.759 10.1664 129.192C5.46671 135.792 7.36537 143.935 11.7454 150.592C10.7867 151.363 10.5047 151.006 11.3883 152.585C9.47081 154.748 9.28283 160.86 7.70374 165.768C7.30897 166.971 6.82021 168.438 6.50063 169.811C6.03067 171.842 5.95547 173.704 7.25258 174.362C9.13244 175.321 9.47082 178.142 11.6515 178.273C13.9261 178.405 15.9187 174.719 16.8211 172.068C18.419 167.441 18.325 165.411 21.0508 159.807C22.9306 155.951 25.3368 154.109 24.9985 150.742C24.6977 147.828 23.4758 141.189 23.3442 138.387Z" fill="#7BA050"/>
<path d="M27.6679 111.853C30.7133 112.587 34.473 113 36.8604 111.063C36.898 109.296 36.5784 106.682 35.6197 105.14C36.5596 99.893 30.0177 96.6022 27.7619 99.8178C27.3671 99.5546 26.3144 103.41 26.9347 105.177C27.8183 107.697 27.7995 109.578 27.6679 111.853Z" fill="#FFB30B"/>
<path d="M9.4519 128.966L8.81274 131.467C8.81274 131.467 11.2566 134.701 18.3624 133.554C25.4683 132.407 25.7503 129.812 25.7503 129.812L24.3404 127.367L9.4519 128.966Z" fill="#67893B"/>
<path d="M23.9268 99.4793C20.7123 99.3101 18.7196 98.7271 15.5427 100.175C12.6477 101.473 11.9521 103.616 10.7678 107.171C9.84667 109.954 10.467 117.758 10.0159 120.297C9.94066 120.673 9.4519 122.459 8.88794 124.678C8.56836 125.92 9.24511 126.803 10.1286 127.386C9.73388 127.781 9.32031 128.195 8.92554 128.59C8.47437 128.928 8.45557 129.493 8.92554 129.831C14.9787 134.175 22.8741 132.52 26.7278 126.164C26.9158 125.844 26.8218 125.299 26.4647 125.13C26.2015 125.017 25.9571 124.904 25.6939 124.81C26.5023 123.606 26.803 121.933 27.6678 120.748C29.2468 118.623 28.9837 118.473 29.5288 115.915C32.217 113.151 34.4541 105.159 32.5554 101.849C31.6155 100.194 26.2015 99.6109 23.9268 99.4793Z" fill="#FFCF48"/>
<path d="M20.938 99.2725C20.938 99.2725 22.5171 102.451 25.0361 104.256C27.5551 106.042 29.7545 105.064 29.5478 103.598C29.341 102.131 28.2131 101.059 28.2131 101.059C28.2131 101.059 25.694 99.6297 23.9458 99.4793C22.1975 99.3477 20.938 99.2725 20.938 99.2725Z" fill="#FFB30B"/>
<path d="M27.3105 100.175C27.3105 100.175 29.416 101.849 29.9236 104.764C30.2619 106.738 30.2055 109.315 29.7732 110.687C29.2844 112.305 29.7544 112.85 30.5815 112.85C31.5778 112.85 32.6306 109.446 31.7846 104.068C31.3523 101.341 30.1115 99.912 29.1528 99.5735C28.2505 99.2538 27.3857 99.8931 27.3105 100.175Z" fill="#7BA050"/>
<path d="M14.1892 128.571C14.1892 128.571 17.9113 129.568 20.5619 128.458C23.2125 127.349 24.3593 126.07 24.3593 126.07C24.3593 126.07 21.9154 126.916 19.8852 127.386C17.8737 127.857 14.1892 128.571 14.1892 128.571Z" fill="#FFB30B"/>
<path d="M12.5161 123.682C12.5161 123.682 15.0539 125.844 18.3061 125.75C21.5582 125.656 23.0433 124.791 23.0433 124.791C23.0433 124.791 20.1483 124.434 18.1369 124.359C16.1254 124.265 12.5161 123.682 12.5161 123.682Z" fill="#FFB30B"/>
<path d="M8.81277 127.518C8.81277 127.518 8.4744 128.327 8.28641 128.985C8.09842 129.643 8.51199 129.587 9.18874 130.019C9.86549 130.452 11.2754 132.332 14.1892 132.821C17.103 133.31 23.0433 131.204 24.66 129.417C26.3143 128.571 27.6678 128.233 27.7994 126.371C27.8558 125.543 29.0025 121.97 29.5477 120.259C30.6568 116.667 31.4463 110.969 31.4463 110.969C27.4986 111.383 21.577 110.687 19.7724 110.029C18.7009 113.207 16.9902 118.849 16.2006 121.256C15.3923 123.663 13.0613 126.653 11.407 127.405C9.71511 128.138 8.81277 127.518 8.81277 127.518Z" fill="#7BA050"/>
<path d="M21.483 112.869C21.483 112.869 20.7311 116.009 20.4491 117.269C20.1671 118.529 20.4491 121.143 24.1524 121.444C27.7617 121.726 28.4197 120.372 28.8521 118.585C29.322 116.667 29.6792 114.091 29.6792 114.091C29.6792 114.091 23.4945 113.226 21.483 112.869Z" fill="#67893B"/>
<path d="M17.291 99.4794C17.291 99.4794 19.3965 101.153 19.904 104.068C20.2424 106.042 20.186 108.619 19.7536 109.992C19.2649 111.609 19.7348 112.154 20.562 112.154C21.5583 112.154 23.0434 108.957 22.1787 103.579C21.7463 100.852 20.092 99.1974 19.1333 98.8777C18.2309 98.558 17.3662 99.1973 17.291 99.4794Z" fill="#7BA050"/>
<path d="M29.3222 102.131L27.4235 104.086C25.4873 103.391 23.0246 101.548 22.1975 99.3476C22.9119 98.7834 24.7165 97.9184 24.8857 97.1473C24.1338 95.06 25.2617 93.2922 27.2167 91.4305C29.247 89.456 32.9127 89.4748 35.1122 91.2237C35.4317 91.3553 37.0672 92.5401 36.8604 94.5146C36.6161 96.7336 35.6197 101.303 33.7211 102.262C32.3864 102.921 30.5817 102.62 29.3222 102.131Z" fill="#FFC9B6"/>
<path d="M24.1525 91.393C24.3405 89.7006 25.2617 88.1773 27.0851 87.3499C29.1342 86.4097 32.7999 86.278 34.4354 88.1209C34.473 88.0645 34.473 87.9892 34.5294 87.9516C35.0369 87.2935 35.8829 87.4063 36.4844 87.8576C36.9544 88.2149 37.3116 88.7415 37.5372 89.3244C37.8943 89.2116 38.2891 89.2116 38.6275 89.3433C39.8118 89.8322 39.7742 91.5247 39.3606 92.5025C38.4959 94.5523 35.2625 96.7901 32.8751 96.226C32.9879 97.4107 32.4051 98.0689 31.4652 98.8399C29.9801 100.062 27.8371 100.119 26.1452 99.2912C24.2277 98.351 22.4983 96.1508 22.6299 93.9317C22.6863 92.8598 23.2878 91.882 24.1525 91.393Z" fill="#191919"/>
<path d="M33.7023 96.7337C33.7023 96.7337 33.2699 95.3421 31.954 96.2072C30.6381 97.0722 32.2172 99.6862 32.2172 99.6862L33.7023 96.7337Z" fill="#FFC9B6"/>
<path d="M73.0101 108.28C73.0665 109.127 73.6493 109.785 74.2884 109.728C74.9276 109.672 75.3975 108.957 75.3223 108.092C75.2659 107.246 74.6832 106.588 74.044 106.644C73.4049 106.682 72.9349 107.415 73.0101 108.28Z" fill="#444444"/>
<path d="M71.6189 108.957C71.6189 108.957 72.8032 109.54 74.1003 109.728C74.9087 109.841 74.9839 106.663 74.0439 106.644C73.104 106.625 71.4497 107.641 71.4497 107.641L71.6189 108.957Z" fill="#444444"/>
<path d="M71.8069 107.622L47.8386 109.766C47.9138 110.274 47.9138 110.575 47.9702 111.082L71.8821 108.939C72.164 108.92 72.352 108.619 72.3332 108.243C72.3144 107.867 72.0701 107.603 71.8069 107.622Z" fill="#515151"/>
<path d="M58.8734 108.525L31.1831 110.969C31.1831 110.969 28.5701 109.371 24.8667 109.691C23.1749 109.841 21.2762 110.781 21.2198 113.151C21.1634 114.975 21.8965 118.473 23.8704 119.075C25.4495 119.545 29.886 119.187 30.8447 117.871C31.7282 116.649 31.465 114.373 31.2771 113.301L59.0238 110.499C59.4374 110.481 59.7382 110.01 59.7006 109.465C59.6442 108.92 59.287 108.506 58.8734 108.525ZM29.8484 116.667C29.6792 117.645 28.5137 117.796 27.2542 117.89C25.6375 118.021 25.3179 118.134 24.5471 117.852C23.156 117.363 22.7237 114.919 22.7237 114.919L29.5852 114.091C29.5852 114.091 30.0176 115.652 29.8484 116.667Z" fill="#333333"/>
<path d="M30.0176 92.6718C30.0176 92.6718 33.063 95.3986 37.913 92.2393C42.763 89.0988 38.4958 85.6951 35.1308 86.1088C31.7659 86.5413 30.0176 88.121 30.0176 88.121V92.6718V92.6718Z" fill="#7BA050"/>
<path d="M35.582 89.1553C35.1872 84.8676 29.0589 82.4418 24.3592 85.7515C21.7838 87.5756 20.3927 91.4307 22.8741 95.5303C23.4381 97.1852 34.5481 96.6398 35.582 89.1553Z" fill="#8AB262"/>
<path d="M27.4798 85.112C27.6489 85.4505 27.273 85.9583 26.6526 86.2591C26.0323 86.56 25.3931 86.5225 25.2427 86.184C25.0735 85.8455 25.4495 85.3377 26.0699 85.0368C26.6902 84.7359 27.3294 84.7735 27.4798 85.112Z" fill="#7BA050"/>
<path d="M4.52684 107.603C3.86889 108.788 5.12839 109.597 6.93306 110.65C8.73773 111.703 10.4108 112.323 11.5387 111.665C12.6666 111.007 12.6854 108.374 9.41448 107.302C6.16232 106.212 5.56076 105.742 4.52684 107.603Z" fill="#E58800"/>
<path d="M18.9077 111.646C17.573 111.703 15.5991 112.267 14.6592 112.154C13.7192 112.06 10.2603 111.646 10.2603 111.646C10.2603 111.646 12.4221 109.484 14.4336 108.525C16.4638 107.584 17.0654 105.328 17.2722 104.312C17.479 103.297 10.0723 103.485 8.79401 104.086C8.53083 104.199 5.89902 107.095 4.94029 108.675C4.00036 110.255 4.54551 110.913 3.47399 112.831C2.42127 114.749 3.73717 115.088 4.41392 115.464C5.09067 115.84 9.92192 117.119 12.4973 117.081C15.0727 117.043 16.3699 116.385 17.2534 116.667C17.5918 116.78 18.0805 116.93 18.5505 117.081C20.28 118.454 22.2538 117.194 23.9645 117.532C25.6752 117.89 25.7316 116.065 25.3556 114.091C24.0961 110.913 19.1708 111.627 18.9077 111.646Z" fill="#FFC9B6"/>
<path d="M11.5385 111.665C12.3656 111.044 15.505 108.995 17.2721 106.644C18.7008 104.745 18.4 102.262 17.0841 100.382C15.505 98.1252 10.3166 100.401 8.04195 103.842C6.16209 104.97 5.03417 106.381 4.52661 107.603C5.82372 107.377 8.38033 108.543 11.5385 111.665Z" fill="#FFB30B"/>
<path d="M27.8557 163.06C27.8557 163.06 30.1115 164.828 33.8901 164.734C37.2362 164.64 38.195 162.797 38.195 162.797C38.195 162.797 37.0294 168.72 36.3903 172.613C37.9882 173.478 39.6612 174.493 41.6539 175.396C44.4925 176.694 44.0601 178.255 43.8533 180.21C43.6654 181.884 40.4884 182.411 38.6837 182.373C36.7099 182.316 33.3261 178.932 32.593 178.631C31.4087 178.593 30.1679 178.894 28.8144 177.559C27.6489 176.393 28.8896 173.196 29.2844 172.763C28.8332 170.977 27.8557 166.238 27.8557 163.06Z" fill="#333333"/>
<path d="M5.71104 169.792C5.71104 169.792 4.73351 172.162 3.92517 175.471C3.66199 176.524 2.89124 179.684 2.51527 180.53C1.53774 181.395 1.57534 181.357 0.804597 182.373C-0.32332 183.877 -0.22933 184.648 0.86099 185.701C2.00771 186.792 3.07923 187.018 3.07923 187.018C3.07923 187.018 4.28234 191.663 5.05308 192.453C6.98934 194.389 8.9444 195.161 11.9522 195.255C14.8096 195.349 16.539 193.073 16.539 192.189C16.539 190.309 15.8435 189.068 14.0576 188.315C12.1214 187.507 10.5611 185.401 10.3543 184.31C10.3543 184.31 11.8018 182.486 13.0425 180.267C14.3396 177.954 15.4487 175.246 16.0127 174.211C14.1892 174.719 11.0498 173.798 9.28277 172.933C6.72616 171.692 5.71104 169.792 5.71104 169.792Z" fill="#333333"/>
<path d="M13.0989 153.15C13.0989 153.15 13.2681 154.184 15.0915 154.56C16.7834 154.899 17.9113 154.504 18.8889 154.128C16.4074 153.338 14.3208 153.056 13.0989 153.15Z" fill="#67893B"/>
<path d="M14.1892 152.021C14.1892 152.021 14.772 150.724 16.1067 150.31C17.4602 149.896 18.4189 150.31 18.4189 150.31C18.4189 150.31 15.3359 151.89 14.1892 152.021Z" fill="#67893B"/>
<path d="M43.7031 112.812C43.7031 112.812 44.5867 111.759 46.2973 111.421C48.008 111.082 47.7448 109.502 47.7448 109.502C47.7448 109.502 47.6884 108.562 49.6435 107.998C51.6174 107.415 52.2001 108.656 52.3505 109.653C52.5197 110.631 52.0121 112.361 50.339 113.301C48.666 114.241 47.4253 113.433 46.7861 113.903C46.1281 114.373 45.207 114.787 45.207 114.787C45.207 114.787 44.0227 114.335 43.7031 112.812Z" fill="#FFC9B6"/>
<path d="M46.1094 109.653C46.1094 109.653 46.8049 108.337 47.5945 108.28C48.384 108.243 49.1923 108.619 49.1923 108.619L48.7412 109.634H46.1094V109.653Z" fill="#FFC9B6"/>
<path d="M17.7798 125.675C17.7798 125.675 19.3965 127.067 21.2387 127.236C23.3442 127.443 24.3593 127.367 25.0173 127.048C24.7165 127.048 23.4006 126.653 21.7839 126.352C20.5432 126.126 17.7798 125.675 17.7798 125.675Z" fill="#67893B"/>
<path d="M215.767 70.0866C214.132 68.5446 213.53 65.2537 214.32 63.0535C214 63.3167 213.718 63.6364 213.511 64.0501C212.402 66.1939 212.985 69.9362 214.752 71.6099C216.275 73.0391 219.207 72.7194 220.11 70.7637C220.185 70.5944 220.241 70.4064 220.298 70.2371C219.038 71.2526 216.97 71.2338 215.767 70.0866Z" fill="#B5E0FF"/>
<path d="M219 63.0723C217.515 62.0944 215.579 62.0004 214.32 63.0723C213.53 65.2725 214.132 68.5634 215.767 70.1054C216.97 71.2337 219.019 71.2525 220.298 70.2747C221.275 67.5103 220.429 64.0126 219 63.0723Z" fill="white"/>
<path d="M216.707 63.6364C216.594 63.4672 216.331 63.0159 215.73 63.2039C215.09 63.4108 215.805 64.7083 216.463 64.3698C216.707 64.2758 216.895 63.9373 216.707 63.6364Z" fill="#B5E0FF"/>
<path d="M218.831 65.8179C218.718 65.6486 218.455 65.1973 217.854 65.3853C217.214 65.5922 217.929 66.8898 218.587 66.5513C218.812 66.4385 219.019 66.1 218.831 65.8179Z" fill="#B5E0FF"/>
<path d="M216.387 65.4606C215.861 65.0657 215.147 65.517 215.184 65.8931C215.278 66.6453 216.256 66.382 216.5 65.9119C216.594 65.7427 216.538 65.5734 216.387 65.4606Z" fill="#B5E0FF"/>
<path d="M217.233 68.2812C216.462 68.2812 216.369 69.5789 216.876 69.6729C217.703 69.8421 218.173 68.2812 217.233 68.2812Z" fill="#B5E0FF"/>
<path d="M232.761 76.029C229.809 74.3177 223.587 70.6507 222.986 69.9926C222.986 69.9926 222.534 67.341 222.121 65.2537C221.726 63.1851 220.241 62.6585 218.981 61.9815C217.722 61.2857 216.914 62.0944 217.327 63.4671C217.722 64.8399 218.361 65.2912 218.699 65.987C219.038 66.6828 219.451 68.0556 219.282 67.9428C219.113 67.83 217.327 67.0213 216.932 67.3598C216.538 67.7171 217.214 68.3753 217.854 68.7326C218.493 69.0899 218.549 70.5756 219.621 71.5534C220.711 72.5313 221.914 73.039 221.914 73.039C221.914 73.039 222.459 74.2237 224.753 76.9317C227.046 79.6585 230.298 81.4073 230.298 81.4073C230.298 81.4073 235.712 77.7403 232.761 76.029Z" fill="#FFC9B6"/>
<path d="M224.189 85.5071C221.125 87.0491 217.666 88.6288 216.632 89.1553C212.27 88.0458 206.086 89.3245 203.98 88.9672C202.852 88.4971 201.405 87.1432 199.863 86.3533C198.322 85.5823 198.491 86.7483 199.168 87.7073C199.863 88.6664 200.709 89.3622 200.033 89.7007C199.337 90.0392 197.288 89.8699 195.22 91.6752C193.152 93.4805 194.017 96.5646 197.457 96.0569C199.581 95.7372 203.548 94.7593 205.973 93.9319C206.255 93.8378 214.695 94.9474 216.5 95.5303C218.324 96.1133 218.568 95.267 219.865 94.7593C221.162 94.2704 226.294 92.4274 227.685 91.1111C229.095 89.7759 224.189 85.5071 224.189 85.5071Z" fill="#FFC9B6"/>
<path d="M232.78 130.527C232.78 130.527 236.07 130.677 236.107 131.937C236.163 133.197 235.562 133.649 233.851 133.649C232.141 133.667 232.78 130.527 232.78 130.527Z" fill="#191919"/>
<path d="M237.442 69.7292C237.442 69.7292 241.502 63.0157 246.615 67.5478C250.563 71.0456 250.563 75.7281 248.458 78.5865C246.333 81.4449 237.442 69.7292 237.442 69.7292Z" fill="#FFB30B"/>
<path d="M255.752 95.7371C255.752 95.7371 256.165 95.7559 256.823 99.9118C257.631 105.008 254.436 108.412 254.436 108.412C254.436 108.412 253.74 111.872 251.841 115.106C250.544 117.325 248.458 118.792 248.458 118.792C248.458 118.792 249.548 118.585 249.924 120.015C250.92 120.184 252.631 120.353 253.609 124.359C254.06 126.202 252.011 132.746 250.281 131.523C248.571 130.301 242.969 125.487 241.145 124.359C238.72 122.854 237.987 122.046 238.739 118.529C239.152 116.63 242.254 105.553 242.254 105.553L255.752 95.7371Z" fill="#67893B"/>
<path d="M235.806 99.3286C235.806 99.3286 232.065 102.563 229.189 105.403C226.313 108.224 224.471 111.891 223.437 113.959C222.798 115.257 221.275 116.893 222.196 119.695C223.117 122.478 225.392 126.352 225.824 130.545C226.257 134.739 228.55 135.642 228.55 135.642C228.55 135.642 233.344 136.601 234.49 135.228C235.637 133.855 235.111 130.414 235.223 128.195C235.336 125.694 235.205 122.854 233.494 121.744C234.49 120.296 232.704 119.714 232.704 119.714C232.704 119.714 234.66 118.435 237.31 116.949C239.98 115.464 243.363 114.504 245.093 112.549C246.991 113.019 251.428 111.007 252.462 106.625C253.759 101.153 252.123 98.2944 251.447 98.5012C250.77 98.6705 235.806 99.3286 235.806 99.3286Z" fill="#7BA050"/>
<path d="M231.069 71.8919L234.791 74.9572C236.803 74.2426 238.325 71.8731 239.19 69.5789C238.457 68.9959 235.844 67.4915 235.656 66.7017C236.427 64.5391 235.261 62.6962 233.25 60.7592C231.144 58.7095 227.328 58.7283 225.054 60.5336C224.715 60.6652 223.023 61.8876 223.249 63.9561C223.512 66.2692 225.58 70.4627 227.535 71.4782C228.907 72.174 229.753 72.3809 231.069 71.8919Z" fill="#FFC9B6"/>
<path d="M236.445 60.7216C236.257 58.9539 235.299 57.3743 233.4 56.5093C231.276 55.5314 227.479 55.3998 225.768 57.3179C225.73 57.2615 225.73 57.1862 225.674 57.1298C225.147 56.4528 224.283 56.5469 223.644 57.0358C223.155 57.4119 222.779 57.9573 222.534 58.559C222.158 58.4462 221.745 58.4274 221.407 58.5778C220.166 59.0855 219.94 61.8123 222.779 62.9218C222.271 64.9151 224.903 66.3068 227.385 65.7238C227.253 66.9649 227.873 67.6231 228.851 68.4317C230.392 69.6917 233.626 70.1994 235.393 69.3344C237.367 68.3565 238.175 65.6485 238.025 63.3355C237.968 62.2636 237.329 61.2482 236.445 60.7216Z" fill="#191919"/>
<path d="M226.52 66.2879C226.52 66.2879 226.971 64.8399 228.324 65.7425C229.697 66.6452 228.061 69.3532 228.061 69.3532L226.52 66.2879Z" fill="#FFC9B6"/>
<path d="M241.653 67.4538C239.359 68.4505 239.529 68.8642 234.772 72.5124C233.269 73.6596 231.276 75.0323 230.355 76.029C228.343 78.2104 228.4 79.7713 228.7 81.3321C229.133 83.6075 229.659 85.3753 231.502 89.8133C233.851 95.4361 236.258 96.7524 236.258 96.7524C236.258 96.7524 235.75 98.1628 235.261 99.1031C234.885 99.8741 236.107 100.231 237.423 101.002C240.186 102.638 248.044 105.666 255.075 96.8089C256.297 95.2668 256.541 94.0069 256.222 92.0323C255.282 86.1275 252.744 81.3133 251.522 77.5899C249.717 71.9671 243.664 66.5888 241.653 67.4538Z" fill="#FFCF48"/>
<path d="M230.298 61.6242C230.298 61.6242 227.253 64.351 222.403 61.1917C217.553 58.0512 221.82 54.6474 225.185 55.0612C228.55 55.4937 230.298 57.0733 230.298 57.0733V61.6242Z" fill="#7BA050"/>
<path d="M224.734 58.1076C225.129 53.82 231.257 51.3942 235.957 54.7039C238.532 56.528 239.923 60.3831 237.442 64.4826C236.878 66.1375 225.768 65.5921 224.734 58.1076Z" fill="#8AB262"/>
<path d="M232.836 54.0646C232.667 54.4031 233.043 54.9108 233.663 55.2117C234.284 55.5126 234.923 55.475 235.073 55.1365C235.242 54.798 234.867 54.2902 234.246 53.9893C233.626 53.7073 232.987 53.7449 232.836 54.0646Z" fill="#7BA050"/>
<path d="M230.355 76.0291C230.355 76.0291 228.099 76.0667 226.275 79.0379C224.471 82.0279 224.17 83.7392 224.17 83.7392C224.17 83.7392 222.516 84.6983 221.106 85.5069C221.068 88.7414 222.741 91.3177 224.17 94.0069C228.87 93.123 233.513 91.8255 234.19 90.2271C235.261 87.8012 233.287 77.1198 230.355 76.0291Z" fill="#FFB30B"/>
<path d="M236.107 131.937C234.772 133.141 232.141 133.498 230.656 133.235C227.403 132.652 226.407 131.749 225.824 130.527C225.768 132.069 225.636 133.743 225.768 135.98C225.937 138.726 226.445 141.453 226.407 141.81C224.546 141.171 222.798 140.155 221.2 141.133C219.527 142.149 219.414 143.672 219.809 145.195C220.373 145.91 221.407 147 222.873 147.696C224.941 148.693 227.554 149.219 228.475 149.37C229.81 150.159 231.671 150.799 233.043 150.066C234.453 149.313 235.167 148.693 234.754 147.132C234.058 144.518 234.396 144.367 235.318 139.986C235.825 137.56 236.314 134.626 236.107 131.937Z" fill="#333333"/>
<path d="M261.034 135.548C260.038 131.354 255.488 125.243 253.646 123.606C250.92 124.904 247.837 126.897 246.709 129.135C248.401 131.072 248.477 131.505 249.642 132.934C250.3 133.742 252.199 136.074 253.157 137.635C250.394 137.071 248.044 139.779 249.172 142.148C249.454 142.731 251.672 144.725 252.387 144.8C256.24 145.138 257.425 143.145 258.496 142.261C259.963 142.656 262.669 141.716 263.478 139.685C263.722 139.008 261.805 135.83 261.034 135.548Z" fill="#333333"/>
<path d="M232.235 74.4306C232.235 74.4306 234.547 74.6374 238.062 71.967C241.578 69.2967 240.092 68.3 240.092 68.3C240.092 68.3 238.213 68.8078 236.182 70.7823C234.133 72.7193 232.235 74.4306 232.235 74.4306Z" fill="#FFB30B"/>
<path d="M234.246 100.702C234.246 100.702 237.423 102.827 241.296 103.579C246.935 104.651 250.263 102.958 251.785 102.131C253.496 101.19 254.436 99.9869 254.436 99.9869L253.928 98.1628C253.928 98.1628 247.725 101.661 245.018 101.792C242.329 101.924 234.584 100.043 234.584 100.043L234.246 100.702Z" fill="#67893B"/>
<path d="M235.261 97.5234C235.261 97.5234 238.739 97.7867 241.295 95.5112C243.852 93.217 245.863 89.7192 244.04 84.717C246.239 83.0622 249.191 80.5046 251.296 78.4924C252.706 80.7867 253.383 82.7048 255.075 85.3376C256.767 87.9515 257.406 93.5931 256.353 95.7745C255.282 97.9371 253.383 99.9681 248.514 101.567C244.172 102.977 241.277 102.3 238.626 101.661C235.017 100.777 234.171 100.288 234.471 99.4227C234.81 98.52 235.261 97.5234 235.261 97.5234Z" fill="#7BA050"/>
<path d="M231.219 75.2205C231.219 75.2205 234.848 75.1828 238.043 77.966C241.954 81.3697 244.435 85.977 244.435 85.977L245.657 84.6983C245.657 84.6983 241.841 78.3985 238.457 76.0855C235.073 73.7537 232.705 73.9793 232.705 73.9793L231.219 75.2205Z" fill="#7BA050"/>
<path d="M240.074 68.2815C240.074 68.2815 242.424 67.943 245.939 72.5126C249.454 77.0823 250.639 80.3168 250.639 80.3168L251.804 79.3013C251.804 79.3013 249.022 73.6973 246.597 70.9706C243.946 67.9806 241.314 67.6045 241.314 67.6045L240.074 68.2815Z" fill="#7BA050"/>
<path d="M223.23 100.044C223.749 100.044 224.17 99.6226 224.17 99.1033C224.17 98.5841 223.749 98.1631 223.23 98.1631C222.711 98.1631 222.29 98.5841 222.29 99.1033C222.29 99.6226 222.711 100.044 223.23 100.044Z" fill="white"/>
<path d="M213.793 70.7641C213.793 71.6291 213.097 72.3249 212.233 72.3249C211.368 72.3249 210.672 71.6291 210.672 70.7641C210.672 69.899 211.368 69.2032 212.233 69.2032C213.097 69.1844 213.793 69.899 213.793 70.7641Z" fill="white"/>
<path d="M217.703 56.7916C217.703 57.6566 217.008 58.3524 216.143 58.3524C215.278 58.3524 214.583 57.6566 214.583 56.7916C214.583 55.9265 215.278 55.2307 216.143 55.2307C217.008 55.2307 217.703 55.9265 217.703 56.7916Z" fill="white"/>
<path d="M215.485 104.576C215.485 105.159 215.015 105.648 214.413 105.648C213.831 105.648 213.342 105.178 213.342 104.576C213.342 103.974 213.812 103.504 214.413 103.504C215.015 103.504 215.485 103.993 215.485 104.576Z" fill="white"/>
<path d="M217.177 83.2883C216.293 83.3447 215.523 82.6677 215.466 81.7838C215.41 80.9 216.087 80.129 216.97 80.0726C217.854 80.0162 218.624 80.6932 218.681 81.577C218.737 82.4797 218.06 83.2319 217.177 83.2883Z" fill="white"/>
<path d="M211.312 87.5193C212.09 87.5193 212.721 86.8878 212.721 86.1089C212.721 85.3299 212.09 84.6985 211.312 84.6985C210.533 84.6985 209.902 85.3299 209.902 86.1089C209.902 86.8878 210.533 87.5193 211.312 87.5193Z" fill="white"/>
<path d="M211.951 70.2749C211.951 71.5537 210.917 72.588 209.639 72.588C208.36 72.588 207.326 71.5537 207.326 70.2749C207.326 68.9962 208.36 67.9619 209.639 67.9619C210.917 67.9619 211.951 68.9962 211.951 70.2749Z" fill="white"/>
<path d="M222.29 102.865C222.29 103.73 221.594 104.425 220.73 104.425C219.865 104.425 219.169 103.73 219.169 102.865C219.169 102 219.865 101.304 220.73 101.304C221.594 101.304 222.29 102 222.29 102.865Z" fill="white"/>
<path d="M203.548 69.4288C203.548 70.2938 202.852 70.9896 201.988 70.9896C201.123 70.9896 200.427 70.2938 200.427 69.4288C200.427 68.5637 201.123 67.8679 201.988 67.8679C202.833 67.8679 203.548 68.5637 203.548 69.4288Z" fill="white"/>
<path d="M216.086 80.6177C216.086 81.4827 215.391 82.1785 214.526 82.1785C213.661 82.1785 212.966 81.4827 212.966 80.6177C212.966 79.7526 213.661 79.0569 214.526 79.0569C215.372 79.0569 216.086 79.7526 216.086 80.6177Z" fill="white"/>
<path d="M218.53 75.1455C218.53 75.578 218.173 75.9354 217.741 75.9354C217.308 75.9354 216.951 75.578 216.951 75.1455C216.951 74.713 217.308 74.3557 217.741 74.3557C218.192 74.3557 218.53 74.713 218.53 75.1455Z" fill="white"/>
<path d="M221.895 82.1788C222.331 82.1788 222.685 81.8251 222.685 81.3889C222.685 80.9527 222.331 80.5991 221.895 80.5991C221.459 80.5991 221.106 80.9527 221.106 81.3889C221.106 81.8251 221.459 82.1788 221.895 82.1788Z" fill="white"/>
<path d="M208.718 65.3479C209.154 65.3479 209.507 64.9943 209.507 64.5581C209.507 64.1219 209.154 63.7683 208.718 63.7683C208.281 63.7683 207.928 64.1219 207.928 64.5581C207.928 64.9943 208.281 65.3479 208.718 65.3479Z" fill="white"/>
<path d="M213.981 60.7784C214.417 60.7784 214.77 60.4247 214.77 59.9885C214.77 59.5523 214.417 59.1987 213.981 59.1987C213.545 59.1987 213.191 59.5523 213.191 59.9885C213.191 60.4247 213.545 60.7784 213.981 60.7784Z" fill="white"/>
<path d="M217.609 86.7672C218.045 86.7672 218.399 86.4135 218.399 85.9773C218.399 85.5411 218.045 85.1875 217.609 85.1875C217.173 85.1875 216.82 85.5411 216.82 85.9773C216.82 86.4135 217.173 86.7672 217.609 86.7672Z" fill="white"/>
<path d="M213.492 101.003C213.492 101.435 213.135 101.793 212.703 101.793C212.27 101.793 211.913 101.435 211.913 101.003C211.913 100.57 212.27 100.213 212.703 100.213C213.154 100.213 213.492 100.57 213.492 101.003Z" fill="white"/>
</svg>
