<svg width="274" height="158" viewBox="0 0 274 158" fill="none" xmlns="http://www.w3.org/2000/svg">
<path d="M250.948 13.7886C250.948 13.7886 247.316 14.068 246.708 14.479C246.429 14.6598 246.396 15.5804 246.462 16.2379C246.018 16.5996 246.018 16.8132 246.626 16.9448C246.15 17.3393 246.626 17.9968 246.955 17.8653C247.974 19.164 249.814 18.6708 250.948 17.7996C252.098 16.9448 253.15 15.3338 253.15 15.3338L250.948 13.7886Z" fill="#FFC9B6"/>
<path d="M222.339 121.46L222.585 120.753C225.346 121.904 229.799 123.301 234.072 122.233C240.398 120.638 242.535 117.778 243.192 115.575C244.046 112.649 242.617 109.181 239.363 106.304C231.245 99.1205 234.976 92.5122 239.297 84.8683C247.941 69.597 262.385 35.438 258.277 21.8106C256.831 16.9941 254.728 14.0187 252.049 12.9995C249.288 11.9475 246.873 13.3941 246.856 13.4105L246.528 12.8845C246.643 12.8187 249.223 11.257 252.263 12.4242C255.122 13.5256 257.34 16.616 258.852 21.6297C263.01 35.438 248.5 69.8272 239.807 85.1642C235.436 92.8738 231.985 98.9725 239.741 105.827C243.175 108.868 244.687 112.584 243.751 115.74C243.044 118.123 240.743 121.164 233.99 122.874C229.438 124.058 224.311 122.545 222.339 121.46Z" fill="#515151"/>
<path d="M246.741 12.7529C245.41 11.783 243.422 12.5721 242.6 13.8707C241.779 15.1693 240.218 18.3584 240.218 18.3584L220.712 35.7667L222.027 37.6243L241.138 20.331C241.746 21.1036 243.093 22.6488 244.457 22.7968C245.903 22.9611 248.828 20.1831 249.469 18.8515C250.274 17.1748 248.072 13.7063 246.741 12.7529ZM248.237 18.5721C247.941 19.2625 247.678 19.394 246.626 20.3968C245.805 21.1858 244.999 21.8762 244.244 21.3995C243.455 20.9064 242.682 19.6735 242.682 19.6735L247.382 15.5803C247.382 15.5803 248.762 17.3557 248.237 18.5721Z" fill="#333333"/>
<path d="M242.321 19.279L247.875 14.2817L242.321 19.279Z" fill="#333333"/>
<path d="M244.227 85.9204C244.868 84.7533 246.938 84.8026 249.551 85.6245C252.164 86.4464 253.134 86.8245 253.166 87.5971C253.199 88.3862 253.544 90.441 250.274 90.2108C247.021 89.9807 244.605 88.1889 244.391 87.4492C244.194 86.7259 244.227 85.9204 244.227 85.9204Z" fill="#191919"/>
<path d="M268.482 69.3506C269.303 66.1615 269.303 62.0684 267.052 59.7012C270.651 56.0684 267.989 49.1806 265.031 45.6628C265.064 45.6464 265.097 45.6299 265.129 45.6135C265.721 45.2354 265.162 44.2985 264.587 44.6766C262.78 45.8437 259.263 47.2245 258.113 49.0984C256.995 50.9067 257.357 54.145 257.225 56.1999C256.864 62.0848 258.03 68.6602 262.385 72.8191C262.714 74.8575 264.39 78.3095 265.852 80.1506C266.017 80.3643 271.587 80.6931 271.587 77.4054C271.587 72.1451 269.977 70.3698 268.482 69.3506Z" fill="#67893B"/>
<path d="M263.174 53.3394C262.812 52.3202 262.089 50.4462 260.873 50.1997C259.937 50.0024 258.737 50.9394 258.03 51.2024C257.11 51.5476 251.079 51.6298 251.112 51.7284C248.582 55.9202 245.969 66.523 245.542 73.9203C244.884 77.0436 244.802 83.882 244.687 87.0875C244.671 87.3669 248.253 92.956 252.23 88.7971C253.692 86.6765 255.22 79.7724 253.709 77.7012C256.206 75.9587 257.587 71.6354 258.704 69.186C259.378 67.7066 259.92 66.1614 260.183 64.5504C260.282 63.9258 260.331 63.3504 260.397 62.7915C263.272 60.6216 264.373 56.8079 263.174 53.3394Z" fill="#7BA050"/>
<path d="M270.026 20.5941C270.026 20.5941 269.155 17.2078 268.005 15.005C267.397 13.8379 266.247 12.4077 265.902 11.668C265.474 10.731 265.31 10.5009 264.324 10.5337C263.075 10.5831 260.676 10.4844 258.556 11.142C256.436 11.7995 250.241 13.9037 250.241 13.9037L251.49 16.5502C251.49 16.5502 253.051 15.9749 255.434 15.942C257.817 15.9091 258.638 15.8927 259.526 15.7941C260.397 15.6954 261.777 15.7941 261.777 15.7941C261.777 15.7941 262.533 19.2297 263.815 21.5639C264.686 23.1749 270.026 20.5941 270.026 20.5941Z" fill="#FFC9B6"/>
<path d="M270.01 17.8817C265.967 17.7502 263.601 20.3803 261.268 23.5858C261.333 23.7502 261.399 23.931 261.465 24.0954C261.909 25.1803 264.176 30.9174 264.768 31.4105C269.09 34.9448 271.029 30.5064 271.785 27.9749C272.738 24.7365 271.653 21.1694 270.01 17.8817Z" fill="#FFB30B"/>
<path d="M250.389 53.0928C250.389 53.0928 252.115 56.3312 258.77 54.8846C263.93 53.7668 265.852 51.1695 265.852 51.1695L265.327 49.2297L251.03 51.416L250.389 53.0928Z" fill="#67893B"/>
<path d="M268.728 24.8354C264.883 19.5751 258.392 25.0326 254.744 27.334C249.568 30.6052 250.899 37.5094 250.817 39.7943C250.718 42.3259 249.502 43.7395 249.995 44.956C250.636 46.5341 251.556 46.9615 250.143 48.2437C249.929 48.4409 249.568 48.7861 249.946 49.2957C250.34 49.8053 250.669 50.0519 251.112 50.4629C250.406 50.9067 250.34 51.8108 251.162 52.4519C252.772 53.7012 256.749 54.1122 258.721 53.4547C262.155 52.2875 265.672 50.693 266.871 48.3916C267.397 47.3724 267.052 46.83 267.003 45.0053C266.97 43.7888 266.953 42.6053 267.578 41.5204C269.977 37.4272 272.113 29.471 268.728 24.8354Z" fill="#FFCF48"/>
<path d="M238.41 26.5282C238.41 26.5282 239.117 24.7693 239.478 23.668C239.84 22.5502 238.821 21.9748 237.26 21.0049C236.537 20.5447 235.468 20.331 235.534 21.2679C234.992 21.1036 234.483 21.5803 234.795 22.1228C234.367 21.9255 233.727 22.3036 233.891 23.0104C233.595 23.2899 233.332 23.5529 233.727 24.1776C234.565 25.5255 235.764 25.92 236.619 27.0707C237.44 28.1391 238.41 26.5282 238.41 26.5282Z" fill="#FFC9B6"/>
<path d="M237.638 24.2436L236.027 26.3806C236.027 26.3806 236.569 27.0546 236.832 27.9751C237.161 29.1094 237.588 31.1641 238.295 34.3696C238.788 36.5888 239.034 36.408 239.363 37.1642C239.692 37.9368 240.645 37.8546 241.516 38.1833C242.288 38.4792 244.391 39.597 246.643 39.5642C248.22 39.5477 251.753 39.0053 251.753 39.0053L250.258 31.6902C250.258 31.6902 247.316 32.0354 245.854 32.3477C244.572 32.6107 243.356 32.3477 243.356 32.3477C243.356 32.3477 242.896 30.4573 241.351 28.3368C239.955 26.4299 239.002 24.2107 239.002 24.2107H237.638V24.2436Z" fill="#FFC9B6"/>
<path d="M255.04 27.3009C254.399 27.268 251.95 27.8269 250.389 30.7037C249.518 30.6872 248.434 31.0489 247.645 31.3119C246.856 34.1228 246.692 35.7502 247.53 38.7255C247.777 39.5803 247.908 39.6297 248.352 40.3201C252.608 40.1886 256.765 39.7447 258.293 34.8297C259.099 32.2817 258.129 27.4982 255.04 27.3009Z" fill="#FFB30B"/>
<path d="M264.686 22.879C263.913 21.5639 263.601 21.0872 263.453 19.6242C263.42 19.3776 257.932 21.1036 258.178 21.2516C257.915 23.1091 256.798 24.9502 256.141 26.4625C257.505 26.4625 258.392 26.7091 259.92 26.2981C261.136 25.9694 263.108 25.4598 264.094 24.5721C264.505 24.194 264.965 23.3557 264.686 22.879Z" fill="#FFB9A4"/>
<path d="M257.077 10.6324C253.955 12.1447 253.068 16.7146 254.202 19.9859C254.399 20.8735 254.826 21.6954 255.582 22.3365C257.225 23.7502 259.427 22.6982 261.054 21.8105C262.96 20.7749 264.998 19.2626 265.277 16.9447C265.737 13.279 260.578 8.93924 257.077 10.6324Z" fill="#FFC9B6"/>
<path d="M260.676 9.33384C260.479 6.95026 256.699 7.47628 255.911 9.3667C255.434 9.05437 254.777 8.92284 254.514 9.5475C254.465 9.66257 254.465 9.76122 254.465 9.87629C252.969 9.61328 251.359 11.0927 251.835 12.753C252.509 15.0544 256.124 14.6928 258.047 13.7887C257.537 14.5777 257.373 15.5805 257.915 16.4188C258.474 17.2901 259.509 17.5859 260.364 17.2078C260.693 18.6051 261.744 20.3476 263.618 20.0189C265.951 19.6079 268.12 15.7284 265.31 12.5229C265.31 10.5009 262.96 8.28178 260.676 9.33384Z" fill="#191919"/>
<path d="M260.545 18.7859C260.545 18.7859 261.974 17.2571 262.369 18.9174C262.632 20.0517 261.514 20.6434 261.514 20.6434L260.545 18.7859Z" fill="#FFC9B6"/>
<path d="M251.737 50.6766C251.737 50.6766 253.035 51.4163 255.516 51.4163C257.998 51.4163 259.608 50.4136 259.608 50.4136C259.608 50.4136 256.486 50.693 255.401 50.7423C254.333 50.8081 251.737 50.6766 251.737 50.6766Z" fill="#FFB30B"/>
<path d="M253.166 87.6138C252 88.6658 249.732 88.5343 248.45 88.3041C245.607 87.7946 244.736 87.0055 244.227 85.937C244.178 87.285 244.063 88.748 244.178 90.7042C244.326 93.1042 244.769 95.4877 244.736 95.8001C243.11 95.2412 241.581 94.3535 240.185 95.2083C238.722 96.096 238.623 97.4275 238.969 98.759C239.462 99.3837 240.365 100.337 241.664 100.945C243.471 101.817 245.755 102.277 246.56 102.408C247.727 103.099 249.354 103.658 250.554 103.017C251.786 102.359 252.41 101.817 252.049 100.452C251.441 98.1672 251.737 98.0357 252.542 94.2055C252.969 92.0685 253.347 89.948 253.166 87.6138Z" fill="#333333"/>
<path d="M273.083 88.7313C273.888 85.0491 272.984 78.7039 272.146 76.7148C269.517 76.7148 266.099 77.5696 264.374 78.9011C264.982 81.071 265.195 81.6793 265.573 83.2409C265.787 84.1286 266.05 84.9998 266.345 85.8711C266.789 87.1861 266.674 87.2025 265.31 87.1697C263.256 87.1204 261.35 87.5149 261.35 89.7998C261.35 90.3752 262.664 91.9861 263.207 92.3149C266.115 94.0409 267.923 93.2519 269.106 92.956C270.109 93.8273 272.458 93.0547 273.855 91.7725C274.315 91.3615 273.576 89.2574 273.083 88.7313Z" fill="#333333"/>
<path d="M249.715 15.4655L248.483 14.397C248.483 14.397 247.382 14.4792 246.84 15.1696C246.61 15.4655 246.56 15.6627 246.708 16.2874C246.528 16.3696 246.643 17.586 246.922 17.8819C246.791 18.3422 247.086 18.6216 247.3 18.7038C247.875 18.9011 248.417 18.4737 248.779 17.8984C249.058 17.4545 248.697 16.6983 248.384 16.2381C248.532 16.2216 248.68 16.1888 248.861 16.1559C249.502 15.9586 249.715 15.4655 249.715 15.4655Z" fill="#FFC9B6"/>
<path d="M249.157 76.5341C249.157 76.5341 249.831 77.4876 251.178 77.7999C252.542 78.1122 253.216 77.7999 253.216 77.7999C253.216 77.7999 250.833 76.3039 249.157 76.5341Z" fill="#67893B"/>
<path d="M250.422 73.9204C250.422 73.9204 250.997 75.1533 251.737 75.6629C252.476 76.1725 253.676 76.7314 253.676 76.7314C253.676 76.7314 253.446 76.0574 252.706 75.2026C251.983 74.3478 250.422 73.9204 250.422 73.9204Z" fill="#67893B"/>
<path d="M222.059 36.2106C222.421 36.7202 222.405 37.3613 222.01 37.6243C221.632 37.8873 221.024 37.69 220.663 37.1804C220.301 36.6708 220.318 36.0298 220.712 35.7668C221.106 35.4873 221.698 35.6846 222.059 36.2106Z" fill="#444444"/>
<path d="M221.682 37.2136C221.797 37.0656 221.78 36.8026 221.616 36.5561C221.419 36.2931 221.139 36.1615 220.958 36.293C220.942 36.3095 206.12 49.2465 206.12 49.2465L206.843 50.167C206.826 50.1835 221.665 37.23 221.682 37.2136Z" fill="#515151"/>
<path d="M205.84 48.26C205.84 48.26 207.599 47.2408 208.223 47.4052C208.503 47.4873 208.897 48.0298 208.897 48.3093C208.897 49.3942 207.615 50.3641 207.615 50.3641L205.84 48.26Z" fill="#444444"/>
<path d="M207.5 48.8023C207.944 49.427 207.911 50.216 207.451 50.5448C206.974 50.8736 206.235 50.627 205.791 50.0024C205.347 49.3777 205.38 48.5887 205.84 48.2599C206.317 47.9311 207.056 48.1777 207.5 48.8023Z" fill="#515151"/>
<path d="M256.124 26.4462C256.124 26.4462 256.683 25.279 259.608 24.7201C262.648 24.1448 264.686 22.4188 265.31 21.9092C266.181 22.7475 265.655 23.9804 263.65 25.2626C261.646 26.5612 257.718 26.742 256.124 26.4462Z" fill="#FFB30B"/>
<path d="M261.909 34.4682C261.909 34.4682 260.824 40.0572 259.854 42.4737C258.573 45.6792 255.467 47.9806 252.772 48.8847C250.094 49.7888 249.995 49.5422 249.288 49.2299C248.91 50.1504 248.779 50.8902 248.894 51.4326C249.042 52.0737 250.061 52.4518 250.981 52.9121C252.854 53.8491 254.382 54.145 256.124 53.997C258.556 53.7833 260.068 53.9806 263.65 51.6463C267.233 49.3285 267.627 48.7696 267.676 48.145C267.759 46.9943 267.052 46.6162 267.249 46.0902C267.989 44.2655 269.385 40.6162 269.829 37.9367C270.355 34.7805 269.961 32.6599 269.04 30.7202C266.822 32.4627 261.909 34.4682 261.909 34.4682Z" fill="#7BA050"/>
<path d="M255.04 27.301C255.04 27.301 257.932 25.838 260.134 29.2079C262.352 32.5778 261.563 36.0792 261.563 36.0792L263.387 35.1257C263.387 35.1257 263.355 29.6517 260.545 27.4161C258.293 25.6243 257.275 25.953 256.305 26.1503C254.81 26.4626 255.04 27.301 255.04 27.301Z" fill="#7BA050"/>
<path d="M264.373 22.6161C264.373 22.6161 265.129 23.2078 266.362 25.2791C267.66 27.4818 268.317 31.9037 268.317 31.9037L269.385 31.427C269.385 31.427 269.122 28.3037 268.005 25.6736C266.937 23.175 263.831 21.2024 263.831 21.2024L264.373 22.6161Z" fill="#7BA050"/>
<path d="M189.375 46.8465C187.042 47.4711 182.44 51.3671 181.044 52.5835C182.408 54.737 184.692 58.2055 185.382 58.1891C186.368 58.1891 189.934 54.2438 191.314 50.8082C191.971 49.1643 191.84 47.8492 191.248 46.9944C190.706 46.7643 190.082 46.6657 189.375 46.8465Z" fill="#5AB5FF"/>
<path d="M186.401 45.8273C183.854 47.126 178.891 50.611 178.891 50.611C178.891 50.611 180.436 51.6137 181.06 52.5836C182.457 51.3672 187.058 47.4712 189.391 46.8465C190.098 46.6657 190.722 46.7479 191.265 46.9945C190.509 45.9259 188.06 44.9725 186.401 45.8273Z" fill="#94C5FF"/>
<path d="M43.8641 81.9755L48.4981 78.9179L58.1605 66.3261C58.1605 66.3261 49.8456 64.1069 45.5238 67.8384C41.202 71.57 43.8641 81.9755 43.8641 81.9755Z" fill="#2A6ED1"/>
<path d="M130.875 131.817L145.812 121.625L145.171 116.167C145.171 116.167 136.856 113.948 132.535 117.68C128.213 121.411 130.875 131.817 130.875 131.817Z" fill="#2A6ED1"/>
<path d="M162.08 143.307C162.08 134.513 156.74 124.304 150.15 120.491C148.491 119.521 146.502 119.028 144.941 119.044C143.709 119.044 140.554 119.159 137.3 121.181C133.537 123.499 133.044 128.776 133.044 128.776L146.453 156.326C146.453 156.326 150.775 158.447 155.212 156.014C157.972 154.502 159.632 152.003 160.404 150.622C160.733 150.014 161.242 148.798 161.39 148.337C161.817 146.907 162.08 145.214 162.08 143.307Z" fill="#191919"/>
<path d="M132.633 132.639C132.633 141.433 137.974 151.642 144.563 155.455C151.153 159.269 156.493 155.225 156.493 146.431C156.493 137.636 151.153 127.428 144.563 123.614C137.974 119.817 132.633 123.844 132.633 132.639Z" fill="#333333"/>
<path d="M150.034 152.923C154.201 151.149 155.039 143.738 151.905 136.37C148.771 129.001 142.853 124.466 138.685 126.239C134.518 128.013 133.68 135.424 136.814 142.792C139.948 150.161 145.867 154.696 150.034 152.923Z" fill="#B3DDFF"/>
<path d="M144.037 128.381C148.721 131.077 152.517 138.343 152.517 144.589C152.517 150.836 148.721 153.696 144.037 151C139.354 148.304 135.558 141.039 135.558 134.792C135.575 128.562 139.354 125.685 144.037 128.381ZM145.878 130.485C145.664 130.189 144.76 129.449 144.087 129.088C143.364 128.693 142.591 128.102 140.948 128.217C140.586 128.249 140.241 128.447 140.061 128.644C139.798 128.923 139.847 129.285 140.143 129.86C140.422 130.403 140.833 131.192 141.211 131.767C141.408 132.047 141.523 131.932 141.918 131.965C142.312 131.997 142.739 132.03 143.051 132.162C143.824 132.491 144.399 132.852 144.941 133.296C145.221 133.51 145.352 133.444 145.451 133.296C145.746 132.885 145.96 132.31 146.141 131.751C146.256 131.373 146.223 130.978 145.878 130.485ZM139.535 137.093C139.535 140.414 141.556 144.277 144.054 145.724C146.552 147.17 148.573 145.641 148.573 142.304C148.573 138.984 146.552 135.121 144.054 133.674C141.556 132.228 139.535 133.756 139.535 137.093ZM151.284 139.707C150.66 137.06 150.035 136.091 149.509 135.104C149.033 134.2 148.277 133.049 148.03 132.852C147.62 132.507 147.406 132.639 147.275 132.951C147.045 133.46 146.847 134.052 146.765 134.677C146.732 134.924 146.749 135.154 146.979 135.499C147.439 136.173 147.866 136.929 148.359 138.014C148.556 138.458 148.753 139.115 148.951 139.74C149.131 140.348 149.115 140.595 149.345 140.776C149.805 141.137 150.38 141.466 150.791 141.68C151.218 141.91 151.416 141.844 151.448 141.302C151.465 140.924 151.416 140.266 151.284 139.707ZM149.394 150.441C149.624 150.441 150.249 149.882 150.594 149.324C150.972 148.715 151.498 148.222 151.711 145.937C151.761 145.444 151.695 144.77 151.613 144.376C151.481 143.767 151.251 143.521 150.84 143.389C150.446 143.274 149.887 143.093 149.444 143.093C149.23 143.093 149.296 143.356 149.197 143.85C149.099 144.343 149 144.885 148.869 145.181C148.523 145.904 148.195 146.332 147.817 146.661C147.636 146.825 147.653 147.071 147.735 147.351C147.948 148.107 148.261 148.929 148.573 149.652C148.77 150.113 149.016 150.441 149.394 150.441ZM141.589 147.992C141.803 148.337 142.23 148.88 142.608 149.225C144.382 150.803 145.122 150.836 145.828 151.05C146.486 151.247 147.34 151.263 147.521 151.132C147.8 150.902 147.768 150.491 147.603 150.03C147.324 149.274 146.995 148.469 146.601 147.778C146.453 147.515 146.305 147.318 146.042 147.318C145.533 147.302 144.99 147.203 144.218 146.874C143.906 146.743 143.446 146.397 143.035 146.085C142.608 145.773 142.46 145.526 142.312 145.674C142 145.954 141.688 146.43 141.49 146.776C141.26 147.121 141.26 147.466 141.589 147.992ZM136.856 140.332C137.201 141.384 137.448 142.518 138.91 144.819C139.223 145.313 139.666 145.806 139.946 146.052C140.356 146.414 140.554 146.315 140.685 145.855C140.817 145.428 140.997 144.803 141.047 144.211C141.079 143.915 140.899 143.767 140.586 143.208C140.274 142.65 139.929 142.041 139.765 141.581C139.338 140.463 139.108 139.641 138.943 138.852C138.861 138.458 138.697 138.26 138.5 138.129C137.974 137.751 137.415 137.471 136.889 137.274C136.577 137.159 136.33 137.208 136.281 137.734C136.248 138.014 136.528 139.362 136.856 140.332ZM136.873 136.041C137.399 136.271 137.957 136.452 138.434 136.485C138.615 136.502 138.762 136.436 138.762 136.074C138.795 135.351 138.894 134.66 139.14 133.839C139.239 133.51 139.502 133.132 139.716 132.786C139.946 132.441 140.11 132.425 140.028 132.096C139.847 131.422 139.551 130.584 139.321 130.008C139.091 129.4 138.861 129.137 138.5 129.17C138.253 129.186 137.875 129.351 137.629 129.614C136.495 130.847 136.429 131.849 136.248 132.704C136.084 133.477 136.035 134.693 136.117 135.039C136.281 135.647 136.561 135.91 136.873 136.041Z" fill="white"/>
<path d="M143.561 135.384C145.598 136.551 147.242 139.707 147.242 142.403C147.242 145.115 145.598 146.348 143.561 145.181C141.523 144.014 139.88 140.858 139.88 138.162C139.88 135.466 141.54 134.217 143.561 135.384Z" fill="#444444"/>
<path d="M150.775 141.663C150.38 141.449 149.789 141.137 149.329 140.759C149.099 140.578 149.115 140.332 148.934 139.723C148.754 139.115 148.556 138.441 148.343 137.997C147.85 136.912 147.422 136.173 146.962 135.482C146.732 135.137 146.716 134.907 146.749 134.66C146.847 134.019 147.044 133.444 147.258 132.934C147.39 132.622 147.603 132.491 148.014 132.836C148.261 133.033 149.016 134.184 149.493 135.088C150.002 136.074 150.643 137.044 151.268 139.691C151.399 140.266 151.448 140.923 151.416 141.269C151.399 141.828 151.202 141.877 150.775 141.663Z" fill="#333333"/>
<path d="M145.467 133.263C145.352 133.411 145.22 133.493 144.958 133.263C144.415 132.836 143.84 132.458 143.068 132.129C142.756 131.998 142.328 131.965 141.934 131.932C141.54 131.899 141.425 132.03 141.227 131.735C140.849 131.159 140.439 130.37 140.159 129.828C139.863 129.252 139.814 128.907 140.077 128.611C140.258 128.43 140.619 128.217 140.964 128.184C142.608 128.069 143.38 128.644 144.103 129.055C144.777 129.417 145.697 130.156 145.894 130.452C146.239 130.962 146.256 131.356 146.157 131.685C145.976 132.293 145.763 132.852 145.467 133.263Z" fill="#333333"/>
<path d="M136.265 132.704C136.445 131.866 136.511 130.863 137.645 129.614C137.892 129.351 138.27 129.187 138.516 129.17C138.894 129.137 139.108 129.4 139.338 130.009C139.551 130.584 139.864 131.406 140.044 132.096C140.126 132.441 139.962 132.441 139.732 132.787C139.502 133.132 139.255 133.494 139.157 133.839C138.91 134.677 138.812 135.367 138.779 136.074C138.763 136.436 138.631 136.502 138.45 136.485C137.957 136.452 137.399 136.272 136.889 136.041C136.577 135.91 136.298 135.631 136.15 135.039C136.051 134.677 136.1 133.477 136.265 132.704Z" fill="#333333"/>
<path d="M136.889 137.241C137.415 137.439 137.974 137.718 138.5 138.096C138.697 138.244 138.861 138.425 138.943 138.819C139.108 139.608 139.338 140.447 139.765 141.548C139.929 141.992 140.274 142.6 140.586 143.176C140.899 143.734 141.079 143.899 141.047 144.178C140.981 144.754 140.8 145.395 140.685 145.822C140.554 146.282 140.356 146.381 139.946 146.019C139.683 145.789 139.239 145.296 138.91 144.787C137.448 142.485 137.201 141.351 136.856 140.299C136.544 139.329 136.265 137.981 136.281 137.669C136.33 137.176 136.56 137.126 136.889 137.241Z" fill="#333333"/>
<path d="M142.312 145.674C142.476 145.543 142.624 145.773 143.035 146.085C143.462 146.398 143.906 146.743 144.218 146.874C144.99 147.203 145.533 147.302 146.042 147.318C146.305 147.318 146.453 147.515 146.601 147.778C146.979 148.485 147.324 149.274 147.603 150.03C147.768 150.491 147.817 150.885 147.521 151.132C147.357 151.28 146.486 151.247 145.828 151.05C145.122 150.836 144.382 150.787 142.608 149.225C142.23 148.88 141.803 148.337 141.589 147.992C141.26 147.45 141.26 147.121 141.474 146.776C141.688 146.43 142 145.954 142.312 145.674Z" fill="#333333"/>
<path d="M147.817 146.661C148.195 146.332 148.523 145.904 148.869 145.181C149.016 144.885 149.115 144.343 149.197 143.85C149.296 143.356 149.23 143.077 149.444 143.093C149.871 143.11 150.446 143.274 150.84 143.389C151.251 143.521 151.481 143.767 151.613 144.376C151.695 144.77 151.761 145.444 151.711 145.937C151.498 148.222 150.972 148.715 150.594 149.324C150.232 149.883 149.608 150.441 149.394 150.441C149.016 150.441 148.77 150.113 148.573 149.669C148.244 148.929 147.932 148.124 147.735 147.367C147.653 147.072 147.636 146.825 147.817 146.661Z" fill="#333333"/>
<path d="M74.0508 92.0851C74.0508 83.2905 68.7102 73.0822 62.1207 69.2685C60.461 68.2987 58.4727 67.8055 56.9116 67.8219C55.6791 67.8219 52.5241 67.937 49.2704 69.9589C45.5073 72.2767 45.0143 77.5535 45.0143 77.5535L58.4233 105.104C58.4233 105.104 62.7451 107.225 67.1819 104.792C69.9426 103.28 71.6023 100.781 72.3747 99.4001C72.7033 98.7919 73.2127 97.5755 73.3606 97.1152C73.7878 95.6851 74.0508 94.0083 74.0508 92.0851Z" fill="#191919"/>
<path d="M44.6035 81.4166C44.6035 90.2111 49.9441 100.419 56.5336 104.233C63.1231 108.047 68.4638 104.003 68.4638 95.2084C68.4638 86.4139 63.1231 76.2056 56.5336 72.3919C49.9441 68.5946 44.6035 72.6385 44.6035 81.4166Z" fill="#333333"/>
<path d="M46.9041 82.8632C46.9041 89.8166 51.1273 97.8879 56.3364 100.896C61.5456 103.904 65.7688 100.715 65.7688 93.7619C65.7688 86.8084 61.5456 78.7371 56.3364 75.7289C51.1273 72.7207 46.9041 75.9097 46.9041 82.8632Z" fill="#B3DDFF"/>
<path d="M56.0078 77.1753C60.6911 79.8712 64.487 87.1369 64.487 93.3835C64.487 99.6301 60.6911 102.49 56.0078 99.7945C51.3245 97.0986 47.5285 89.8328 47.5285 83.5862C47.5285 77.3396 51.3245 74.4629 56.0078 77.1753ZM57.8483 79.2629C57.6346 78.967 56.7308 78.2273 56.0571 77.8657C55.334 77.4711 54.5617 76.8793 52.9185 76.9944C52.557 77.0273 52.2119 77.2246 52.0311 77.4218C51.7682 77.7013 51.8175 78.0629 52.1132 78.6219C52.3926 79.1643 52.8034 79.9534 53.1814 80.5287C53.3786 80.8082 53.4936 80.6931 53.888 80.726C54.2824 80.7588 54.7096 80.7917 55.0219 80.9232C55.7942 81.252 56.3693 81.6136 56.9116 82.0575C57.191 82.2712 57.3224 82.2054 57.421 82.0575C57.7168 81.6465 57.9304 81.0712 58.1111 80.5123C58.2262 80.1671 58.1934 79.7725 57.8483 79.2629ZM51.5053 85.8712C51.5053 89.1918 53.5265 93.0548 56.0242 94.5014C58.522 95.948 60.5432 94.4191 60.5432 91.0822C60.5432 87.7616 58.522 83.8986 56.0242 82.452C53.5265 81.0218 51.5053 82.5506 51.5053 85.8712ZM63.2546 88.4849C62.6301 85.8383 62.0057 84.8684 61.4799 83.8821C61.0033 82.978 60.2474 81.8273 60.0009 81.6301C59.5901 81.2849 59.3765 81.4164 59.245 81.7287C59.0149 82.2383 58.8178 82.8301 58.7356 83.4548C58.7027 83.7013 58.7192 83.9315 58.9492 84.2767C59.4093 84.9506 59.8366 85.7068 60.3296 86.7917C60.5268 87.2356 60.724 87.8931 60.9212 88.5178C61.1019 89.126 61.0855 89.3726 61.3155 89.5534C61.7756 89.915 62.3508 90.2438 62.7616 90.4575C63.1889 90.6876 63.386 90.6219 63.4189 90.0794C63.4353 89.7178 63.386 89.0602 63.2546 88.4849ZM61.3648 99.2192C61.5949 99.2192 62.2193 98.6603 62.5644 98.1014C62.9424 97.4932 63.4682 97 63.6818 94.715C63.7311 94.2219 63.6654 93.5479 63.5832 93.1534C63.4518 92.5452 63.2217 92.2986 62.8109 92.1671C62.4165 92.052 61.8578 91.8712 61.4141 91.8712C61.2005 91.8712 61.2662 92.1342 61.1676 92.6274C61.069 93.1205 60.9704 93.663 60.839 93.9589C60.4939 94.6822 60.1653 95.1096 59.7873 95.4383C59.6065 95.6027 59.623 95.8493 59.7051 96.1288C59.9187 96.8849 60.231 97.7068 60.5596 98.4301C60.7404 98.8904 60.9869 99.2192 61.3648 99.2192ZM53.5593 96.7698C53.773 97.115 54.2002 97.6575 54.5781 98.0027C56.3529 99.5808 57.0923 99.6301 57.7989 99.8274C58.4562 100.025 59.3108 100.041 59.4915 99.9096C59.7709 99.6794 59.738 99.2685 59.5737 98.8082C59.2943 98.0521 58.9656 97.2466 58.5713 96.5562C58.4234 96.2932 58.2755 96.0959 58.0126 96.0959C57.5031 96.0795 56.9609 95.9808 56.1886 95.652C55.8763 95.5205 55.4162 95.1753 55.0054 94.863C54.5782 94.5507 54.4303 94.3041 54.2824 94.4521C53.9701 94.7315 53.6579 95.2082 53.4607 95.5534C53.2307 95.915 53.2307 96.2438 53.5593 96.7698ZM48.8103 89.1096C49.1554 90.1616 49.4019 91.2958 50.8644 93.5972C51.1766 94.0904 51.6203 94.5835 51.8996 94.8301C52.3104 95.1918 52.5076 95.0931 52.6391 94.6329C52.7706 94.2055 52.9513 93.5808 53.0006 92.989C53.0335 92.6931 52.8527 92.5452 52.5405 91.9863C52.2283 91.4274 51.8832 90.8191 51.7189 90.3589C51.2916 89.241 51.0616 88.4191 50.8973 87.6301C50.8151 87.2356 50.6508 87.0383 50.4536 86.9068C49.9277 86.5287 49.369 86.2493 48.8432 86.052C48.531 85.9369 48.2845 85.9862 48.2352 86.5123C48.2187 86.8082 48.4981 88.1397 48.8103 89.1096ZM48.8432 84.8356C49.369 85.0657 49.9277 85.2465 50.4042 85.2794C50.585 85.2958 50.7329 85.2301 50.7329 84.8684C50.7658 84.1451 50.8644 83.4548 51.1109 82.6328C51.2095 82.3041 51.4724 81.926 51.686 81.5807C51.9161 81.2355 52.0804 81.2191 51.9982 80.8904C51.8175 80.2164 51.5217 79.378 51.2916 78.8027C51.0616 78.1944 50.8315 77.9315 50.47 77.9643C50.2235 77.9808 49.8455 78.1451 49.5991 78.4081C48.4652 79.641 48.3995 80.6438 48.2187 81.4986C48.0544 82.2712 48.0051 83.4876 48.0873 83.8328C48.2516 84.4246 48.531 84.7041 48.8432 84.8356Z" fill="white"/>
<path d="M57.7335 94.3068C59.3537 93.6172 59.6791 90.7353 58.4604 87.8699C57.2417 85.0044 54.9404 83.2404 53.3202 83.93C51.7001 84.6195 51.3746 87.5014 52.5933 90.3669C53.812 93.2324 56.1134 94.9963 57.7335 94.3068Z" fill="#444444"/>
<path d="M62.7452 90.441C62.3508 90.2273 61.7592 89.9149 61.2991 89.5368C61.069 89.356 61.0855 89.1094 60.9047 88.5012C60.724 87.893 60.5268 87.219 60.3132 86.7752C59.8202 85.6903 59.3929 84.9505 58.9328 84.2601C58.7028 83.9149 58.6864 83.6848 58.7192 83.4382C58.8178 82.7971 59.015 82.2218 59.2286 81.7122C59.3601 81.3999 59.5737 81.2684 59.9845 81.6136C60.231 81.8108 60.9869 82.9615 61.4634 83.8656C61.9728 84.8519 62.6137 85.8218 63.2382 88.4684C63.3696 89.0437 63.4189 89.7012 63.3861 90.0464C63.3696 90.6053 63.1724 90.6711 62.7452 90.441Z" fill="#333333"/>
<path d="M57.4375 82.0575C57.3224 82.2054 57.1909 82.2876 56.928 82.0575C56.3857 81.6137 55.8106 81.252 55.0383 80.9232C54.7261 80.7917 54.2988 80.7589 53.9044 80.726C53.51 80.6931 53.395 80.8246 53.1978 80.5287C52.8199 79.9534 52.4091 79.1643 52.1297 78.6219C51.8339 78.0465 51.7846 77.7013 52.0475 77.4218C52.2283 77.241 52.5898 77.0273 52.9349 76.9944C54.5782 76.8793 55.3505 77.4547 56.0735 77.8657C56.7473 78.2273 57.6675 78.967 57.8647 79.2629C58.2098 79.7725 58.2426 80.1671 58.1276 80.4958C57.9468 81.0712 57.7333 81.6465 57.4375 82.0575Z" fill="#333333"/>
<path d="M48.2352 81.4823C48.4159 80.6439 48.4817 79.6412 49.6155 78.3919C49.862 78.1288 50.2399 77.9645 50.4864 77.948C50.8644 77.9152 51.078 78.1782 51.3081 78.7864C51.5217 79.3618 51.8339 80.1837 52.0147 80.8741C52.0968 81.2193 51.9325 81.2193 51.7024 81.5645C51.4724 81.9097 51.2259 82.2713 51.1273 82.6165C50.8808 83.4549 50.7822 84.1453 50.7494 84.8521C50.7329 85.2138 50.6015 85.2795 50.4207 85.2631C49.9277 85.2302 49.369 85.0494 48.8596 84.8193C48.5474 84.6878 48.268 84.4083 48.1201 83.8166C48.0215 83.4714 48.0708 82.2549 48.2352 81.4823Z" fill="#333333"/>
<path d="M48.8596 86.0354C49.3854 86.2326 49.9441 86.5121 50.47 86.8902C50.6672 87.0381 50.8315 87.219 50.9137 87.6135C51.078 88.4025 51.3081 89.2409 51.7353 90.3423C51.8997 90.7861 52.2447 91.3943 52.557 91.9697C52.8692 92.5286 53.0499 92.6929 53.0171 92.9724C52.9513 93.5477 52.7706 94.1888 52.6556 94.6162C52.5241 95.0765 52.3269 95.1752 51.9161 94.8135C51.6531 94.5834 51.2094 94.0902 50.8808 93.5806C49.4183 91.2793 49.1718 90.145 48.8267 89.0929C48.5145 88.1231 48.2351 86.7751 48.2515 86.4628C48.2844 85.9696 48.5309 85.9039 48.8596 86.0354Z" fill="#333333"/>
<path d="M54.2824 94.4684C54.4467 94.3369 54.5946 94.567 55.0054 94.8794C55.4327 95.1917 55.8764 95.5369 56.1886 95.6684C56.9609 95.9972 57.5032 96.0958 58.0126 96.1123C58.2755 96.1123 58.4234 96.3095 58.5713 96.5725C58.9492 97.2794 59.2943 98.0684 59.5737 98.8246C59.738 99.2849 59.7873 99.6794 59.4915 99.926C59.3272 100.057 58.4562 100.041 57.7989 99.8438C57.0923 99.6301 56.3529 99.5808 54.5782 98.0191C54.2002 97.6739 53.773 97.1314 53.5594 96.7862C53.2307 96.2438 53.2307 95.915 53.4443 95.5698C53.6579 95.2246 53.9537 94.7314 54.2824 94.4684Z" fill="#333333"/>
<path d="M59.7873 95.4548C60.1653 95.126 60.4939 94.6986 60.839 93.9753C60.9869 93.6794 61.0855 93.137 61.1676 92.6438C61.2662 92.1507 61.2005 91.8712 61.4141 91.8876C61.8414 91.9041 62.4165 92.0685 62.8109 92.1835C63.2217 92.315 63.4518 92.5616 63.5833 93.1698C63.6654 93.5644 63.7312 94.2383 63.6819 94.7315C63.4682 97.0164 62.9424 97.5096 62.5644 98.1178C62.2029 98.6767 61.5785 99.2192 61.3648 99.2356C60.9869 99.2356 60.7404 98.9069 60.5432 98.463C60.2145 97.7233 59.9023 96.9178 59.6887 96.1616C59.623 95.8493 59.6065 95.6027 59.7873 95.4548Z" fill="#333333"/>
<path d="M205.265 71.8C199.35 67.1808 192.086 61.6739 187.584 58.2876C185.365 61.0328 180.961 65.2904 171.463 71.3233C163.395 76.452 153.979 81.4822 145.089 84.9343C144.81 85.0493 162.343 96.1124 174.405 109.888C178.661 114.754 183.509 117.91 194.748 115.197C197.542 114.523 206.136 110.315 213.564 104.956C219.052 100.978 223.16 96.0466 225.576 92.4302C220.515 84.3589 214.024 78.6384 205.265 71.8Z" fill="#5AB5FF"/>
<path d="M230.325 100.501C229.536 98.5946 227.252 94.3699 226.053 92.4466C220.005 99.6795 200.96 112.025 196.178 113.471C185.398 116.759 180.436 112.403 176.13 108.556C162.475 96.3589 144.81 85.0329 145.089 84.9178C153.979 81.4657 163.395 76.4356 171.463 71.3068C180.962 65.2739 185.365 61.0163 187.584 58.2711C186.861 57.7287 186.187 57.2191 185.628 56.7917C180.896 50.9725 175.703 41.1587 169.524 32.66C168.193 30.8354 166.813 29.1751 165.219 27.6792C160.864 29.0765 155.392 27.3505 151.432 25.7231C143.396 22.4025 135.394 20.2326 126.668 19.7395C118.025 19.2463 107.376 20.4134 98.8641 21.86C90.352 23.2902 82.7601 27.6463 73.7221 26.3641C79.1942 22.7806 91.9624 14.66 100.557 10.0737C104.846 7.78872 109.217 5.65173 113.653 3.66268C115.264 2.93939 116.94 2.11746 118.649 1.34486C117.564 0.950337 116.529 0.605152 115.592 0.391452C114.837 0.21063 111.139 1.22981 106.012 3.62982C102.627 5.22435 98.7655 7.75585 94.1808 9.72847C93.7371 9.92573 90.2205 11.2572 88.8895 11.997C76.7293 18.934 37.5703 41.5861 37.5703 41.5861C37.5703 41.5861 58.3248 53.7177 80.9196 69.104C103.514 84.4904 137.859 107.258 159.566 122.332C181.257 137.389 176.229 150.326 176.229 150.326L222.898 123.499L227.433 120.885C229.964 119.718 231.656 118.14 231.656 115.641C231.656 112.452 232.971 106.847 230.325 100.501Z" fill="#489CEF"/>
<path d="M100.557 10.0737C91.9624 14.66 79.1942 22.797 73.7222 26.3641C82.7601 27.6463 90.352 23.2902 98.8641 21.86C107.376 20.4299 118.041 19.2463 126.668 19.7395C135.394 20.2491 143.396 22.419 151.432 25.7231C155.376 27.3505 160.848 29.0765 165.219 27.6792C163.757 26.2984 162.113 25.0326 160.125 23.8984C157.742 22.534 140.521 12.6381 134.934 9.43259C133.636 8.69287 125.123 3.71202 118.633 1.31201C116.924 2.08462 115.247 2.90654 113.637 3.62983C109.217 5.65176 104.846 7.77229 100.557 10.0737Z" fill="#5AB5FF"/>
<path d="M178.661 130.156C174.52 120.26 164.447 109.904 153.601 101.455C146.732 96.0959 138.023 89.5205 133.948 86.463C129.215 80.6438 124.022 70.8301 117.844 62.3314C115.28 58.8136 112.569 55.9368 108.461 53.5697C106.078 52.2053 88.8566 42.3094 83.2695 39.1039C81.7577 38.2327 70.3699 31.5751 63.9118 30.0299C62.6465 29.734 55.9913 31.9532 44.9815 38.3478C43.1082 39.4327 39.0657 40.4519 37.5539 41.5697C35.5163 43.082 35.2534 47.7998 35.352 56.0848C35.3848 58.5834 35.0069 70.83 37.7018 74.4301C37.7018 74.4301 37.7019 74.4301 37.7183 74.4301C38.7535 76.5013 40.0353 78.3753 41.4978 79.9041C41.4978 79.6575 41.4649 79.3945 41.4649 79.1315C41.4649 66.4246 49.1883 60.5889 58.7192 66.0794C67.6914 71.2575 75.0696 84.6712 75.8912 96.8356C79.4571 98.9069 87.2955 103.411 98.8148 109.888C113.506 118.14 125.699 124.945 129.1 126.836C130.135 116.069 137.399 111.433 146.206 116.529C155.737 122.036 163.461 136.797 163.461 149.504C163.461 149.734 163.444 149.948 163.428 150.178C166.024 151.28 169.311 152.562 170.445 152.282C175.654 150.951 180.008 149.291 180.008 145.296C179.992 142.091 181.307 136.502 178.661 130.156Z" fill="#3688D8"/>
<path d="M146.19 116.529C137.382 111.433 130.119 116.068 129.084 126.836C125.666 124.929 113.489 118.14 98.7984 109.888C87.2791 103.411 79.4571 98.9068 75.8748 96.8355C75.8748 96.5396 75.842 96.1944 75.8091 95.8492C74.6753 83.9478 67.4614 71.1094 58.7192 66.0628C49.1883 60.5559 41.465 66.408 41.465 79.1149C41.465 79.3615 41.4814 79.6245 41.4978 79.8875C42.2208 80.6437 42.9767 81.3341 43.7819 81.9095C43.8148 81.9259 43.8477 81.9587 43.8641 81.9752C43.8477 81.6464 43.8312 81.3012 43.8312 80.9725C43.8312 70.1724 50.4043 65.1916 58.5056 69.8765C66.6069 74.5615 73.1799 87.104 73.1799 97.9205C73.1799 98.3479 73.147 98.7424 73.1306 99.1534L74.626 100.008L75.9242 100.748L129.018 130.962L130.908 132.03C130.891 131.652 130.875 131.29 130.875 130.912C130.875 120.112 137.448 115.132 145.549 119.816C153.65 124.501 160.224 137.044 160.224 147.86C160.224 148.173 160.207 148.469 160.191 148.781C160.634 148.945 161.916 149.521 163.461 150.178C163.461 149.948 163.494 149.734 163.494 149.504C163.444 136.781 155.721 122.019 146.19 116.529Z" fill="#2A7BD3"/>
<path d="M164.562 33.5476C162.327 35.2736 158.054 38.3476 151.087 42.375C139.716 48.934 118.567 59.2409 118.567 59.2409L133.981 82.8465C142.936 75.0054 172.762 57.6957 178.644 54.5888C176.771 51.1696 169.968 40.7476 164.562 33.5476Z" fill="#B5E0FF"/>
<path d="M166.665 70.5341C182.112 61.5916 184.347 58.2711 184.347 58.2711L166.484 31.9531C166.484 31.9531 165.893 32.512 164.545 33.5477C169.952 40.7641 176.755 51.1697 178.628 54.5889C172.729 57.6957 142.92 75.0054 133.964 82.8465L135.87 85.8219C135.87 85.8219 150.167 80.0684 166.665 70.5341Z" fill="#97CDFC"/>
<path opacity="0.5" d="M119.438 60.5725C119.438 60.5725 143.035 57.1862 155.984 51.5313C170.954 44.9888 173.846 42.7532 173.846 42.7532L166.501 31.9368C166.501 31.9368 158.942 37.7231 148.573 43.7889C142.246 47.4875 118.567 59.241 118.567 59.241L119.438 60.5725Z" fill="white"/>
<path d="M222.618 108.145C222.782 105.433 223.834 101.767 225.56 101.192C225.642 101.175 225.806 101.356 226.02 101.652C226.02 101.323 226.003 100.978 225.987 100.649C225.182 100.107 223.144 98.5616 223.128 98.6603C218.609 106.912 197.821 119.225 183.673 119.389C182.407 119.406 186.926 123.038 187.239 122.956C190.18 122.085 193.976 122.315 196.95 123.532C201.124 121.165 205.594 119.291 209.719 116.792C213.071 114.754 218.362 111.203 222.618 108.145Z" fill="#191919"/>
<path d="M207.829 125.669C212.315 123.449 218.148 119.504 222.306 116.841C223.111 116.332 223.243 115.017 223.144 113.586C218.609 117.466 209.686 122.644 202.094 126.145C203.901 126.951 205.89 126.622 207.829 125.669Z" fill="#191919"/>
<path d="M198.134 124.09C198.725 124.419 199.728 124.929 200.746 125.471C204.493 123.466 208.42 121.74 212.068 119.537C215.766 117.301 219.479 114.951 223.012 112.403C222.881 111.318 222.684 110.249 222.618 109.51C216.538 114.244 205.725 120.688 198.134 124.09Z" fill="#191919"/>
<path d="M200.746 125.471C201.075 125.636 201.404 125.816 201.716 125.981C201.831 126.046 201.946 126.079 202.077 126.145C209.686 122.644 218.592 117.466 223.128 113.586C223.095 113.192 223.062 112.797 223.012 112.403C219.496 114.951 215.766 117.301 212.068 119.537C208.42 121.74 204.509 123.466 200.746 125.471Z" fill="#333333"/>
<path d="M222.602 109.197C222.585 108.869 222.602 108.523 222.618 108.145C218.362 111.203 213.071 114.754 209.702 116.792C205.578 119.29 201.108 121.164 196.934 123.532C197.328 123.696 197.706 123.86 198.068 124.058C198.084 124.074 198.117 124.09 198.15 124.107C205.742 120.704 216.555 114.26 222.635 109.526C222.602 109.395 222.602 109.296 222.602 109.197Z" fill="#333333"/>
<path d="M188.849 124.008C187.107 119.603 181.701 116.71 176.804 115.806C174.668 115.411 167.585 114.096 165.926 117.121C165.498 117.893 166.928 119.34 168.621 120.326C172.121 122.365 175.292 125.702 176.475 128.71C177.034 130.107 177.659 131.406 178.628 132.474C179.893 133.871 184.724 131.471 186.187 130.436C188.652 128.726 190.229 127.493 188.849 124.008Z" fill="#B5E0FF"/>
<path d="M220.367 85.4275C219.512 91.0494 223.522 99.7783 225.56 103.888C226.677 106.14 229.52 106.156 231.344 103.576C230.604 100.156 227.515 92.2166 220.367 85.4275Z" fill="#B5E0FF"/>
<path d="M231.968 107.603C231.87 107.406 231.574 107.225 231.36 107.258C228.468 107.554 227.186 109.872 226.578 112.502C225.806 115.839 225.165 117.91 221.879 119.85C219.463 121.28 216.965 122.611 214.517 123.992C210.409 126.31 206.284 128.611 202.176 130.929C200.056 131.488 198.018 131.554 196.359 130.617C193.976 129.269 192.316 128.102 189.95 130.239C186.926 132.968 184.577 137.159 184.412 141.137C184.347 142.617 184.412 142.962 186.45 141.943C191.347 139.543 196.868 135.663 200.598 136.288C202.505 135.22 217.738 126.803 222.47 123.713C222.881 122.496 223.883 121.576 225.067 120.787C227.712 119.028 230.259 117.68 231.656 115.181C231.985 113.274 232.412 111.022 231.968 107.603Z" fill="#191919"/>
<path d="M192.661 131.406C191.462 132.096 190.476 133.97 190.476 135.581C190.476 137.192 191.445 137.932 192.661 137.225C193.861 136.534 194.847 134.66 194.847 133.05C194.831 131.455 193.861 130.715 192.661 131.406Z" fill="#444444"/>
<path d="M230.719 114.026C231.377 112.481 231.199 110.925 230.322 110.552C229.445 110.179 228.201 111.129 227.544 112.674C226.887 114.22 227.064 115.776 227.941 116.149C228.818 116.522 230.062 115.572 230.719 114.026Z" fill="#444444"/>
<path d="M187.847 136.14C187.058 136.6 186.417 137.817 186.417 138.869C186.417 139.921 187.058 140.397 187.847 139.937C188.635 139.477 189.276 138.26 189.276 137.208C189.276 136.156 188.635 135.68 187.847 136.14Z" fill="#444444"/>
<path d="M74.8724 42.6052C69.7783 39.9093 64.6184 39.2518 60.2638 43.8053C59.0313 45.0875 58.0947 46.6491 57.0101 48.0792L127.966 89.0931V82.9452C125.222 78.4575 121.87 73.1149 118.895 68.6272C108.691 62.3149 99.6857 58.0245 90.3026 52.1724C85.2085 48.9834 80.1966 45.4162 74.8724 42.6052Z" fill="#B5E0FF"/>
<path d="M111.944 59.4053C107.475 55.904 91.2393 46.008 78.1425 38.7258C70.7314 34.5998 67.182 32.4956 63.8133 33.0217C60.8554 33.4819 59.5901 34.9779 57.5032 37.6409C54.6439 41.2738 52.0475 45.219 52.0475 45.219L57.0266 48.0957C58.0948 46.6491 59.0478 45.1039 60.2803 43.8217C64.6349 39.2683 69.7948 39.9258 74.8889 42.6217C80.1966 45.4327 85.2086 48.9998 90.3191 52.1725C99.7021 58.0245 108.724 62.3149 118.912 68.6273C115.888 64.0903 113.243 60.441 111.944 59.4053Z" fill="#97CDFC"/>
<path opacity="0.5" d="M183.985 66.3589C180.14 68.989 172.4 74.2329 164.89 78.9343C164.2 79.3781 164.529 80.3644 165.285 80.4137C172.778 80.8905 179.745 78.474 185.628 74.1507C190.985 70.2055 184.001 66.3589 183.985 66.3589Z" fill="white"/>
<path d="M141.753 86.9071C141.655 86.8577 141.54 86.9893 141.638 87.055C147.045 90.3263 153.519 95.8167 159.155 100.65C164.2 104.973 168.867 110.102 174.684 113.422C173.83 110.989 154.62 93.0715 141.753 86.9071Z" fill="#3688D8"/>
<path d="M218.165 89.8495C210.244 78.77 198.446 69.4823 187.189 61.9535C187.107 61.8877 186.992 62.0357 187.074 62.1014C192.333 66.6549 197.953 70.748 203.178 75.3508C208.42 79.9536 216.111 88.9454 218.165 89.8495Z" fill="#3688D8"/>
<path d="M187.847 124.074C187.321 122.644 184.971 119.948 182.243 120.195C179.302 120.474 175.555 120.852 177.609 124.058C178.891 126.063 179.367 127.987 179.926 129.17C180.583 130.551 181.619 131.817 183.426 130.814C186.483 129.104 189.194 127.773 187.847 124.074Z" fill="white"/>
<path d="M224.442 94.1234C223.489 94.9454 225.001 99.1865 226.085 101.882C227.17 104.578 227.827 104.611 229.273 103.855C230.719 103.099 229.947 99.8933 228.518 97.5262C227.071 95.1426 225.724 93.0221 224.442 94.1234Z" fill="white"/>
<path d="M96.6292 48.6548C96.6292 48.6548 95.2818 64.7974 95.2818 72.77C95.2818 80.4303 90.3026 73.0659 90.2369 71.5864C89.9247 64.896 93.0304 46.9617 93.0304 46.9617L96.6292 48.6548Z" fill="#3688D8"/>
<path d="M176.541 143.554C175.867 144.458 175.128 145.313 174.273 146.069C173.501 146.759 172.515 147.252 171.825 148.025C171.628 148.239 171.825 148.518 172.088 148.485C173.156 148.321 174.158 147.45 174.914 146.71C175.785 145.888 176.492 144.918 177.018 143.833C177.198 143.504 176.755 143.258 176.541 143.554Z" fill="#2A7BD3"/>
<path d="M170.33 145.97C170.001 145.28 169.294 144.754 168.752 144.244C168.193 143.735 167.651 143.11 166.977 142.748C166.731 142.617 166.501 142.88 166.616 143.11C166.961 143.784 167.569 144.343 168.078 144.918C168.571 145.477 169.097 146.2 169.771 146.529C170.149 146.71 170.51 146.332 170.33 145.97Z" fill="#2A7BD3"/>
<path d="M74.0508 80.4795C74.0508 80.4795 79.9337 80.7589 97.2208 89.8494C116.036 99.7289 119.849 102.178 133.028 114.293C128.64 116.66 127.292 121.937 127.292 121.937C127.292 121.937 91.1079 100.699 78.0275 93.3836C77.5674 88.485 76.795 85.296 74.0508 80.4795Z" fill="#489CEF"/>
<path d="M35.9764 44.4792C35.9764 44.4792 37.3896 45.5971 39.0822 46.5834C39.7231 46.9615 39.9531 48.3423 39.7888 49.9861C39.5587 52.5341 39.1479 55.7396 39.0329 56.9889C38.8686 58.8958 36.6338 57.5642 35.352 56.9067C34.6783 54.8683 35.1219 46.9779 35.9764 44.4792Z" fill="#B5E0FF"/>
<path d="M66.6233 32.019C66.6233 32.019 60.3624 46.3369 59.2121 51.4821C58.6699 53.8986 61.5455 56.2821 61.8085 55.2136C63.0573 50.0848 65.6866 39.4821 68.2665 32.6437C68.4309 32.2492 66.6233 32.019 66.6233 32.019Z" fill="#3688D8"/>
<path d="M94.378 48.293C94.378 48.293 92.1267 64.6656 91.5845 73.1972C90.5821 88.9945 92.6033 105.252 92.6033 105.252C92.6033 105.252 92.5046 95.7836 92.7183 91.2466C93.0798 83.1589 93.1291 72.7205 93.8193 67.0328C94.6573 60.1286 95.2818 48.8519 95.2818 48.8519L94.378 48.293Z" fill="#2A7BD3"/>
<path d="M98.8804 74.9728C97.3029 74.3646 96.2841 74.1837 95.9883 75.1043C95.5775 76.4193 97.4508 77.3728 98.1245 77.7344C99.6528 78.5399 101.575 79.9535 102.331 78.3919C103.087 76.7974 100.162 75.4659 98.8804 74.9728Z" fill="#333333"/>
<path d="M64.1747 54.7699C62.5972 54.1617 61.5784 53.9809 61.2826 54.9014C60.8718 56.2165 62.7451 57.1698 63.4189 57.5315C64.9471 58.3369 66.8697 59.7507 67.6256 58.189C68.3815 56.5945 65.4565 55.263 64.1747 54.7699Z" fill="#333333"/>
<path d="M126.389 117.302C125.551 117.713 124.811 118.304 124.039 118.83C123.414 119.258 122.56 119.652 122.215 120.326C122.083 120.589 122.297 120.852 122.576 120.803C123.316 120.655 123.94 119.915 124.515 119.439C125.238 118.847 125.994 118.288 126.619 117.597C126.767 117.433 126.586 117.203 126.389 117.302Z" fill="#2A7BD3"/>
<path d="M108.198 110.069C107.869 109.082 107.721 108.063 107.458 107.061C107.36 106.699 106.834 106.781 106.817 107.143C106.785 108.211 107.015 109.296 107.294 110.299C107.508 111.055 107.738 112.206 108.494 112.584C108.625 112.65 108.806 112.6 108.839 112.452C109.003 111.663 108.444 110.825 108.198 110.069Z" fill="#2A7BD3"/>
<path d="M110.63 107.143C110.482 107.751 110.334 108.359 110.186 108.984C110.071 109.493 109.907 109.986 110.005 110.496C110.071 110.792 110.433 110.775 110.581 110.578C110.909 110.151 110.959 109.592 111.057 109.082C111.189 108.507 111.304 107.932 111.435 107.373C111.567 106.83 110.761 106.617 110.63 107.143Z" fill="#2A7BD3"/>
<path d="M100.491 106.945C100.08 106.189 99.5049 105.531 99.1434 104.759C98.7161 103.855 98.4697 102.819 98.4039 101.816C98.3875 101.57 97.9931 101.471 97.9438 101.751C97.6316 103.707 98.256 106.337 100.195 107.225C100.392 107.307 100.606 107.142 100.491 106.945Z" fill="#2A7BD3"/>
<path d="M84.0254 93.6467C83.4667 94.0905 83.0066 94.6166 82.4643 95.0768C82.0042 95.4714 81.199 95.7837 80.9525 96.3426C80.8539 96.5563 80.9689 96.77 81.2154 96.7865C81.9056 96.8358 82.5793 96.0796 83.023 95.6193C83.5653 95.0604 83.9925 94.4686 84.1569 93.7125C84.1569 93.6467 84.0912 93.6138 84.0254 93.6467Z" fill="#2A7BD3"/>
<path d="M87.1969 99.5479C86.9669 99.0219 86.4903 98.6603 86.2603 98.1343C86.0302 97.5918 85.9973 97.0493 85.8659 96.4904C85.8002 96.2274 85.3893 96.1452 85.2579 96.4082C84.732 97.5589 85.3893 99.8274 86.7368 100.156C87.1148 100.238 87.3448 99.8603 87.1969 99.5479Z" fill="#2A7BD3"/>
<path d="M40.2653 66.8685C40.3311 66.5561 39.9367 66.3918 39.7559 66.6548C38.8029 68.0849 38.9343 70.3041 40.3475 71.3726C40.5447 71.5205 40.8569 71.2739 40.7747 71.0438C40.2325 69.6137 39.9038 68.4137 40.2653 66.8685Z" fill="#2A7BD3"/>
<path opacity="0.5" d="M118.764 8.38054C118.715 7.85451 117.515 6.8353 117.334 6.76955C114.738 5.73392 112.174 6.75312 109.94 8.11752C107.968 9.31753 105.322 10.9285 103.695 12.934C102.956 13.8545 102.529 14.7751 104.517 14.7751C106.407 14.7751 116.102 11.5367 117.844 10.4518C118.895 9.79426 119.076 9.02164 118.764 8.38054Z" fill="white"/>
<path d="M97.1386 38.1669C88.1007 33.9915 80.6732 28.6655 71.0108 26.134C70.715 26.0518 70.5013 26.5121 70.7971 26.6436C79.3092 30.6546 111.008 47.4875 118.337 52.9286C115.362 48.293 104.583 41.619 97.1386 38.1669Z" fill="#3688D8"/>
<path d="M139.716 13.8545C130.678 9.67911 123.25 4.35304 113.588 1.82153C113.292 1.73933 113.078 2.19961 113.374 2.33111C121.886 6.34209 153.585 23.175 160.914 28.6161C157.923 23.9805 147.16 17.2901 139.716 13.8545Z" fill="#3688D8"/>
<path d="M213.399 113.208C214.106 114.441 213.367 116.217 211.723 117.17C210.08 118.124 208.174 117.877 207.467 116.644C206.761 115.411 207.5 113.636 209.143 112.682C210.787 111.729 212.693 111.976 213.399 113.208Z" fill="white"/>
<path d="M126.06 90.6874C126.06 90.6874 130.858 91.6573 131.877 91.0491C132.896 90.4409 132.814 88.5011 131.516 88.1395C130.201 87.7614 127.358 88.1395 127.358 88.1395L126.06 90.6874Z" fill="#333333"/>
<path d="M119.602 89.4712C122.231 86.9397 126.898 84.1944 128.689 83.504C128.558 83.3561 128.426 83.2081 128.278 83.0766C126.98 81.9423 125.978 82.9615 124.696 83.5533C121.689 84.9835 117.351 87.4492 115.543 91.0328C114.048 94.0081 114.294 96.0301 116.644 96.326C116.102 94.3698 117.219 91.7561 119.602 89.4712Z" fill="#5AB5FF"/>
<path d="M125.189 93.9424C129.659 91.8382 130.71 88.83 130.185 86.3642C129.955 85.2464 129.396 84.2601 128.689 83.5039C126.898 84.1943 122.231 86.956 119.602 89.4711C117.236 91.756 116.118 94.3697 116.644 96.3259C118.337 96.5561 121.13 95.8657 125.189 93.9424Z" fill="#489CEF"/>
<path opacity="0.5" d="M117.417 35.1916C116.726 34.6491 115.938 34.3039 115.1 34.0738C112.865 33.482 111.451 33.2354 110.515 30.7203C109.249 27.334 106.916 24.8025 102.989 25.2135C99.8007 25.5422 96.5635 27.0217 93.507 28.008C89.9411 29.1587 86.3753 30.2929 82.8258 31.4436C80.7389 32.1176 78.2083 32.7423 76.8444 34.6327C75.5791 36.3752 75.7105 39.0217 75.4969 41.0437C74.8724 46.7807 73.2292 53.8657 77.7317 58.4684C77.7646 58.5013 77.781 58.5013 77.8139 58.5342C78.882 59.6355 80.0323 60.6054 79.9501 62.4794C79.8022 66.0301 79.3257 69.4821 79.5393 73.0493C79.6708 75.2356 79.983 83.8822 84.4362 81.6301C85.7508 80.9726 86.1124 79.2137 86.441 77.9315C87.1148 75.3342 87.7556 71.2246 88.4786 68.6438C91.1736 69.1369 90.7792 74.6931 90.8614 75.4657C90.96 76.3205 91.0914 77.1425 91.4036 77.9479C91.8638 79.1973 92.669 80.7096 94.2301 80.463C95.5282 80.2493 96.4156 78.8192 96.7935 77.7014C97.6973 74.989 97.0236 71.8 97.5987 68.9726C98.026 66.8027 98.3382 64.1561 100.672 63.0711C101.23 62.8081 101.773 63.1205 102.397 62.7424C103.547 62.052 103.761 60.441 103.925 59.241C104.238 57.0711 103.761 54.6547 106.423 53.8657C107.82 53.4547 109.512 53.6684 110.958 53.4711C112.47 53.2574 114.245 52.8301 114.984 51.3013C115.28 50.7095 115.576 50.0355 115.264 49.4437C113.275 45.7451 115.132 43.7725 116.562 42.5067C117.022 42.1122 117.499 41.7505 117.909 41.3067C118.616 40.5505 119.273 39.6628 119.323 38.5779C119.372 37.1971 118.452 35.9971 117.417 35.1916Z" fill="white"/>
<path opacity="0.5" d="M198.298 76.7315C195.669 75.4 192.349 74.7918 189.441 75.285C186.729 75.7288 184.412 76.6493 181.602 76.1891C179.647 75.8603 177.757 75.1534 175.834 74.6603C172.548 73.8219 169.59 73.789 166.402 75.0055C163.494 76.1233 160.125 78.0137 157.939 78.7699C156.707 79.1973 154.488 79.5425 152.911 80.2C151.563 80.7754 150.249 81.7781 150.183 83.3726C150.117 84.8028 152.385 86.2165 153.371 86.8905C154.127 87.4001 154.127 89.9316 150.38 91.7891C149.46 92.233 148.491 92.5289 147.603 93.0056C145.894 93.9261 144.251 95.2083 143.084 96.7864C141.934 98.3645 141.424 101.093 142.756 102.375C143.807 103.97 147.455 103.493 147.357 106.633C147.242 110.233 145.796 114.26 147.488 117.713C148.392 119.537 150.364 120.737 152.286 119.603C155.557 117.647 154.439 109.707 158.547 109.345C161.226 109.986 159.911 115.756 163.855 115.658C166.435 115.592 168.703 113.373 170.182 111.482C172.975 107.899 178.858 110.085 182.72 107.866C184.051 107.11 185.119 106.041 185.743 104.628C186.384 103.148 186.384 101.619 187.222 100.321C191.33 97.9207 199.382 96.7864 198.561 90.9672C198.364 89.537 197.936 88.2713 198.511 86.8576C198.873 85.9535 199.58 85.2795 200.155 84.5234C200.779 83.685 201.42 82.8631 201.617 81.811C202.061 79.411 200.27 77.7343 198.298 76.7315Z" fill="white"/>
<path d="M191.413 64.1066C187.255 64.4189 183.278 65.6189 179.548 67.5422C176.065 69.3505 172.515 70.2217 169.015 71.1094C166.156 71.8327 162.08 71.8985 159.632 73.9039C155.573 77.2245 163.559 77.3231 167.191 77.0601C164.118 79.0985 158.317 82.5505 159.829 85.23C160.749 86.841 163.921 86.4135 165.367 86.1998C167.142 85.9204 168.752 85.2628 170.231 84.3423C168.604 87.2683 166.534 91.7561 168.785 93.3177C171.25 95.0437 173.747 92.0026 175.358 89.3067C175.079 91.4766 175.111 93.6465 175.785 95.7835C176.327 97.4438 177.839 100.715 179.745 101.208C181.208 101.586 181.487 100.304 181.882 99.1369C182.868 96.1286 183.476 93.0218 183.837 89.8821C184.642 91.3451 185.546 93.0876 187.354 93.2191C190.41 93.4492 188.751 83.619 189.276 79.2793C189.621 76.3368 190.197 73.4436 190.936 70.5834C191.445 68.6107 192.054 66.7697 191.971 64.6984C191.955 64.3861 191.725 64.0902 191.413 64.1066Z" fill="#97CDFC"/>
<path d="M199.202 53.8821C195.324 54.8191 191.281 56.0027 187.65 57.8602C182.687 59.3397 177.971 61.3616 172.942 62.9725C171.693 63.367 171.431 64.6493 172.301 65.2739C174.241 66.6712 178.365 66.2602 181.011 65.8657C179.203 67.1315 177.543 68.5945 176.097 70.2876C175.276 71.2575 172.088 74.4959 173.78 75.6794C175.309 76.7479 182.161 73.7562 183.821 72.3589C183.163 73.7726 182.818 75.3178 182.687 76.9452C182.572 78.6383 182.21 81.548 183.229 83.011C185.316 85.9863 187.65 79 188.964 75.9096C188.915 78.2932 190.558 82.863 193.007 82.863C194.699 82.863 193.812 79.0329 194.058 75.9096C194.995 64.1397 198.084 58.7315 199.711 54.5397C199.843 54.1944 199.563 53.7834 199.202 53.8821Z" fill="#CAE9F9"/>
<path d="M206.12 49.7888C199.678 51.4162 191.643 51.7286 185.316 53.8491C184.905 53.9806 184.955 54.4902 185.316 54.6546C187.682 55.6409 189.901 55.6244 192.267 55.2628C190.821 55.9203 189.638 56.9724 188.767 58.4518C188.619 58.7149 188.8 59.1094 189.128 59.0765C192.086 58.8464 195.439 57.8601 197.92 56.2984C196.852 59.6847 195.849 63.3341 196.26 66.8848C196.31 67.2628 196.523 68.1998 197.575 67.345C199.514 65.7669 199.547 63.219 200.122 60.8847C201.124 56.8902 204.756 52.0738 206.12 49.7888Z" fill="#E1F4FF"/>
<path d="M202.62 51.4163C202.62 51.4163 195.176 52.7314 193.812 53.1423C192.464 53.5368 192.661 54.2766 195.57 53.8656C198.462 53.4382 202.62 51.4163 202.62 51.4163Z" fill="white"/>
<path d="M201.436 55.0164C201.436 55.0164 199.547 56.5451 198.659 58.5671C198.035 59.9808 197.92 61.3945 198.429 60.9835C198.922 60.5725 199.267 59.2904 199.941 58.1068C200.631 56.9068 201.436 55.0164 201.436 55.0164Z" fill="white"/>
<path d="M193.615 62.3479C193.615 62.3479 190.164 66.6219 189.161 70.2383C188.159 73.8548 189.391 74.9726 190.164 72.7534C190.936 70.5507 192.859 64.2548 193.615 62.3479Z" fill="white"/>
<path d="M187.912 62.1506C187.912 62.1506 178.677 65.8493 176.081 66.852C172.811 68.1178 173.057 69.0877 177.708 67.6904C181.405 66.6055 187.912 62.1506 187.912 62.1506Z" fill="white"/>
<path d="M181.06 78.2109C181.06 78.2109 179.466 81.5479 178.332 85.0657C177.215 88.5836 178.628 91.1973 179.828 87.6301C181.027 84.0794 181.06 78.2109 181.06 78.2109Z" fill="white"/>
<path d="M172.4 81.5972C172.4 81.5972 165.416 86.052 162.261 87.2355C159.106 88.4191 160.651 90.3753 164.496 88.2712C168.341 86.1671 172.4 81.5972 172.4 81.5972Z" fill="white"/>
<path d="M191.199 84.1453C191.199 84.1453 190.312 89.1097 191.971 91.2467C193.631 93.3837 194.732 92.496 193.615 90.6713C192.481 88.8631 191.199 84.1453 191.199 84.1453Z" fill="white"/>
<path d="M167.076 68.1177C167.076 68.1177 160.536 67.8054 158.531 67.6574C156.526 67.5095 155.902 69.2848 159.172 69.5807C162.425 69.8766 167.076 68.1177 167.076 68.1177Z" fill="white"/>
<path d="M106.998 28.271C106.029 26.6601 100.524 29.2738 99.0449 29.9313C97.5659 30.5889 95.5283 30.9176 94.0165 31.5259C96.1034 29.5861 99.4393 27.0217 99.0613 23.9477C99.012 23.5368 98.6834 23.3559 98.3054 23.5203C94.6245 25.082 91.568 27.482 87.6735 28.6985C84.1241 29.8163 80.5089 30.1779 76.8444 30.2437C76.8937 32.4957 76.7951 34.945 76.0885 37.1149C79.4572 39.367 81.7577 42.6217 83.6475 46.1724C84.617 47.9806 85.488 49.8382 86.4411 51.6464C86.9012 52.5177 87.8049 54.3752 88.7745 54.8519C89.9905 55.4601 90.7464 54.3916 91.075 53.1259C91.4037 51.8766 90.8614 50.3314 90.1055 48.9177C92.2746 50.3149 94.9532 51.3012 95.8898 49.0491C96.958 46.5176 91.5023 42.7697 89.1524 41.0766C89.6126 41.1259 98.9791 43.3122 99.6529 40.5012C100.261 38.019 89.7604 36.2108 88.8895 35.9642C91.7652 35.9478 109.775 32.8409 106.998 28.271Z" fill="#B5E0FF"/>
<path d="M78.0276 29.8326C80.4267 29.7011 84.1898 28.2709 85.488 25.986C86.3753 24.4079 81.9714 26.3312 80.969 26.5285C78.7013 26.9723 76.6143 27.1531 74.2973 27.0381C71.0272 26.8572 67.7736 26.6764 64.5035 26.66C64.3227 27.5312 64.3392 27.9586 64.8486 28.8956C65.1279 29.4216 67.4942 33.0545 67.5928 33.0545C70.1728 34.9943 72.6541 36.9997 74.856 39.3997C76.1542 40.8134 77.2552 42.3422 78.4055 43.871C79.0957 44.808 80.2295 46.2546 80.8868 45.5477C82.8423 43.4108 79.6215 39.5806 77.7975 37.5586C78.2576 37.7395 81.0676 39.5806 82.07 39.8929C83.3024 40.2874 84.2226 39.3669 84.4034 38.1669C84.5677 36.9504 81.2976 35.323 80.0981 34.4189C81.5277 34.5011 85.5208 36.0299 86.1617 34.4682C87.0819 32.1833 79.6544 30.3258 78.0276 29.8326Z" fill="#CAE9F9"/>
<path d="M65.2265 26.9559C66.7219 26.4792 69.6469 22.9779 67.7407 23.2573C65.1115 23.619 63.6983 24.2929 61.8578 24.8025C58.8507 25.6244 54.2988 24.9175 50.1743 24.3422C53.6744 26.2655 58.4399 28.4189 61.6935 30.8025C63.3697 32.0354 64.75 33.4984 66.2947 34.8792C66.9191 35.4381 67.4778 35.997 68.3487 35.9641C69.7948 35.9148 70.0249 34.8792 69.6962 33.7121C69.5483 33.1696 69.3018 32.6272 68.9896 32.134C69.8441 32.2984 70.5507 32.1176 70.8136 31.2463C71.4545 29.1258 67.675 27.6957 65.2265 26.9559Z" fill="#E1F4FF"/>
<path d="M58.292 26.5779C59.8202 27.0053 61.2334 28.419 63.9284 30.0135C66.8205 31.7231 66.1961 29.8655 64.8322 28.8792C63.4683 27.9094 58.292 26.5779 58.292 26.5779Z" fill="white"/>
<path d="M68.8746 25.6902C69.1046 25.6573 73.147 24.1779 74.8067 23.4546C76.45 22.7313 76.9758 23.9313 74.8067 24.9833C72.6212 26.0354 68.8746 25.6902 68.8746 25.6902Z" fill="white"/>
<path d="M71.586 28.2053C71.586 28.2053 74.7739 28.2711 76.2528 28.4355C77.7317 28.5999 77.9618 29.6354 76.0885 29.6026C74.1987 29.5533 71.586 28.2053 71.586 28.2053Z" fill="white"/>
<path d="M72.9991 34.9614C72.9991 34.9614 77.3209 39.3176 78.4712 40.4847C80.0816 42.0957 81.2812 39.9258 78.9478 38.2327C76.6143 36.5395 72.9991 34.9614 72.9991 34.9614Z" fill="white"/>
<path d="M84.6335 28.2052C84.6335 28.2052 88.4294 25.9367 90.2041 24.4901C91.9788 23.0271 93.2277 23.9476 91.2886 25.7394C89.366 27.5312 84.6335 28.2052 84.6335 28.2052Z" fill="white"/>
<path d="M88.4623 31.7066C88.4623 31.7066 93.9836 30.0299 96.6293 29.0764C99.275 28.123 100.392 29.1587 97.6153 30.7039C94.8382 32.2655 88.4623 31.7066 88.4623 31.7066Z" fill="white"/>
<path d="M82.2343 40.8298C82.2343 40.8298 85.4879 43.4271 87.7884 46.2545C89.4974 48.3751 90.7792 46.4682 88.4622 44.4628C86.1288 42.4737 82.2343 40.8298 82.2343 40.8298Z" fill="white"/>
<path d="M97.0237 36.6545C97.0237 36.6545 102.282 36.4901 106.111 35.9476C109.94 35.4052 109.414 38.0846 105.881 38.249C102.348 38.397 97.0237 36.6545 97.0237 36.6545Z" fill="white"/>
<path d="M33.8237 56.9398C33.8237 56.9398 32.5913 55.7891 31.3424 55.6247C30.0935 55.4603 27.1028 56.4466 27.1028 56.4466L26.5276 59.1097C26.5276 59.1097 29.9949 61.0001 31.3095 60.622C32.6241 60.2439 33.8237 56.9398 33.8237 56.9398Z" fill="#FFC9B6"/>
<path d="M54.5289 24.0793C50.4864 22.5341 46.8713 21.0217 44.7843 20.4628C42.911 19.9697 42.4345 21.4327 42.0072 22.5012C41.7607 23.1258 41.3006 24.1943 40.972 25.23C40.3146 27.2848 40.8241 27.7779 42.2373 28.3039C44.2421 29.0437 45.8196 29.6026 46.6741 29.8656C47.4793 30.1122 47.8572 29.7834 48.268 29.0272C48.6953 28.2382 49.0075 27.3998 49.3361 26.5615C49.5498 26.019 50.1414 25.7395 50.7001 25.8875C51.6203 26.1341 52.9349 26.4957 53.5429 26.6108C54.5289 26.7752 55.1533 24.3094 54.5289 24.0793ZM47.1177 27.8108C46.7234 28.7314 45.5895 28.0574 44.39 27.6629C42.5166 27.0382 42.2373 26.7094 42.6152 25.7231C43.2397 24.0957 43.404 23.7012 43.404 23.7012L48.153 25.4108C48.1694 25.4108 47.5778 26.7587 47.1177 27.8108Z" fill="#333333"/>
<path d="M44.7679 116.48C40.9883 110.611 27.8094 106.239 23.0275 105.877C20.234 105.663 18.4099 104.71 17.6047 103C16.2573 100.14 17.8348 95.2084 21.9101 89.4714C27.7601 81.2357 32.1969 64.2877 32.6735 53.6191C33.15 42.8848 34.4646 32.4136 35.4506 28.5012C36.3051 25.1642 37.4061 23.1917 38.9343 22.3204C39.9531 21.7286 41.2184 21.6464 42.8781 21.9752C43.0096 21.8272 43.0589 21.6136 43.0589 21.3834C41.202 20.9889 39.7888 21.1204 38.6221 21.7944C36.9459 22.7642 35.7463 24.8355 34.859 28.3533C33.8566 32.2985 32.5256 42.8191 32.049 53.6027C31.5889 64.1891 27.2014 80.9891 21.4007 89.1261C17.1939 95.0439 15.6 100.189 17.046 103.263C17.9498 105.17 19.9382 106.255 22.9618 106.485C27.53 106.814 40.6268 111.186 44.242 116.808C45.4416 118.682 45.8031 120.376 45.343 121.987C44.2749 125.767 38.8193 128.365 34.021 130.666L33.5608 130.896L33.8237 131.439L34.2838 131.208C39.1972 128.858 44.7843 126.195 45.9182 122.151C46.444 120.376 46.0496 118.469 44.7679 116.48Z" fill="#515151"/>
<path d="M27.5958 106.173C26.9385 104.973 24.8187 105.022 22.1402 105.877C19.4616 106.732 18.4757 107.093 18.4264 107.899C18.3935 108.704 18.0484 110.825 21.3843 110.578C24.7201 110.348 27.185 108.507 27.415 107.751C27.6287 106.995 27.5958 106.173 27.5958 106.173Z" fill="#191919"/>
<path d="M18.4756 40.9287C18.1634 40.0903 17.7362 39.3013 16.9146 38.9725C16.8981 38.9725 16.8817 38.9725 16.8653 38.9725C14.1868 36.9342 9.96358 37.6081 8.48465 41.389C7.31793 44.3643 8.59966 47.4383 9.65135 50.3972C10.2429 52.0575 9.51991 54.6877 10.6045 56.1014C11.6397 57.4493 20.0203 53.1096 20.1518 48.7534C20.2175 46.6164 18.64 41.2575 18.4756 40.9287Z" fill="#FFB30B"/>
<path d="M18.8372 33.63C18.0813 35.4547 14.5976 42.2109 14.5976 42.2109L22.551 46.1889C22.551 46.1889 22.7975 40.567 24.3914 36.7697C25.9525 32.9888 18.8372 33.63 18.8372 33.63Z" fill="#FFB9A4"/>
<path d="M23.0439 64.8959C22.5345 63.548 22.288 63.0877 20.8419 63.0055C19.3465 62.9233 17.8512 63.2192 16.3394 63.0877C14.121 62.8904 12.0669 62.2658 9.99636 61.4767C9.15829 61.1644 7.8437 65.4219 7.59721 67.5096C7.26855 70.4028 7.63007 71.4548 8.05732 74.2001C6.9399 76.9453 6.00323 82.0248 7.53146 85.7727C2.27302 91.6741 2.35518 96.3426 2.28945 98.9563C2.10869 106.058 3.94917 104.513 7.35073 101.488C9.25691 99.7947 15.7478 90.7042 16.9474 88.485C18.6235 85.4275 19.2973 83.2741 20.8584 80.1672C22.0579 77.7672 23.7012 75.285 24.1284 72.5891C24.5228 70.1069 23.9148 67.2137 23.0439 64.8959Z" fill="#67893B"/>
<path d="M25.6567 68.463C24.835 66.9671 13.1843 65.7835 13.3322 65.8493C12.7571 68.1507 9.48697 74.4631 14.4168 77.0768C14.5811 78.0959 17.8348 89.833 19.9874 93.7782C19.4945 96.3097 18.6728 97.0823 19.6424 100.386C18.6235 102.556 18.8207 109.723 19.9874 110.923C22.3702 113.389 26.1661 113.882 26.6426 108.77C26.9056 105.959 30.2085 93.2686 30.6029 87.8439C29.2226 79.5754 28.1544 73.0329 25.6567 68.463Z" fill="#7BA050"/>
<path d="M10.6866 68.0685C10.6866 68.0685 12.3298 70.7644 17.8183 71.422C23.2904 72.0795 26.2976 69.7453 26.2976 69.7453L25.6567 68.4795C25.6567 68.4795 19.6752 69.8439 15.9614 68.348C12.2477 66.8521 11.0481 66.5398 11.0481 66.5398L10.6866 68.0685Z" fill="#67893B"/>
<path d="M27.185 65.1917C27.6615 64.2711 24.6051 63.4985 24.6051 63.4985L23.8163 65.652C23.8163 65.652 26.2976 66.9506 27.185 65.1917Z" fill="#67893B"/>
<path d="M26.9877 45.0877C25.8374 44.3644 14.7619 38.4958 13.7431 39.0383C11.081 40.452 9.30629 45.3507 9.0105 48.4247C8.82974 50.4137 9.0762 59.7014 8.87901 61.3452C8.63252 61.7562 8.02454 62.7589 8.74757 63.3014C7.84378 64.2219 8.50108 64.7151 9.40487 65.6521C10.3415 66.6384 16.1422 69.7453 18.8043 69.7453C22.5345 69.7453 25.0158 69.696 25.9854 68.9727C26.6591 68.4631 26.3304 67.411 25.7224 66.9014C26.0675 64.9452 28.4338 61.8548 28.7625 60.0302C29.4362 56.2986 30.5043 53.6356 30.7015 49.8055C30.833 46.7972 29.1568 46.452 26.9877 45.0877Z" fill="#FFCF48"/>
<path d="M14.5811 39.2355C14.5811 39.2355 14.7948 39.9752 16.8982 41.0602C19.0015 42.1451 22.9453 43.1808 22.9453 43.1808V42.7369C22.9453 42.7369 20.7434 41.2574 18.4757 40.1396C16.208 39.0054 15.5014 39.1205 15.5014 39.1205L14.5811 39.2355Z" fill="#FFB30B"/>
<path d="M27.2507 31.4438C26.7906 29.1917 25.7553 27.2684 23.5369 26.7259C21.4336 26.2164 19.0508 27.1205 17.6376 28.8794C15.9122 31.0164 16.438 33.3835 17.9663 35.4548C18.87 36.6876 20.2339 37.789 21.187 38.2822C22.4359 38.9397 24.8515 39.9096 26.2483 37.9534C27.5301 36.1452 27.6779 33.4986 27.2507 31.4438Z" fill="#FFC9B6"/>
<path d="M18.4263 107.899C19.6259 108.984 21.9429 108.836 23.274 108.606C26.199 108.079 27.0863 107.274 27.6122 106.173C27.6779 107.553 27.7929 109.049 27.6615 111.055C27.4971 113.521 27.0535 115.954 27.1028 116.282C28.7625 115.707 30.34 114.803 31.7696 115.674C33.265 116.578 33.3801 117.959 33.0185 119.307C32.5256 119.948 31.5889 120.918 30.2579 121.559C28.401 122.447 26.0511 122.923 25.2459 123.055C24.0627 123.762 22.3866 124.321 21.1541 123.68C19.8888 123.006 19.248 122.447 19.6259 121.049C20.2504 118.699 19.9545 118.567 19.1329 114.638C18.6399 112.469 18.2456 110.299 18.4263 107.899Z" fill="#333333"/>
<path d="M0.942036 109.312C0.120402 105.532 1.04064 99.0384 1.89513 97C4.59009 97 8.09027 97.8712 9.865 99.2521C9.24055 101.488 9.02693 102.096 8.63254 103.707C8.40249 104.611 8.13955 105.515 7.84376 106.403C7.40007 107.751 7.51513 107.767 8.89547 107.734C10.9989 107.669 12.9543 108.08 12.9543 110.43C12.9543 111.022 11.6233 112.666 11.0646 113.011C8.09028 114.786 6.23335 113.964 5.01733 113.669C3.98208 114.556 1.58292 113.767 0.153275 112.452C-0.323273 111.992 0.416191 109.855 0.942036 109.312Z" fill="#333333"/>
<path d="M26.9385 27.8601C26.1661 27.7286 26.4619 27.0053 25.7553 26.5944C24.2106 25.6903 21.8937 25.493 20.1682 25.8546C16.6516 26.5944 14.5483 28.3861 15.9451 31.2135C15.6822 32.6601 16.8653 36.3752 16.5695 38.3149C19.1494 38.9067 21.0556 37.6081 21.7129 35.1423C23.1425 35.3889 25.8211 32.6272 25.1145 31.3615C27.7437 31.9533 27.8587 28.0245 26.9385 27.8601Z" fill="#191919"/>
<path d="M25.5252 33.0711C25.5252 33.0711 24.4078 31.5423 23.4219 33.4492C22.6167 35.0109 24.605 35.5863 24.605 35.5863L25.5252 33.0711Z" fill="#FFC9B6"/>
<path d="M22.6167 30.7863C22.6167 30.7863 25.2295 33.1205 29.3705 30.4246C33.5115 27.7287 29.8635 24.8191 26.9877 25.1807C24.112 25.5424 22.6167 26.9068 22.6167 26.9068V30.7863Z" fill="#7BA050"/>
<path d="M26.9384 27.8601C26.6098 24.1779 21.3514 22.1067 17.3253 24.9505C15.1234 26.5122 13.9237 29.7999 16.06 33.3177C16.553 34.7314 26.0675 34.2711 26.9384 27.8601Z" fill="#8AB262"/>
<path d="M19.6917 24.5231C19.8232 24.8026 19.5109 25.2464 18.9851 25.5094C18.4592 25.756 17.917 25.7396 17.7855 25.4437C17.6541 25.1642 17.9663 24.7204 18.4921 24.4574C19.018 24.2108 19.5603 24.2272 19.6917 24.5231Z" fill="#7BA050"/>
<path d="M45.9839 26.8408C45.0144 25.6573 44.5543 25.3121 43.5026 25.6573C42.9274 25.8381 42.3852 26.0189 42.4838 26.5943C42.4838 26.9559 42.6152 27.2518 42.4838 27.6298C42.3359 28.0901 41.8593 28.0244 41.432 27.9422C41.0705 28.5997 41.6786 29.1422 42.0729 30.1449C42.3359 30.8025 39.1972 35.882 38.7042 36.7368C37.6032 38.6765 37.1102 39.5149 37.1102 39.5149C37.1102 39.5149 32.4269 41.9971 30.6851 43.4108C29.2554 44.5615 28.6967 45.7286 28.6967 45.7286L31.0302 52.156C31.0302 52.156 32.8871 50.3478 35.8614 48.3752C36.3708 48.03 39.8381 45.7286 41.8265 42.9998C42.8124 42.3752 42.6645 42.3094 42.6645 41.619C43.5026 40.3039 43.6176 38.9888 44.4063 35.5367C44.7679 33.9586 45.5074 31.2628 45.5074 31.2628C47.7258 29.2737 46.7891 27.8271 45.9839 26.8408Z" fill="#FFC9B6"/>
<path d="M30.1593 43.0164C28.9597 43.4438 28.0395 43.8711 27.908 44.4794C25.6732 43.9698 24.4079 44.9232 23.1261 46.8794C21.1542 49.8876 21.0556 55.2958 24.605 57.1698C26.9385 58.4027 28.4174 57.5479 30.0278 54.441C30.8166 53.8657 31.6218 52.6 33.3472 51.2356C34.4811 47.6849 32.8871 44.167 30.1593 43.0164Z" fill="#FFB30B"/>
<path d="M30.7508 57.778C30.0771 58.715 29.9785 59.5698 30.5043 60.3588C31.0138 61.1479 33.3143 61.4109 33.3143 59.8822C33.988 59.6849 33.7416 59.0109 33.7416 58.4027C34.251 57.7451 34.0538 56.8575 33.5444 56.7753C32.0819 56.5451 31.441 56.8411 30.7508 57.778Z" fill="#FFC9B6"/>
<path d="M29.4197 56.9233C29.4197 56.9233 30.6687 55.8384 31.6053 55.937C32.542 56.0356 32.8706 56.9562 32.9035 57.7288C32.9363 58.5014 32.1969 58.4685 31.8846 57.9261C31.556 57.3836 31.556 57.3836 31.556 57.3836C31.556 57.3836 30.4879 58.6822 29.6827 58.3534C28.8939 58.0082 29.4197 56.9233 29.4197 56.9233Z" fill="#FFC9B6"/>
<path d="M21.1706 94.5508C21.1706 94.5508 22.4852 95.4056 23.7506 95.1919C25.0159 94.9782 25.5253 94.2713 25.5253 94.2713C25.5253 94.2713 24.1942 94.1234 23.3561 94.2713C22.5181 94.4193 21.1706 94.5508 21.1706 94.5508Z" fill="#67893B"/>
<path d="M21.6636 93.3837C21.6636 93.3837 23.4712 92.1015 24.2928 91.9043C25.1144 91.7235 25.7717 91.6084 25.7717 91.6084C25.7717 91.6084 24.7036 92.4467 23.9313 92.8248C23.1589 93.2194 21.6636 93.3837 21.6636 93.3837Z" fill="#67893B"/>
<path d="M9.76639 49.4932L8.32031 54.3754C8.32031 54.3754 8.27104 59.685 8.55039 61.4768C8.27104 62.1508 7.79447 62.2987 8.32031 63.1042C7.23576 63.1371 7.59729 64.2056 8.12313 65.0604C9.17482 66.8028 10.703 67.7234 12.4285 68.6275C14.1539 69.548 19.8396 70.9289 22.0251 70.3864C24.2107 69.8439 26.8892 69.2193 26.692 68.1672C26.4948 67.1151 26.5276 66.7699 26.5276 66.7699L27.185 65.1755C27.185 65.1755 24.8515 66.1453 22.0087 64.7809C20.2832 63.959 17.1447 60.0302 17.9992 53.5699C14.6798 52.6329 9.76639 49.4932 9.76639 49.4932Z" fill="#7BA050"/>
<path d="M16.1586 54.2602C16.3394 54.1451 17.3254 49.4766 19.018 46.1889C20.3819 43.5423 21.9758 42.3587 22.9289 42.5067C24.26 42.7204 24.6051 43.7724 24.6051 43.7724C24.6051 43.7724 23.0111 43.3779 21.4829 45.2848C19.9546 47.1916 17.917 53.5533 17.8841 54.8026C17.8677 56.0355 16.1586 54.2602 16.1586 54.2602Z" fill="#7BA050"/>
<path d="M15.9615 39.5314C15.5507 39.8931 14.4661 40.4849 13.2337 43.378C12.4449 45.2356 10.7852 51.0219 10.7852 51.0219L9.5856 50.1835C9.5856 50.1835 10.6373 45.9588 11.8533 43.1479C13.0529 40.3533 14.0718 39.3835 14.8605 38.8903C15.2878 38.6273 15.9779 38.7917 16.2409 38.9889C16.1258 39.2848 15.9615 39.5314 15.9615 39.5314Z" fill="#7BA050"/>
<path d="M16.8981 68.1014C16.8981 68.1014 18.7221 69.0877 20.3654 69.022C22.0086 68.9562 23.6026 68.1507 23.6026 68.1507C23.6026 68.1507 21.5486 67.8548 20.5955 68.0192C19.6424 68.1671 16.8981 68.1014 16.8981 68.1014Z" fill="#67893B"/>
</svg>
