<svg width="56" height="56" viewBox="0 0 56 56" fill="none" xmlns="http://www.w3.org/2000/svg">
<path fill-rule="evenodd" clip-rule="evenodd" d="M33.0699 18.0389C33.0699 24.0975 28.1121 28.9527 21.9255 28.9527C15.7411 28.9527 10.781 24.0975 10.781 18.0389C10.781 11.9802 15.7411 7.125 21.9255 7.125C28.1121 7.125 33.0699 11.9802 33.0699 18.0389ZM5.08325 41.3106C5.08325 35.7022 12.8418 34.299 21.9255 34.299C31.0585 34.299 38.7677 35.7505 38.7677 41.3633C38.7677 46.9718 31.0092 48.375 21.9255 48.375C12.7924 48.375 5.08325 46.9235 5.08325 41.3106ZM37.564 18.2367C37.564 21.322 36.6177 24.2009 34.9584 26.5923C34.7857 26.8382 34.9382 27.1698 35.2387 27.2225C35.6558 27.2906 36.0841 27.3323 36.5213 27.3411C40.8715 27.4531 44.7754 24.7104 45.8539 20.5798C47.4527 14.4509 42.7618 8.94786 36.7859 8.94786C36.1379 8.94786 35.5168 9.01373 34.9113 9.13451C34.8284 9.15208 34.7387 9.19161 34.6938 9.26188C34.6355 9.35191 34.6781 9.4683 34.7364 9.54515C36.5325 12.0112 37.564 15.0131 37.564 18.2367ZM44.7686 31.6511C47.6927 32.2111 49.6143 33.3508 50.4104 35.0131C51.0853 36.3746 51.0853 37.9557 50.4104 39.3172C49.1928 41.8908 45.2642 42.7187 43.7372 42.9317C43.421 42.9756 43.1676 42.7121 43.2013 42.4003C43.9816 35.2678 37.777 31.8861 36.1715 31.1087C36.1042 31.0714 36.0885 31.0187 36.0953 30.9835C36.0998 30.9616 36.1289 30.9264 36.1805 30.9198C39.6539 30.854 43.3896 31.3217 44.7686 31.6511Z" fill="url(#paint0_linear_334_1309)"/>
<defs>
<linearGradient id="paint0_linear_334_1309" x1="27.9999" y1="7.125" x2="27.9999" y2="48.375" gradientUnits="userSpaceOnUse">
<stop stop-color="#345FB3"/>
<stop offset="1" stop-color="#5DB9C6"/>
</linearGradient>
</defs>
</svg>
