<svg width="56" height="56" viewBox="0 0 56 56" fill="none" xmlns="http://www.w3.org/2000/svg">
<path fill-rule="evenodd" clip-rule="evenodd" d="M8.52075 23.895C8.52075 13.3537 17.3296 4.8335 27.9849 4.8335C38.6702 4.8335 47.4791 13.3537 47.4791 23.895C47.4791 29.207 45.5472 34.1385 42.3675 38.3184C38.8597 42.9291 34.5361 46.9462 29.6695 50.0995C28.5557 50.8282 27.5505 50.8832 26.328 50.0995C21.4337 46.9462 17.1101 42.9291 13.6323 38.3184C10.4503 34.1385 8.52075 29.207 8.52075 23.895ZM21.57 24.4885C21.57 28.0199 24.4516 30.7973 27.9849 30.7973C31.5205 30.7973 34.4298 28.0199 34.4298 24.4885C34.4298 20.9847 31.5205 18.0721 27.9849 18.0721C24.4516 18.0721 21.57 20.9847 21.57 24.4885Z" fill="url(#paint0_linear_334_1350)"/>
<defs>
<linearGradient id="paint0_linear_334_1350" x1="27.9999" y1="4.8335" x2="27.9999" y2="50.6668" gradientUnits="userSpaceOnUse">
<stop stop-color="#3D6FB7"/>
<stop offset="1" stop-color="#53A3C2"/>
</linearGradient>
</defs>
</svg>
