<svg width="55" height="56" viewBox="0 0 55 56" fill="none" xmlns="http://www.w3.org/2000/svg">
<path fill-rule="evenodd" clip-rule="evenodd" d="M37.6083 6.59491L37.6105 8.3128C43.9233 8.80755 48.0933 13.1091 48.1001 19.7058L48.125 39.0149C48.134 46.2072 43.6156 50.6324 36.3729 50.6439L18.6814 50.6668C11.484 50.676 6.90896 46.1453 6.89991 38.9325L6.87502 19.8502C6.86597 13.2099 10.8889 8.91979 17.2016 8.34029L17.1994 6.6224C17.1971 5.61457 17.9438 4.85641 18.9393 4.85641C19.9349 4.85412 20.6816 5.60999 20.6838 6.61782L20.6861 8.22118L34.1261 8.20286L34.1238 6.59949C34.1216 5.59167 34.8682 4.83579 35.8638 4.8335C36.8367 4.83121 37.606 5.58708 37.6083 6.59491ZM10.3617 20.5579L44.6179 20.5121V19.7104C44.5206 14.7858 42.0498 12.2021 37.6151 11.8173L37.6173 13.581C37.6173 14.5659 36.8503 15.347 35.8774 15.347C34.8818 15.3493 34.1329 14.5705 34.1329 13.5856L34.1306 11.7303L20.6906 11.7486L20.6929 13.6016C20.6929 14.5888 19.9485 15.3676 18.9529 15.3676C17.9574 15.3699 17.2084 14.5934 17.2084 13.6062L17.2062 11.8425C12.7941 12.2846 10.3527 14.8774 10.3595 19.8456L10.3617 20.5579ZM34.9248 30.9683V30.9935C34.9474 32.0472 35.8072 32.8466 36.8503 32.8237C37.8685 32.7985 38.6808 31.9258 38.6581 30.8721C38.6106 29.8643 37.7938 29.042 36.7779 29.0443C35.7371 29.0672 34.9225 29.9147 34.9248 30.9683ZM36.7937 41.2528C35.7529 41.2299 34.9135 40.3618 34.9112 39.3081C34.8886 38.2545 35.7235 37.3818 36.7643 37.3566H36.7869C37.8504 37.3566 38.7124 38.2247 38.7124 39.3012C38.7147 40.3778 37.8549 41.2505 36.7937 41.2528ZM25.6028 31.005C25.648 32.0586 26.5101 32.8809 27.5509 32.8351C28.5691 32.787 29.3814 31.9166 29.3361 30.863C29.3112 29.8322 28.4741 29.0306 27.4559 29.0328C26.4151 29.0787 25.6005 29.9513 25.6028 31.005ZM27.56 41.1497C26.5192 41.1955 25.6594 40.3732 25.6118 39.3196C25.6118 38.2659 26.4241 37.3955 27.4649 37.3474C28.4831 37.3451 29.3225 38.1468 29.3452 39.1753C29.3927 40.2312 28.5781 41.1016 27.56 41.1497ZM16.2808 31.0852C16.326 32.1388 17.1881 32.9634 18.2289 32.9153C19.2471 32.8695 20.0594 31.9968 20.0118 30.9431C19.9892 29.9124 19.152 29.1107 18.1316 29.113C17.0908 29.1588 16.2785 30.0315 16.2808 31.0852ZM18.2379 41.1611C17.1971 41.2093 16.3373 40.3847 16.2898 39.331C16.2876 38.2774 17.1021 37.4047 18.1429 37.3589C19.1611 37.3566 20.0005 38.1583 20.0232 39.189C20.0707 40.2426 19.2584 41.1153 18.2379 41.1611Z" fill="url(#paint0_linear_334_1465)"/>
<defs>
<linearGradient id="paint0_linear_334_1465" x1="27.5" y1="4.8335" x2="27.5" y2="50.6668" gradientUnits="userSpaceOnUse">
<stop stop-color="#437BBA"/>
<stop offset="1" stop-color="#4E95C0"/>
</linearGradient>
</defs>
</svg>
