<svg width="56" height="56" viewBox="0 0 56 56" fill="none" xmlns="http://www.w3.org/2000/svg">
<path fill-rule="evenodd" clip-rule="evenodd" d="M27.9999 50.6668C15.3499 50.6668 5.08325 40.4231 5.08325 27.7502C5.08325 15.1002 15.3499 4.8335 27.9999 4.8335C40.6728 4.8335 50.9166 15.1002 50.9166 27.7502C50.9166 40.4231 40.6728 50.6668 27.9999 50.6668ZM35.3103 36.2522C35.5853 36.4127 35.8832 36.5043 36.2041 36.5043C36.777 36.5043 37.3499 36.2064 37.6707 35.6564C38.152 34.8543 37.8999 33.8002 37.0749 33.296L28.9166 28.4377V17.8502C28.9166 16.8877 28.1374 16.1314 27.1978 16.1314C26.2583 16.1314 25.4791 16.8877 25.4791 17.8502V29.4231C25.4791 30.0189 25.7999 30.5689 26.327 30.8897L35.3103 36.2522Z" fill="url(#paint0_linear_334_1367)"/>
<defs>
<linearGradient id="paint0_linear_334_1367" x1="27.9999" y1="4.8335" x2="27.9999" y2="50.6668" gradientUnits="userSpaceOnUse">
<stop stop-color="#4177B9"/>
<stop offset="1" stop-color="#509BC1"/>
</linearGradient>
</defs>
</svg>
