<svg width="56" height="56" viewBox="0 0 56 56" fill="none" xmlns="http://www.w3.org/2000/svg">
<path fill-rule="evenodd" clip-rule="evenodd" d="M47.2552 31.371C48.0749 31.8064 48.7072 32.4939 49.1522 33.1814C50.0188 34.6022 49.9485 36.3439 49.1054 37.8793L47.466 40.6293C46.5995 42.096 44.9835 43.0127 43.3207 43.0127C42.501 43.0127 41.5876 42.7835 40.8382 42.3252C40.2293 41.9356 39.5267 41.7981 38.7772 41.7981C36.4587 41.7981 34.5148 43.7002 34.4445 45.9689C34.4445 48.6043 32.2899 50.6668 29.5966 50.6668H26.4115C23.6948 50.6668 21.5402 48.6043 21.5402 45.9689C21.4934 43.7002 19.5495 41.7981 17.231 41.7981C16.4581 41.7981 15.7555 41.9356 15.17 42.3252C14.4206 42.7835 13.4838 43.0127 12.6875 43.0127C11.0013 43.0127 9.3853 42.096 8.51877 40.6293L6.9028 37.8793C6.03626 36.3897 5.98942 34.6022 6.85596 33.1814C7.23068 32.4939 7.93327 31.8064 8.72955 31.371C9.3853 31.0502 9.80686 30.5231 10.205 29.9043C11.376 27.9335 10.6734 25.3439 8.68271 24.1752C6.36414 22.8689 5.61471 19.9585 6.94964 17.6897L8.51877 14.9856C9.87712 12.7168 12.7812 11.9147 15.1232 13.2439C17.1607 14.3439 19.8071 13.6106 21.0016 11.6627C21.3763 11.021 21.587 10.3335 21.5402 9.646C21.4934 8.75225 21.751 7.90433 22.196 7.21683C23.0625 5.796 24.6316 4.87933 26.3413 4.8335H29.6435C31.3765 4.8335 32.9457 5.796 33.8122 7.21683C34.2338 7.90433 34.5148 8.75225 34.4445 9.646C34.3977 10.3335 34.6085 11.021 34.9832 11.6627C36.1776 13.6106 38.8241 14.3439 40.885 13.2439C43.2036 11.9147 46.1311 12.7168 47.466 14.9856L49.0351 17.6897C50.3935 19.9585 49.644 22.8689 47.302 24.1752C45.3114 25.3439 44.6088 27.9335 45.8032 29.9043C46.1779 30.5231 46.5995 31.0502 47.2552 31.371ZM21.3763 27.7731C21.3763 31.371 24.3506 34.2356 28.0275 34.2356C31.7044 34.2356 34.6085 31.371 34.6085 27.7731C34.6085 24.1752 31.7044 21.2877 28.0275 21.2877C24.3506 21.2877 21.3763 24.1752 21.3763 27.7731Z" fill="url(#paint0_linear_334_1333)"/>
<defs>
<linearGradient id="paint0_linear_334_1333" x1="27.9998" y1="4.8335" x2="27.9998" y2="50.6668" gradientUnits="userSpaceOnUse">
<stop stop-color="#3968B5"/>
<stop offset="1" stop-color="#5AB2C5"/>
</linearGradient>
</defs>
</svg>
