<svg width="704" height="569" viewBox="0 0 704 569" fill="none" xmlns="http://www.w3.org/2000/svg">
<path opacity="0.5" d="M352 568.01C546.404 568.01 704 477.019 704 364.775C704 252.531 546.404 161.54 352 161.54C157.596 161.54 0 252.531 0 364.775C0 477.019 157.596 568.01 352 568.01Z" fill="#474747" fill-opacity="0.56"/>
<path d="M352 506.994C546.404 506.994 704 416.003 704 303.759C704 191.515 546.404 100.523 352 100.523C157.596 100.523 0 191.515 0 303.759C0 416.003 157.596 506.994 352 506.994Z" fill="#FEFEFE"/>
<path d="M93.0042 354.921C83.4065 354.921 73.7805 352.798 66.4761 348.579C59.1433 344.36 55.123 338.641 55.123 332.525C55.123 326.409 59.1433 320.718 66.4761 316.471C81.1132 308.034 104.923 308.034 119.561 316.471C126.893 320.69 130.914 326.409 130.914 332.525C130.914 338.641 126.893 344.332 119.561 348.579C112.228 352.826 102.63 354.921 93.0042 354.921ZM93.0042 312.621C83.8312 312.621 74.6865 314.631 67.6935 318.651C61.1818 322.417 57.5862 327.344 57.5862 332.553C57.5862 337.735 61.1818 342.69 67.6935 346.455C81.6512 354.525 104.329 354.525 118.287 346.455C124.798 342.69 128.394 337.763 128.394 332.553C128.394 327.372 124.798 322.417 118.287 318.651C111.35 314.631 102.177 312.621 93.0042 312.621Z" fill="#3D3838"/>
<path d="M309.929 473.442C294.924 473.442 281.249 469.167 271.142 460.899C266.669 457.247 263.498 452.716 260.1 447.903C253.419 438.39 246.511 428.565 228.759 425.564C228.08 425.45 227.627 424.799 227.74 424.148C227.853 423.468 228.504 423.015 229.156 423.129C247.926 426.3 255.457 437.031 262.11 446.487C265.395 451.159 268.481 455.548 272.671 458.974C287.251 470.866 309.674 474.15 332.692 467.723C353.246 462.003 366.354 454.217 383.002 444.364C404.037 431.906 430.226 416.39 482.857 399.034C488.265 397.25 494.72 396.231 501.543 395.155C521.163 392.069 543.388 388.558 549.758 365.142C554.599 347.305 541.689 312.79 528.864 300.984C517.058 290.14 500.524 283.118 479.743 280.173C479.063 280.088 478.582 279.437 478.695 278.757C478.78 278.078 479.431 277.597 480.111 277.71C501.401 280.739 518.388 287.959 530.562 299.143C543.841 311.346 557.204 347.192 552.164 365.765C545.398 390.738 522.295 394.39 501.939 397.59C495.201 398.637 488.859 399.657 483.65 401.356C431.273 418.655 405.226 434.086 384.276 446.459C367.487 456.397 354.237 464.24 333.371 470.073C325.444 472.338 317.517 473.442 309.929 473.442Z" fill="#3D3838"/>
<path d="M388.975 443.769C355.907 443.769 332.04 431.821 308.853 420.212C292.63 412.086 277.314 404.413 259.081 400.563C244.642 397.505 229.127 397.845 214.094 398.156C190.623 398.666 166.332 399.175 146.429 386.463C135.897 379.724 126.016 362.651 128.677 348.89C130.093 341.585 130.8 331.647 126.242 325.673C125.818 325.135 125.931 324.342 126.469 323.946C127.007 323.521 127.799 323.635 128.196 324.173C133.32 330.883 132.612 341.585 131.112 349.372C128.875 360.924 136.661 377.289 147.759 384.367C167.04 396.684 189.859 396.174 214.037 395.664C229.212 395.353 244.869 395.013 259.591 398.128C278.135 402.063 294.301 410.161 309.957 417.976C337.505 431.764 366.043 446.034 409.869 439.749C413.578 439.211 417.344 438.531 420.996 437.852C428.753 436.436 436.737 434.936 444.806 434.907C452.111 434.936 458.566 436.493 464.766 438.078C472.806 440.117 480.394 442.042 489.312 440.258C502.987 437.54 507.63 433.378 513.009 428.537C517.312 424.686 522.21 420.297 532.318 416.022C535.998 414.465 540.217 413.106 544.662 411.662C561.196 406.282 579.966 400.195 582.911 381.649C586.733 357.441 570.369 345.861 549.645 331.194C530.449 317.604 506.554 300.729 491.492 268.281C486.962 258.513 472.212 256.984 463.832 256.899C463.152 256.899 462.586 256.333 462.586 255.654C462.586 254.974 463.152 254.408 463.832 254.408C472.806 254.464 488.633 256.22 493.757 267.205C508.536 299.03 532.12 315.707 551.088 329.127C572.52 344.275 589.422 356.252 585.374 381.989C582.203 402.035 561.819 408.66 545.454 413.983C541.038 415.427 536.876 416.758 533.309 418.287C523.569 422.393 519.039 426.441 514.679 430.377C509.017 435.445 504.148 439.834 489.793 442.693C480.309 444.59 472.467 442.58 464.143 440.485C458.084 438.956 451.884 437.286 444.806 437.399C436.964 437.455 429.065 438.899 421.449 440.315C417.768 440.995 413.975 441.702 410.209 442.24C402.707 443.288 395.657 443.769 388.975 443.769Z" fill="#3D3838"/>
<path d="M230.09 459.625C222.304 459.625 214.546 457.926 208.601 454.5C202.627 451.046 199.343 446.403 199.343 441.391C199.343 436.379 202.627 431.736 208.601 428.282C220.435 421.458 239.716 421.458 251.55 428.282C257.524 431.736 260.808 436.379 260.808 441.391C260.808 446.403 257.524 451.074 251.55 454.5C245.633 457.898 237.847 459.625 230.09 459.625ZM230.09 425.564C222.757 425.564 215.424 427.178 209.847 430.405C204.666 433.378 201.834 437.286 201.834 441.363C201.834 445.44 204.694 449.347 209.847 452.32C221.002 458.776 239.149 458.776 250.304 452.32C255.485 449.347 258.316 445.44 258.316 441.363C258.316 437.286 255.457 433.378 250.304 430.405C244.727 427.178 237.394 425.564 230.09 425.564Z" fill="#3D3838"/>
<path d="M244.783 427.857C244.642 427.857 244.472 427.829 244.33 427.772C233.912 423.724 235.667 413.955 238.753 404.895C239.687 402.177 240.82 399.317 241.896 396.542C243.594 392.239 245.35 387.794 246.369 383.773C246.539 383.093 247.218 382.725 247.869 382.867C248.521 383.037 248.945 383.716 248.775 384.368C247.7 388.53 245.916 393.06 244.189 397.42C243.113 400.167 241.981 402.97 241.075 405.659C237.139 417.211 238.3 422.733 245.208 425.422C245.859 425.677 246.171 426.385 245.916 427.036C245.746 427.546 245.293 427.857 244.783 427.857Z" fill="#3D3838"/>
<g opacity="0.6">
<path opacity="0.6" d="M559.383 303.872L200.221 157.15C200.221 157.15 192.605 161.256 181.931 167.287L157.13 157.15C157.13 157.15 73.4123 202.367 70.666 212.787C68.0614 222.725 92.0131 235.664 92.0131 235.664L347.328 383.178C358.455 389.747 371.45 392.805 384.615 393.23L437.105 393.088C453.413 392.125 469.324 387.397 481.526 380.432C555.845 337.99 584.949 323.436 559.383 303.872Z" fill="#62575B"/>
<path opacity="0.6" d="M182.894 323.068C184.989 320.379 184.904 317.236 182.752 314.574C181.054 312.451 175.646 309.365 173.013 308.713C153.421 303.928 144.645 302.06 126.016 302.711C64.4658 304.806 61.2666 329.722 73.4123 337.876C85.5298 346.031 101.611 347.276 104.046 347.276C117.72 347.248 131.112 339.519 143.739 335.158C164.944 327.797 176.297 331.562 182.894 323.068Z" fill="#62575B"/>
<path opacity="0.6" d="M182.582 320.124L143.71 342.576C142.351 343.369 142.351 345.294 143.71 346.087L164.774 358.262C165.992 358.97 167.351 359.31 168.738 359.31H185.782L182.582 320.124Z" fill="#62575B"/>
<path opacity="0.6" d="M607.032 265.79L568.16 288.243C566.801 289.036 566.801 290.961 568.16 291.754L589.224 303.929C590.441 304.636 591.8 304.976 593.188 304.976H610.231L607.032 265.79Z" fill="#62575B"/>
<path opacity="0.6" d="M623.566 324.144H616.743L604.852 317.292L620.537 312.536L623.566 319.388V324.144Z" fill="#62575B"/>
<path opacity="0.6" d="M604.937 315.084H578.862C577.107 315.084 576.484 317.406 578.013 318.255L587.412 323.663C588.29 324.173 589.281 324.428 590.272 324.428H609.042L604.937 315.084Z" fill="#62575B"/>
<path opacity="0.6" d="M238.3 420.496C235.186 421.288 231.732 422.421 230.259 425.281C228.872 427.942 229.778 431.368 231.732 433.633C233.685 435.898 236.545 437.229 239.376 438.22C242.207 439.211 245.151 439.975 247.784 441.419C250.078 442.665 252.059 444.364 254.239 445.78C260.779 450.083 268.707 451.697 276.464 452.858C286.77 454.415 297.16 455.35 307.579 455.69C308.824 455.718 310.098 455.746 311.231 455.265C313.269 454.359 314.26 452.065 315.025 449.942C315.223 449.432 315.421 448.866 315.364 448.328C315.166 446.573 312.873 446.12 311.118 446.12C306.843 446.148 302.511 446.261 298.349 445.298C294.187 444.307 290.11 442.042 288.015 438.305C286.288 435.247 286.033 431.595 285.071 428.197C283.91 424.12 281.673 420.241 278.899 417.07C276.153 413.927 270.547 415.512 266.64 415.824C257.099 416.617 247.586 418.174 238.3 420.496Z" fill="#62575B"/>
</g>
<path d="M644.97 257.352C644.97 258.202 644.432 259.023 643.299 259.674L618.697 273.888C617.96 274.312 617.083 274.595 616.149 274.709C614.28 274.992 612.213 274.737 610.769 273.888L574.502 252.766C573.426 252.143 572.888 251.322 572.888 250.472V277.483C572.888 278.304 573.426 279.126 574.53 279.777L610.798 300.899C611.93 301.55 613.431 301.861 614.931 301.833C615.356 301.833 615.752 301.805 616.177 301.748C617.139 301.607 618.017 301.323 618.753 300.899L643.356 286.685C644.46 286.034 645.026 285.213 645.026 284.364L644.97 257.352Z" fill="url(#paint0_linear_331_3824)"/>
<path d="M571.784 243.365C569.434 244.724 569.406 246.933 571.756 248.292L611.222 271.254C613.544 272.613 617.366 272.613 619.716 271.254L646.046 256.05C648.396 254.691 648.424 252.482 646.074 251.123L606.608 228.161C604.286 226.802 600.464 226.802 598.114 228.161L571.784 243.365Z" fill="#FFD742"/>
<path d="M647.801 253.558C647.801 254.464 647.207 255.37 646.017 256.05L619.688 271.254C618.951 271.679 618.045 271.962 617.111 272.132C615.073 272.472 612.808 272.189 611.194 271.283L571.727 248.32C570.567 247.641 570 246.763 569.972 245.885V249.708C569.972 250.585 570.567 251.463 571.727 252.143L611.194 275.105C612.496 275.869 614.252 276.153 615.95 276.039C617.309 276.011 618.64 275.7 619.688 275.077L646.017 259.872C647.207 259.193 647.801 258.287 647.801 257.381V253.558Z" fill="url(#paint1_linear_331_3824)"/>
<path d="M642.846 251.265L606.013 229.832C603.918 228.614 600.492 228.614 598.369 229.832L574.672 243.507C572.548 244.725 572.548 246.707 574.643 247.952L611.477 269.386C613.572 270.603 616.998 270.603 619.121 269.386L642.818 255.71C644.942 254.464 644.97 252.483 642.846 251.265Z" fill="url(#paint2_linear_331_3824)"/>
<path d="M611.477 269.386L596.727 260.778L598.369 259.815C600.492 258.598 603.918 258.598 606.013 259.815L620.763 268.423L619.121 269.386C616.998 270.603 613.572 270.603 611.477 269.386Z" fill="#FFD742"/>
<path opacity="0.7" d="M611.477 269.386L575.55 248.49L598.397 235.296C600.521 234.078 603.946 234.078 606.041 235.296L641.969 256.191L619.121 269.386C616.998 270.603 613.572 270.603 611.477 269.386Z" fill="#90A6BF"/>
<path d="M593.697 231.615L623.793 214.231C623.963 214.146 624.104 214.202 624.161 214.231C624.218 214.259 624.359 214.372 624.359 214.57V238.495L626.681 239.854V214.599C626.681 213.608 626.171 212.73 625.322 212.249C624.472 211.767 623.453 211.767 622.632 212.249L592.537 229.633C590.158 230.992 588.686 233.541 588.686 236.287V262.647C588.686 263.072 588.913 263.44 589.281 263.666C589.451 263.779 589.649 263.808 589.875 263.808C590.102 263.808 590.272 263.751 590.47 263.666L592.112 262.732C592.678 262.42 592.848 261.684 592.537 261.146C592.225 260.637 591.602 260.438 591.065 260.665V236.287C591.008 234.333 592.027 232.55 593.697 231.615Z" fill="#E2E2E2"/>
<path d="M488.859 278.814C490.02 276.889 494.408 275.275 498.711 273.576C503.043 271.849 509.158 269.272 509.413 268.65C509.64 268.14 509.527 267.489 509.895 267.092C510.121 266.838 510.461 266.781 510.801 266.696C513.858 266.13 517.086 266.583 519.889 267.942C521.191 268.565 522.692 271.198 522.692 271.198C522.55 272.84 522.805 278.191 522.465 278.842C522.465 278.842 515.982 281.476 515.642 281.589C515.019 281.815 514.821 281.051 514.283 281.023C509.498 283.458 503.411 285.524 500.637 285.893C497.437 286.317 490.275 287.563 488.576 283.854C487.84 282.268 487.981 280.286 488.859 278.814Z" fill="#191619"/>
<path d="M488.576 282.127C490.275 285.836 497.437 284.619 500.637 284.166C503.411 283.797 522.72 276.04 522.72 276.04C522.918 278.022 522.663 278.758 522.437 279.154C522.437 279.154 515.953 281.787 515.614 281.9C514.991 282.127 514.793 281.702 514.255 281.674C509.47 284.109 503.383 285.836 500.608 286.204C497.409 286.629 490.02 287.875 488.321 284.166C487.868 283.203 487.783 281.985 488.123 280.825C488.236 281.221 488.406 281.759 488.576 282.127Z" fill="#E58D2E"/>
<path d="M574.332 307.128C570.057 310.639 563.8 309.761 561.62 307.751C558.506 304.891 563.913 296.708 564.508 286.883C564.536 286.289 564.225 281.56 564.479 281.419C567.934 279.409 576.71 276.152 579.032 279.125C579.909 280.23 579.626 284.307 579.655 285.609C579.938 294.018 580.362 302.173 574.332 307.128Z" fill="#191619"/>
<path d="M561.111 305.429C563.291 307.411 569.548 308.289 573.823 304.806C579.881 299.851 579.428 291.697 579.145 283.288C579.117 282.58 579.174 281.136 579.117 279.749C579.881 280.966 579.627 284.817 579.683 286.119C579.966 294.5 580.419 302.683 574.361 307.637C570.085 311.148 563.829 310.271 561.649 308.26C560.828 307.524 560.544 306.278 560.658 304.834C560.771 305.004 560.941 305.287 561.111 305.429Z" fill="#E58D2E"/>
<path d="M563.885 193.335C564.848 203.557 566.065 213.636 566.688 222.045C566.801 223.688 566.943 225.358 567.339 226.972C567.735 228.643 568.415 230.228 569.066 231.814C573.964 244.243 577.899 267.149 579.909 280.258C580.617 284.873 565.272 287.45 563.857 282.07C563.404 280.315 556.949 258.032 553.834 249.821C551.909 244.696 548.342 238.156 547.068 233.682C545.964 229.775 538.008 202.339 534.441 193.42C533.28 190.476 532.006 187.503 531.836 184.332L559.808 174.479C561.28 178.018 563.489 186.795 563.885 193.335Z" fill="#211921"/>
<path d="M535.885 219.497C535.573 221.394 535.375 228.387 533.677 236.032C530.534 250.274 525.126 268.395 524.617 271.537C523.909 275.983 507.205 273.236 508.083 268.338C508.083 268.338 514.028 217.43 514.085 216.637C514.226 214.74 514.396 212.843 514.396 210.918C514.396 208.398 514.594 205.17 514.764 202.65C515.472 191.919 515.925 182.123 516.944 173.431C524.815 173.77 540.726 187.134 541.179 192.033C541.377 194.298 542.312 196.676 541.859 198.885C540.386 205.935 537.046 212.39 535.885 219.497Z" fill="#211921"/>
<path d="M558.959 165.73C559.667 168.872 562.187 175.951 561.564 179.207C560.176 186.455 541.491 187.729 531.723 185.153C523.456 183.001 517.511 181.302 516.52 175.668C516.321 174.592 518.615 147.241 518.558 144.409C518.332 135.434 517.143 125.184 516.774 121.192C515.868 111.65 516.576 115.671 521.078 108.111C521.701 107.064 522.409 106.044 523.428 105.393C524.362 104.799 526.684 103.326 527.816 103.298C535.12 103.1 563.121 114.623 564.536 115.728C567.084 117.766 567.226 121.192 567.254 124.477C567.283 127.761 566.348 130.932 565.414 134.075C562.045 145.4 556.949 153.753 558.959 165.73Z" fill="#FFD940"/>
<path d="M560.827 194.836L564.961 199.451C565.074 199.564 565.187 199.621 565.301 199.734C565.612 199.904 565.895 200.017 566.207 200.046L570.906 200.385C571.812 200.442 572.718 200.838 573.596 201.518L574.304 202.056C574.615 202.311 574.927 202.594 575.266 202.962L584.213 212.985C585.487 214.401 586.025 217.062 585.43 218.874L582.458 227.142C582.09 227.821 581.58 228.218 580.985 228.331C580.985 228.359 578.013 228.954 578.013 228.954C577.446 229.067 576.824 228.897 576.229 228.416L575.521 227.878C575.38 227.765 575.238 227.623 575.097 227.453L564.791 215.958C564.423 215.533 564.055 215.024 563.743 214.486L560.488 208.795C559.865 207.69 559.157 206.699 558.393 205.878L554.372 201.376L560.827 194.836Z" fill="white"/>
<path d="M546.162 199.281L548.399 198.828L550.013 200.669L547.776 201.093L546.162 199.281Z" fill="#F1B527"/>
<path d="M549.984 191.466C550.324 190.9 550.777 190.56 551.287 190.447L554.967 189.711C554.457 189.824 554.004 190.164 553.665 190.73L548.427 198.856L546.19 199.309L549.984 191.466Z" fill="#FFD742"/>
<path d="M553.636 190.702C554.457 189.315 555.901 189.286 557.09 190.645L560.969 194.977L558.874 201.15L554.995 202.084L552.334 199.309L550.012 200.668L548.399 198.856L553.636 190.702Z" fill="#DC9A11"/>
<path d="M552.249 193.93C554.118 193.421 554.627 193.364 555.845 192.288C556.694 191.524 559.412 189.57 559.412 189.4C564.055 175.696 570.538 159.02 570.453 158.85C569.349 155.48 563.206 145.882 558.959 136.114C559.921 135.378 560.856 134.641 561.818 133.877C564.508 131.81 567.651 129.885 570.595 127.818L580.108 152.337C580.929 154.433 581.92 156.585 581.665 158.821C581.042 164.371 578.381 170.571 575.889 174.875C572.775 180.226 568.868 186.229 565.527 192.911C565.357 193.251 564.734 197.186 564.508 198.744C564.338 199.848 564.197 200.98 563.687 201.971C563.234 202.906 560.261 205.369 558.676 205.85C557.798 206.105 556.779 205.85 556.071 205.256C555.788 205.001 555.59 204.689 555.335 204.406C554.712 203.783 553.778 203.613 553.042 203.132C552.73 202.934 552.475 202.679 552.221 202.424C551.711 201.943 550.579 201.235 550.833 200.357C551.032 199.706 551.853 199.395 552.419 199.14C553.523 198.63 555.93 196.762 555.901 196.054C555.307 195.346 550.267 197.696 549.531 195.487C549.248 194.723 549.984 194.553 552.249 193.93Z" fill="#FCBE9F"/>
<path d="M561.903 146.137C559.299 140.502 556.071 133.792 555.052 127.648C554.599 124.873 554.457 121.929 555.505 119.324C556.552 116.719 559.044 114.992 561.224 114.992C562.47 114.992 563.8 115.416 564.876 116.068C568.613 118.361 574.502 133.735 576.229 138.407C577.786 142.682 563.036 148.6 561.903 146.137Z" fill="#FFD940"/>
<path d="M490.105 131.13C489.567 130.819 488.859 130.875 488.066 131.328L473.146 140.077C471.561 140.983 470.258 143.22 470.287 145.06L470.23 152.705C470.23 153.611 470.57 154.262 471.079 154.574L472.552 155.423C472.042 155.112 471.702 154.489 471.702 153.555L471.759 145.91C471.759 144.069 473.033 141.833 474.618 140.927L489.539 132.178C490.331 131.725 491.067 131.668 491.577 131.98L490.105 131.13Z" fill="#494443"/>
<path d="M489.539 132.178C491.124 131.272 492.426 132.008 492.426 133.848L492.37 141.493C492.37 143.333 491.096 145.57 489.51 146.476L474.59 155.225C473.005 156.131 471.702 155.395 471.702 153.554L471.759 145.91C471.759 144.069 473.033 141.833 474.618 140.926L489.539 132.178Z" fill="#383534"/>
<path d="M483.989 144.494C483.253 142.427 479.941 144.353 481.045 146.25C481.073 146.278 483.678 150.752 482.376 155.621C481.555 158.708 479.29 161.341 475.638 163.408C474.816 163.889 474.562 164.908 474.986 165.729C475.977 167.683 477.421 167.4 477.676 167.258C482.178 164.71 484.612 160.491 485.688 156.471C487.359 150.242 484.074 144.749 483.989 144.494Z" fill="#302C26"/>
<path d="M246.174 44.1673L125.595 113.791L149.674 155.498L270.253 85.8751L246.174 44.1673Z" fill="#8BCCA2"/>
<path d="M247.594 45.242L127.015 114.865L151.094 156.573L271.673 86.9499L247.594 45.242Z" fill="#AA7755"/>
<path d="M486.113 168.419L445.457 112.188C443.221 107.885 439.993 104.26 436.539 102.25L260.723 1.11389C258.486 -0.18854 256.561 0.490987 256.08 2.72776V4.34164L256.618 5.13442L233.685 85.347L148.665 134.415L343.733 263.695C343.733 263.695 511.565 214.117 526.287 199.536L486.113 168.419ZM411.341 126.345L396.421 86.0265L437.473 108.819L473.316 160.718L411.341 126.345Z" fill="#AA7755"/>
<path d="M279.55 113.491C278.191 106.412 277.399 98.9094 276.323 91.4346C248.322 107.772 208.233 130.139 182.639 147.949L188.641 191.184L284.278 135.972C282.58 128.497 280.994 121.022 279.55 113.491Z" fill="#AA7755"/>
<path d="M283.146 91.1799C283.287 91.2365 302.511 71.8134 302.511 71.8134L252.286 54.7402L133.575 123.259L171.739 155.48L283.146 91.1799Z" fill="#EAB88C"/>
<path d="M253.135 229.18L213.244 206.133V186.54L253.135 209.587V229.18Z" fill="#2D2B2A"/>
<path d="M348.433 174.139L253.135 229.181V209.588L348.433 154.546V174.139Z" fill="#383534"/>
<path d="M253.135 209.588L213.244 186.54L308.57 131.527L348.433 154.546L253.135 209.588Z" fill="#2B2B2B"/>
<path d="M354.435 152.875C354.265 152.054 354.01 151.205 353.671 150.327C353.586 150.129 353.529 149.959 353.444 149.789C352.878 148.487 352.113 147.354 351.207 146.307C349.282 144.098 346.621 142.371 343.507 140.559C341.581 139.455 339.515 138.322 337.278 137.048C331.559 133.735 313.553 124.25 307.862 121.277C307.296 120.994 306.786 120.966 306.39 121.193L209.592 177.254L256.108 214.288L352.906 158.227C354.265 157.462 354.973 155.594 354.435 152.875Z" fill="url(#paint3_linear_331_3824)"/>
<path d="M257.637 208.937C257.467 208.115 257.212 207.266 256.873 206.388C255.174 202 251.493 199.395 246.709 196.62C244.783 195.516 242.717 194.383 240.48 193.109C234.761 189.797 216.755 180.311 211.064 177.339C209.932 176.744 208.997 177.282 208.941 178.556C208.573 186.144 212.112 189.966 216.896 192.713C220.803 194.978 228.957 198.545 233.062 200.924C240.395 205.143 246.794 210.041 250.418 213.014C250.842 213.353 251.239 213.637 251.635 213.863C255.429 216.072 258.628 213.891 257.637 208.937Z" fill="#C18C68"/>
<path d="M315.874 107.489C308.57 70.228 312.76 69.8316 310.835 62.5833C310.693 62.0736 310.523 61.5923 310.325 61.1393C309.9 60.1766 309.334 59.2706 308.655 58.5061C307.975 57.7417 307.211 57.1188 306.39 56.6374C304.974 55.8163 303.559 55.5332 302.596 56.0711L205.798 112.132L220.237 181.387L317.035 125.326C317.233 125.213 317.375 124.958 317.375 124.618C317.375 121.023 317.375 114.935 315.874 107.489Z" fill="url(#paint4_linear_331_3824)"/>
<path d="M219.105 163.55C211.8 126.289 215.99 125.892 214.065 118.644C213.386 116.124 211.687 113.887 209.62 112.67C207.27 111.311 204.921 111.424 204.722 114.34C203.986 126.997 207.016 147.411 208.29 161.454C208.714 165.985 209.337 170.628 209.167 174.365C209.139 175.073 209.62 175.951 210.243 176.319L219.501 181.274C220.096 181.614 220.605 181.331 220.605 180.623C220.605 177.055 220.577 170.996 219.105 163.55Z" fill="#C18C68"/>
<path d="M383.737 245.036L343.846 222.017V202.424L383.737 225.443V245.036Z" fill="#2D2B2A"/>
<path d="M426.828 220.149L383.738 245.036V225.443L426.828 200.556V220.149Z" fill="#383534"/>
<path d="M383.737 225.443L343.846 202.424L386.965 177.537L426.828 200.556L383.737 225.443Z" fill="#2B2B2B"/>
<path d="M432.83 198.885C432.66 198.064 432.405 197.214 432.066 196.337C431.981 196.138 431.924 195.968 431.839 195.799C431.273 194.496 430.509 193.364 429.603 192.316C427.677 190.108 425.016 188.38 421.902 186.568C419.977 185.464 417.91 184.332 415.673 183.057C409.954 179.745 391.948 170.26 386.257 167.287C385.691 167.004 385.181 166.975 384.785 167.202L340.194 193.109L386.71 230.143L431.301 204.236C432.66 203.472 433.368 201.603 432.83 198.885Z" fill="url(#paint5_linear_331_3824)"/>
<path d="M388.239 224.792C388.069 223.97 387.814 223.121 387.475 222.243C385.776 217.855 382.095 215.25 377.311 212.475C375.386 211.371 373.319 210.238 371.082 208.964C365.363 205.652 347.357 196.166 341.666 193.193C340.534 192.599 339.6 193.137 339.543 194.411C339.175 201.999 342.714 205.821 347.498 208.568C351.406 210.833 359.559 214.4 363.664 216.779C370.997 220.997 377.396 225.896 381.02 228.869C381.444 229.208 381.841 229.492 382.237 229.718C386.031 231.955 389.23 229.775 388.239 224.792Z" fill="#C18C68"/>
<path d="M394.27 153.498C386.965 116.237 391.155 115.841 389.23 108.593C389.089 108.083 388.919 107.602 388.72 107.149C388.296 106.186 387.73 105.28 387.05 104.515C386.371 103.751 385.606 103.128 384.785 102.647C383.37 101.826 381.954 101.542 380.991 102.08L336.4 127.987L350.839 197.243L395.43 171.336C395.629 171.222 395.742 170.968 395.77 170.628C395.77 167.032 395.77 160.944 394.27 153.498Z" fill="url(#paint6_linear_331_3824)"/>
<path d="M349.707 179.405C342.402 142.144 346.593 141.748 344.667 134.5C343.988 131.98 342.289 129.743 340.222 128.525C337.872 127.166 335.523 127.28 335.324 130.196C334.588 142.852 337.618 163.266 338.892 177.31C339.316 181.84 339.939 186.483 339.769 190.221C339.741 190.929 340.222 191.806 340.845 192.174L350.103 197.129C350.698 197.469 351.207 197.186 351.207 196.478C351.207 192.939 351.179 186.852 349.707 179.405Z" fill="#C18C68"/>
<path d="M355.511 124.052L374.536 113.066C374.536 113.066 371.139 109.782 367.6 109.81L347.527 121.475C348.263 121.107 349.197 120.768 351.236 122.466C354.039 124.816 355.511 124.052 355.511 124.052Z" fill="#C18C68"/>
<path d="M374.508 100.863C374.508 100.467 374.395 100.07 374.225 99.7023C374.055 99.3342 373.828 98.9944 373.545 98.683C373.149 98.23 372.668 97.8619 372.158 97.5504C370.884 96.8143 369.355 96.5595 368.421 97.0974L350.584 107.46L356.388 123.259L374.225 112.896C374.763 112.585 375.046 111.877 374.961 110.886C374.593 106.866 374.565 102.958 374.508 100.863Z" fill="url(#paint7_linear_331_3824)"/>
<path d="M356.7 111.226C356.671 109.839 355.624 108.621 354.35 107.913C352.821 107.036 350.924 106.838 350.131 107.885C348.603 109.81 348.121 114.341 348.263 117.257C348.319 118.474 349.197 119.918 350.216 120.513L354.633 123.061C356.133 123.939 357.323 123.09 357.153 121.249C356.785 117.229 356.756 113.35 356.7 111.226Z" fill="#C18C68"/>
<path d="M393.958 267.149L313.156 220.488L322.782 203.783L393.958 244.895V267.149Z" fill="#C18C68"/>
<path d="M393.958 244.895L322.782 203.783L339.373 194.213L410.549 235.325L393.958 244.895Z" fill="#F4C698"/>
<path opacity="0.4" d="M337.986 198.404L326.038 205.284C324.962 205.907 324.962 206.926 326.038 207.549L352.425 222.782C353.501 223.405 355.256 223.405 356.36 222.782L368.308 215.902C369.384 215.279 369.384 214.259 368.308 213.636L341.921 198.404C340.845 197.781 339.062 197.781 337.986 198.404ZM367.742 213.976C368.506 214.429 368.506 215.137 367.742 215.59L355.794 222.47C355.03 222.923 353.756 222.923 352.991 222.47L326.605 207.238C325.84 206.785 325.84 206.077 326.605 205.624L338.552 198.743C339.317 198.29 340.591 198.29 341.355 198.743L367.742 213.976Z" fill="#C18C68"/>
<path d="M320.149 281.759L280.286 258.712V239.119L320.149 262.166V281.759Z" fill="#2D2B2A"/>
<path d="M363.268 256.871L320.149 281.759V262.166L363.268 237.278V256.871Z" fill="#383534"/>
<path d="M320.149 262.166L280.286 239.119L323.377 214.231L363.268 237.278L320.149 262.166Z" fill="#2B2B2B"/>
<path d="M369.242 235.607C369.072 234.786 368.817 233.937 368.478 233.059C368.393 232.861 368.336 232.691 368.251 232.521C367.685 231.219 366.92 230.086 366.015 229.039C364.089 226.83 361.428 225.103 358.314 223.291C356.388 222.187 354.322 221.054 352.085 219.78C346.366 216.467 328.36 206.982 322.669 204.009C322.103 203.726 321.593 203.698 321.197 203.924L276.606 229.831L323.122 266.866L367.713 240.959C369.072 240.194 369.78 238.326 369.242 235.607Z" fill="url(#paint8_linear_331_3824)"/>
<path d="M324.679 261.515C324.509 260.694 324.255 259.844 323.915 258.966C322.216 254.578 318.536 251.973 313.751 249.198C311.826 248.094 309.759 246.961 307.522 245.687C301.803 242.375 283.797 232.89 278.106 229.917C276.974 229.322 276.04 229.86 275.983 231.134C275.615 238.722 279.154 242.545 283.939 245.291C287.846 247.556 295.999 251.124 300.105 253.502C307.437 257.721 313.836 262.619 317.46 265.592C317.884 265.932 318.281 266.215 318.677 266.441C322.471 268.65 325.67 266.47 324.679 261.515Z" fill="#C18C68"/>
<path d="M330.71 190.192C323.405 152.932 327.595 152.535 325.67 145.287C325.529 144.777 325.359 144.296 325.16 143.843C324.736 142.88 324.17 141.974 323.49 141.21C322.811 140.445 322.046 139.822 321.225 139.341C319.81 138.52 318.394 138.237 317.431 138.775L272.84 164.682L287.279 233.937L331.87 208.03C332.069 207.917 332.182 207.662 332.21 207.322C332.21 203.726 332.182 197.667 330.71 190.192Z" fill="url(#paint9_linear_331_3824)"/>
<path d="M286.119 216.099C278.814 178.839 283.004 178.442 281.079 171.194C280.4 168.674 278.701 166.437 276.634 165.22C274.284 163.861 271.934 163.974 271.736 166.89C271 179.546 274.03 199.961 275.304 214.004C275.728 218.534 276.351 223.178 276.181 226.915C276.153 227.623 276.634 228.501 277.257 228.869L286.515 233.824C287.11 234.163 287.619 233.88 287.619 233.172C287.619 229.633 287.591 223.574 286.119 216.099Z" fill="#C18C68"/>
<path d="M291.951 160.775L310.976 149.789C310.976 149.789 307.607 146.505 304.04 146.533L283.967 158.198C284.703 157.83 285.637 157.49 287.676 159.189C290.45 161.511 291.951 160.775 291.951 160.775Z" fill="#C18C68"/>
<path d="M310.948 137.586C310.948 137.189 310.835 136.793 310.665 136.425C310.495 136.057 310.268 135.717 309.985 135.406C309.589 134.953 309.108 134.585 308.598 134.273C307.324 133.537 305.795 133.282 304.861 133.82L287.024 144.183L292.828 159.982L310.665 149.619C311.203 149.308 311.486 148.6 311.401 147.609C311.033 143.588 311.005 139.681 310.948 137.586Z" fill="url(#paint10_linear_331_3824)"/>
<path d="M293.112 147.949C293.083 146.561 292.036 145.344 290.762 144.636C289.233 143.758 287.336 143.56 286.543 144.608C285.014 146.533 284.533 151.063 284.675 153.98C284.731 155.197 285.609 156.641 286.628 157.236L291.045 159.784C292.545 160.662 293.734 159.812 293.565 157.972C293.196 153.951 293.168 150.044 293.112 147.949Z" fill="#C18C68"/>
<path d="M435.491 157.774C425.441 161.2 415.815 171.364 414.059 180.368C412.276 189.4 419.014 193.93 429.065 190.504C439.115 187.078 448.741 176.914 450.497 167.882C452.28 158.878 445.542 154.319 435.491 157.774ZM435.293 160.605C435.916 160.407 436.482 160.293 437.077 160.152L432.49 174.224L421.166 171.166C424.705 166.522 429.942 162.445 435.293 160.605ZM448.203 169.326C446.675 177.083 438.408 185.804 429.773 188.777C421.137 191.75 415.334 187.814 416.862 180.056C417.315 177.735 418.419 175.356 419.92 173.035L433.878 176.8L439.427 159.727C445.684 159.189 449.477 162.898 448.203 169.326Z" fill="#3A3835"/>
<path d="M478.412 170.033L468.899 165.22C467.965 164.739 466.861 164.682 465.87 165.022C428.328 178.782 389.598 203.415 363.183 227.538C366.241 231.927 367.798 237.165 368.761 242.573C370.261 242.148 371.733 241.922 373.234 242.403C373.489 242.318 456.244 214.146 476.458 176.206C479.46 172.95 479.771 172.808 478.412 170.033Z" fill="#FFD3AB"/>
<path d="M458.565 167.853C455.508 181.047 435.944 190.646 413.776 190.532C413.776 190.532 420.061 177.508 431.301 170.741C447.382 161.058 458.565 167.853 458.565 167.853Z" fill="#FFD3AB"/>
<path opacity="0.5" d="M438.436 109.329L339.458 167.343L361.711 256.843L488.123 177.848L438.436 109.329Z" fill="#FFFCEE"/>
<path opacity="0.3" d="M438.436 109.329L432.66 112.698L418.787 221.196L488.123 177.848L438.436 109.329Z" fill="white"/>
<path d="M199.343 179.546L151.156 207.549C151.553 197.667 155.262 190.702 161.037 187.333L199.343 165.078V179.546Z" fill="#1D1C1B"/>
<path d="M424.337 299.908L367.628 332.865C367.996 322.983 371.705 316.018 377.509 312.649L424.337 285.439V299.908Z" fill="#1D1C1B"/>
<path d="M346.338 173.629L441.578 118.304C443.249 117.341 444.495 117.625 445.542 119.267L486.169 175.498L487.783 167.343L445.57 111.82L336.797 174.762L355.228 244.47L363.438 244.951L343.195 177.734C342.714 176.149 344.894 174.478 346.338 173.629Z" fill="#649F78"/>
<path d="M257.722 0.321232C258.6 -0.188413 259.789 -0.103472 261.091 0.660996L436.624 101.911C440.078 103.893 443.305 107.517 445.542 111.849L336.768 174.79C334.532 170.486 331.304 166.862 327.85 164.852L152.034 63.7438C150.732 62.9793 149.543 62.9227 148.665 63.404L257.722 0.321232Z" fill="url(#paint11_linear_331_3824)"/>
<path d="M440.927 338.528C438.124 332.214 434.302 326.155 429.801 321.058C426.007 316.755 421.76 313.102 417.259 310.497C409.275 305.882 402.027 305.457 396.817 308.487L381.02 317.661C386.229 314.631 393.477 315.056 401.461 319.671C405.962 322.276 410.209 325.928 414.003 330.232C418.504 335.357 422.326 341.387 425.129 347.701C428.272 354.836 430.112 362.311 430.084 369.22C430.055 378.28 426.856 384.651 421.703 387.652L437.501 378.478C442.654 375.477 445.853 369.106 445.882 360.046C445.882 353.138 444.07 345.663 440.927 338.528Z" fill="#1D1C1B"/>
<path d="M401.461 319.671C385.606 310.525 372.696 317.859 372.639 336.064C372.582 354.298 385.408 376.496 401.262 385.641C417.117 394.787 430.027 387.453 430.084 369.219C430.14 351.042 417.315 328.844 401.461 319.671Z" fill="#2C2A29"/>
<path opacity="0.5" d="M401.432 328.986C390.051 322.417 380.793 327.683 380.765 340.736C380.736 353.817 389.909 369.758 401.319 376.326C412.7 382.895 421.958 377.629 421.987 364.548C422.015 351.495 412.814 335.555 401.432 328.986Z" fill="#232221"/>
<path d="M392.061 327.712L392.882 327.655L398.092 328.25C398.092 328.25 399.224 328.42 398.431 328.618C394.666 329.637 392.203 333.29 392.061 339.037C391.835 348.806 398.544 360.867 407.01 365.964C412.162 369.05 416.777 368.88 419.637 366.105C420.203 365.539 419.269 367.436 419.269 367.436L417.57 370.466C414.541 375.873 408.114 377.063 400.809 372.646C390.787 366.587 382.86 352.316 383.115 340.764C383.341 332.582 386.002 327.514 392.061 327.712Z" fill="#C6C0B3"/>
<path d="M401.8 329.524C412.446 335.951 420.882 351.099 420.599 363.387C420.345 375.675 411.483 380.432 400.838 374.005C390.192 367.577 381.756 352.43 382.039 340.141C382.293 327.853 391.155 323.097 401.8 329.524ZM401.772 330.798C391.75 324.739 383.398 329.212 383.143 340.793C382.888 352.373 390.815 366.643 400.838 372.674C410.86 378.733 419.212 374.259 419.467 362.679C419.722 351.127 411.794 336.857 401.772 330.798Z" fill="#E8DFD1"/>
<path d="M406.132 330.458C415.22 336.064 422.298 349.174 421.958 359.735C421.618 370.267 413.946 374.259 404.886 368.653C395.798 363.047 388.72 349.938 389.088 339.377C389.4 328.844 397.044 324.852 406.132 330.458Z" fill="#A5A095"/>
<path d="M404.433 336.347C411.115 340.481 416.324 350.136 416.069 357.894C415.814 365.652 410.18 368.597 403.499 364.463C396.817 360.329 391.608 350.674 391.863 342.916C392.118 335.158 397.752 332.214 404.433 336.347Z" fill="#E8DFD1"/>
<path d="M391.891 341.415C391.891 341.33 391.891 341.217 391.891 341.132C392.146 333.374 397.185 329.892 403.584 332.525C404.377 332.836 405.198 333.261 406.019 333.771C410.294 336.404 414.031 341.076 416.409 346.2C418.193 350.079 419.212 354.213 419.099 357.979C418.816 366.699 412.474 370.012 404.971 365.34L403.499 364.434C410.181 368.568 415.815 365.624 416.069 357.866C416.183 354.525 415.277 350.844 413.691 347.39C411.568 342.831 408.255 338.697 404.433 336.347C403.697 335.894 402.989 335.526 402.282 335.243C396.591 332.921 392.089 336.007 391.863 342.916C391.863 343.001 391.863 343.086 391.863 343.171L391.891 341.415Z" fill="#C6C0B3"/>
<path d="M224.031 213.296C221.228 206.982 217.406 200.923 212.904 195.827C209.11 191.523 204.864 187.871 200.362 185.266C192.378 180.651 185.13 180.226 179.921 183.256L164.123 192.429C169.332 189.4 176.58 189.824 184.564 194.439C189.066 197.044 193.312 200.697 197.106 205C201.608 210.125 205.43 216.156 208.233 222.47C211.375 229.605 213.216 237.08 213.187 243.988C213.159 253.049 209.96 259.419 204.807 262.42L220.605 253.247C225.758 250.246 228.957 243.875 228.985 234.815C229.014 227.906 227.173 220.431 224.031 213.296Z" fill="#1D1C1B"/>
<path d="M184.564 194.439C168.71 185.294 155.799 192.627 155.743 210.833C155.686 229.067 168.511 251.265 184.366 260.41C200.221 269.555 213.131 262.222 213.187 243.988C213.244 225.811 200.419 203.613 184.564 194.439Z" fill="#2C2A29"/>
<path opacity="0.5" d="M184.536 203.754C173.154 197.186 163.897 202.452 163.868 215.505C163.84 228.586 173.013 244.526 184.423 251.095C195.804 257.664 205.062 252.397 205.09 239.316C205.118 226.264 195.917 210.323 184.536 203.754Z" fill="#232221"/>
<path d="M175.193 202.48L176.014 202.424L181.223 203.018C181.223 203.018 182.356 203.188 181.563 203.387C177.798 204.406 175.335 208.058 175.193 213.806C174.966 223.574 181.676 235.636 190.142 240.732C195.294 243.818 199.909 243.648 202.769 240.874C203.335 240.307 202.401 242.204 202.401 242.204L200.702 245.234C197.672 250.642 191.246 251.831 183.941 247.414C173.919 241.355 165.992 227.085 166.246 215.533C166.445 207.35 169.106 202.282 175.193 202.48Z" fill="#C6C0B3"/>
<path d="M184.904 204.292C195.549 210.72 203.986 225.867 203.703 238.155C203.448 250.444 194.587 255.2 183.941 248.773C173.296 242.346 164.859 227.198 165.142 214.91C165.397 202.622 174.259 197.865 184.904 204.292ZM184.876 205.566C174.853 199.507 166.501 203.981 166.247 215.561C165.992 227.141 173.919 241.411 183.941 247.442C193.964 253.501 202.316 249.028 202.571 237.448C202.854 225.896 194.926 211.626 184.876 205.566Z" fill="#E8DFD1"/>
<path d="M189.236 205.227C198.324 210.833 205.402 223.942 205.062 234.503C204.722 245.036 197.05 249.028 187.99 243.422C178.902 237.816 171.824 224.707 172.192 214.146C172.503 203.613 180.148 199.621 189.236 205.227Z" fill="#A5A095"/>
<path d="M187.537 211.116C194.218 215.25 199.428 224.905 199.173 232.663C198.918 240.421 193.284 243.365 186.603 239.231C179.921 235.098 174.712 225.443 174.966 217.685C175.221 209.927 180.855 206.982 187.537 211.116Z" fill="#E8DFD1"/>
<path d="M174.995 216.184C174.995 216.099 174.995 215.986 174.995 215.901C175.25 208.143 180.289 204.66 186.688 207.293C187.48 207.605 188.273 208.03 189.122 208.539C193.397 211.172 197.135 215.844 199.513 220.969C201.296 224.848 202.316 228.982 202.202 232.747C201.919 241.468 195.577 244.781 188.075 240.109L186.603 239.203C193.284 243.337 198.918 240.392 199.173 232.634C199.286 229.293 198.38 225.612 196.795 222.158C194.672 217.6 191.359 213.466 187.537 211.116C186.801 210.663 186.093 210.295 185.385 210.012C179.695 207.69 175.193 210.776 174.967 217.685C174.967 217.769 174.967 217.854 174.967 217.939L174.995 216.184Z" fill="#C6C0B3"/>
<path d="M577.447 252.567C568.868 249.934 574.559 234.645 574.559 234.645L572.577 230.823C571.699 228.869 570.255 227.142 568.726 226.179L487.755 167.343C451.516 200.838 407.293 226.491 355.228 244.47L336.797 174.762C334.56 170.458 331.332 166.834 327.878 164.823L152.034 63.7438C149.797 62.4413 147.872 63.1209 147.391 65.3576V66.9715L147.929 67.7643L213.188 105.648L206.223 157.094L128.422 112.443C128.422 112.415 125.591 113.774 125.591 113.774L122.08 118.502L121.939 181.642L128.734 194.609L151.156 207.549C151.949 187.191 166.898 179.15 185.131 189.683C203.392 200.216 218.255 225.5 218.906 246.678L367.628 332.893C368.393 312.536 383.369 304.495 401.602 315.027C412.984 321.596 423.034 333.856 429.15 347.333C432.858 355.459 435.123 364.038 435.378 372.023C435.378 372.023 454.092 358.517 457.235 356.96C463.803 353.676 538.178 329.128 579.542 286.629L580.674 258.145C580.674 255.342 578.862 252.992 577.447 252.567ZM211.885 163.295L219.218 109.159L281.702 145.146L274.397 198.998L211.885 163.295ZM280.456 202.424L287.761 148.6L326.151 170.684L343.648 238.382L280.456 202.424Z" fill="url(#paint12_linear_331_3824)"/>
<path opacity="0.3" d="M122.024 148.628L121.939 181.67L128.734 194.638L151.156 207.577C151.949 187.219 166.898 179.178 185.131 189.711C203.392 200.244 218.255 225.528 218.906 246.706L367.628 332.921C368.336 313.838 381.529 305.57 398.233 313.272L122.024 148.628Z" fill="#6BA07F"/>
<path opacity="0.3" d="M398.205 313.244L410.181 321.256C407.435 318.85 404.575 316.726 401.602 314.999C400.47 314.348 399.337 313.753 398.205 313.244Z" fill="#6BA07F"/>
<path d="M446.901 117.596C445.853 115.954 443.702 115.444 442.003 116.407L342.516 174.054C341.072 174.903 340.364 176.63 340.845 178.244L360.692 242.997C407.661 225.273 453.526 199.083 484.641 171.166L446.901 117.596ZM344.328 177.649C344.129 177.027 344.412 176.375 344.979 176.036L442.598 119.465C442.824 119.352 443.051 119.267 443.305 119.267C443.787 119.267 444.211 119.493 444.466 119.918L479.318 168.561C450.44 194.1 407.349 219.072 362.532 236.23L344.328 177.649Z" fill="#302C26"/>
<path d="M487.755 167.372C453.951 199.734 409.275 225.131 355.228 244.498L448.741 295.632C464.03 305.769 573.794 239.798 564.112 228.897L487.755 167.372Z" fill="url(#paint13_linear_331_3824)"/>
<g opacity="0.3">
<path opacity="0.3" d="M329.662 168.334L216.443 103.581L206.987 167.145L206.364 176.97L206.393 193.194L206.591 193.42C218.878 207.945 223.776 224.084 221.964 244.187L221.907 244.725L345.517 316.924L352.34 249.736L352.368 249.566L329.662 168.334ZM275.134 273.973L223.719 243.819C225.418 223.603 220.435 207.294 208.091 192.571L208.063 177.027L208.686 167.315L217.717 106.299L285.071 144.749L284.844 144.721L275.615 206.105L274.992 217.657L275.134 273.973ZM344.101 314.121L276.832 274.964L276.719 217.713L277.342 206.303L286.458 145.57L328.501 169.58L350.613 249.736L344.101 314.121Z" fill="#649F78"/>
</g>
<path d="M573.992 235.268C574.162 235.041 574.474 234.985 574.672 235.154C578.947 238.382 578.126 256.56 575.634 259.816C568.33 266.951 560.488 272.896 555.675 276.322C553.664 277.738 550.89 276.379 550.805 273.916C550.635 269.725 550.437 264.006 550.409 259.844C550.38 256.843 551.824 254.068 554.287 252.369C559.468 248.773 568.811 241.865 573.992 235.268Z" fill="#ECEDEF"/>
<path d="M444.806 326.862C449.392 327.938 456.046 328.278 462.586 326.239C470.966 323.606 482.687 318.226 488.123 315.678C489.793 314.885 490.558 312.96 489.878 311.233C488.661 308.119 486.736 303.192 485.292 299.398C484.216 296.567 481.017 295.236 478.242 296.397C474.08 298.124 469.862 299.766 465.615 301.267C461.538 302.711 457.093 304.664 452.733 304.919C451.969 304.976 448.005 304.693 444.976 303.588C437.275 304.976 441.748 326.126 444.806 326.862Z" fill="#ECEDEF"/>
<path opacity="0.8" d="M452.846 304.863C452.79 304.863 452.733 304.891 452.677 304.891C451.912 304.948 447.948 304.664 444.919 303.56C444.551 303.419 435.293 310.469 442.428 326.126C445.4 327.145 450.015 327.91 455.111 327.542C452.846 320.01 451.912 312.026 452.846 304.863Z" fill="#ECEDEF"/>
<path d="M444.919 303.588C443.532 303.079 442.003 303.419 441.012 304.494L437.105 308.798C435.463 310.61 434.869 313.13 435.576 315.48C436.511 318.538 437.643 321.822 439.087 324.257C439.597 325.135 441.805 326.154 444.891 326.862C441.097 317.519 444.919 303.588 444.919 303.588Z" fill="#D16A0D"/>
<path opacity="0.5" d="M287.761 148.6L326.151 170.684L343.648 238.382L280.456 202.424L287.761 148.6ZM211.885 163.294L274.397 198.998L281.702 145.145L219.246 109.13L211.885 163.294ZM213.187 105.648L147.929 67.7642L128.196 112.302L205.826 159.84L213.187 105.648Z" fill="#AF955A"/>
<path d="M206.195 157.094L205.827 159.84L125.591 113.774L128.196 112.302L206.195 157.094Z" fill="#8BCCA2"/>
<path d="M211.885 163.294L215.028 162.134L221.993 110.716L219.246 109.13L211.885 163.294Z" fill="#649F78"/>
<path d="M287.761 148.6L280.456 202.424L283.599 201.291L290.535 150.213L287.761 148.6Z" fill="#649F78"/>
<path d="M211.885 163.295L274.398 198.97L274.766 196.252L215.028 162.134L211.885 163.295Z" fill="#8BCCA2"/>
<path d="M342.742 234.956L283.599 201.292L280.456 202.424L343.648 238.382L342.742 234.956Z" fill="#8BCCA2"/>
<path d="M440.163 374.486L435.35 372.136C435.35 371.966 435.293 371.627 435.293 371.428C434.897 362.028 431.924 352.77 427.564 344.191C407.916 305.486 369.383 297.926 367.628 332.356C367.345 332.384 367.175 332.242 367.119 332.044C356.558 292.462 416.466 287.478 434.727 341.841C435.661 344.361 440.248 374.515 440.163 374.486Z" fill="#7BB48F"/>
<path d="M149.571 201.263C149.599 201.999 150.477 206.982 151.185 207.096C155.318 160.661 216.755 195.742 218.822 246.168C219.275 246.282 219.36 246.027 219.473 245.715C221.002 241.865 221.964 234.107 220.634 225.981C211.857 168.759 145.239 162.19 149.571 201.263Z" fill="#7BB48F"/>
<path d="M432.632 336.291C432.632 336.291 448.656 343.794 461.708 340.991C490.784 334.79 572.265 283.401 579.91 275.049L580.419 261.401C580.419 261.401 586.167 268.508 587.271 273.973L582.769 303.532C582.769 304.948 582.344 306.335 581.41 307.383C568.868 321.426 480.564 370.777 462.133 375.902C456.499 377.487 448.317 379.016 438.039 373.467C437.077 358.092 433.113 347.107 427.932 339.717L431.103 338.613L432.632 336.291Z" fill="#7BB48F"/>
<path d="M580.448 261.401L579.938 275.049C572.265 283.401 490.813 334.819 461.736 340.991C448.685 343.766 432.66 336.291 432.66 336.291L427.96 339.717C430.848 343.058 450.836 351.637 465.389 347.362C502.364 336.489 555.76 300.899 571.303 290.253C586.733 279.692 587.299 273.973 587.299 273.973C586.167 268.508 580.448 261.401 580.448 261.401Z" fill="url(#paint14_linear_331_3824)"/>
<path d="M327.652 225.047C327.114 224.735 326.406 224.792 325.614 225.245L310.693 233.994C309.108 234.9 307.805 237.137 307.834 238.977L307.777 246.622C307.777 247.528 308.117 248.179 308.626 248.49L310.099 249.34C309.589 249.028 309.249 248.405 309.249 247.471L309.306 239.826C309.306 237.986 310.58 235.749 312.165 234.843L327.086 226.094C327.878 225.641 328.615 225.585 329.124 225.896L327.652 225.047Z" fill="#494443"/>
<path d="M327.086 226.122C328.671 225.216 329.974 225.953 329.974 227.793L329.917 235.438C329.917 237.278 328.643 239.515 327.057 240.421L312.165 249.17C310.58 250.076 309.278 249.34 309.278 247.499L309.334 239.855C309.334 238.014 310.608 235.777 312.194 234.871L327.086 226.122Z" fill="#383534"/>
<path d="M340.845 240.279C332.323 247.556 322.754 237.788 322.358 237.335C321.14 235.891 318.366 238.269 319.951 239.77C322.924 242.601 328.53 246.367 334.475 246.367C337.561 246.367 341.015 245.942 343.931 243.309C345.602 241.78 342.742 238.666 340.845 240.279Z" fill="#302C26"/>
<path d="M122.024 159.755L157.753 180.792C157.753 180.792 154.639 183.595 153.563 185.096C149.203 191.212 148.297 201.008 151.156 207.549C151.156 207.549 128.422 195.091 122.165 190.589C121.174 189.881 120.523 188.833 120.297 187.644C119.051 180.962 116.928 161.709 116.843 158.566C116.729 155.253 122.024 152.45 122.024 152.45V159.755Z" fill="#7BB48F"/>
<path d="M153.591 185.096C154.667 183.595 157.781 180.792 157.781 180.792L122.024 159.755V152.45C122.024 152.45 116.758 155.225 116.843 158.566C116.871 159.359 117.012 161.227 117.267 163.634C118.088 164.427 153.082 185.804 153.591 185.096Z" fill="#89CEA5"/>
<path d="M288.723 231.219L284.873 229.011C283.542 228.246 282.495 226.547 282.495 225.245V220.375C282.495 219.044 291.13 224.028 291.13 225.358V230.228C291.101 231.531 290.026 231.984 288.723 231.219Z" fill="#649F78"/>
<path d="M291.781 228.331L281.815 222.584C280.768 221.989 279.918 220.63 279.918 219.582C279.918 218.535 280.768 218.167 281.815 218.789L291.781 224.537C292.828 225.132 293.678 226.491 293.678 227.538C293.678 228.586 292.828 228.926 291.781 228.331Z" fill="#E8DFD1"/>
<path d="M220.124 191.75L216.273 189.542C214.943 188.777 213.895 187.078 213.895 185.776V180.906C213.895 179.575 222.53 184.558 222.53 185.889V190.759C222.502 192.061 221.426 192.514 220.124 191.75Z" fill="#649F78"/>
<path d="M223.181 188.834L213.216 183.086C212.168 182.491 211.319 181.132 211.319 180.085C211.319 179.037 212.168 178.669 213.216 179.292L223.181 185.04C224.229 185.634 225.078 186.993 225.078 188.041C225.078 189.088 224.229 189.428 223.181 188.834Z" fill="#E8DFD1"/>
<path opacity="0.4" d="M122.024 153.583L128.592 157.377C128.79 157.49 129.017 157.547 129.215 157.547C129.441 157.547 129.64 157.49 129.838 157.377C130.234 157.15 130.461 156.726 130.461 156.273V140.7C130.461 139.313 129.724 137.982 128.535 137.274L126.469 136.028C125.987 137.671 124.657 139.058 122.477 139.058H122.165C122.109 139.058 122.08 139.03 122.024 139.03V153.583Z" fill="#ACABA9"/>
<path d="M129.47 139.398C129.47 138.35 128.932 137.416 128.054 136.878L122.109 133.282V128.101C120.948 128.101 120.098 129.035 120.098 130.111C120.098 130.111 119.872 145.542 120.212 149.251C120.325 150.383 120.948 151.374 121.939 151.912L129.498 156.273V139.398H129.47Z" fill="#9E081E"/>
<path opacity="0.6" d="M423.317 104.402C409.161 102.109 397.922 98.0597 392.288 94.8036L246.793 10.797C241.159 7.54097 247.954 6.74819 262.11 9.04159L265.847 13.4302C258.458 12.779 255.598 13.685 259.534 15.9784L391.042 91.321C395.77 94.0392 407.434 97.6916 419.382 99.8435L423.317 104.402ZM328.388 152.422C316.44 150.27 304.776 146.618 300.048 143.899L168.512 68.5569C164.576 66.2918 167.436 65.3574 174.825 66.0086L171.088 61.62C156.932 59.3266 150.109 60.1194 155.771 63.3755L301.237 147.354C306.871 150.61 318.111 154.659 332.267 156.952L328.388 152.422Z" fill="#649F78"/>
<path d="M177.515 61.4787L179.61 60.2612C178.194 61.0823 177.26 62.6962 177.005 64.9896L174.91 66.2071C175.165 63.9137 176.099 62.2998 177.515 61.4787Z" fill="#C6C0B3"/>
<path d="M324.056 138.18L178.59 54.1736C175.759 52.5314 173.183 52.3899 171.343 53.4658L169.248 54.6833C171.088 53.6074 173.664 53.7772 176.495 55.3911L321.961 139.369C323.575 140.304 325.104 141.606 326.463 143.163L328.558 141.946C327.199 140.417 325.67 139.086 324.056 138.18Z" fill="#E8DFD1"/>
<path d="M332.521 148.175C331.53 145.938 330.172 143.786 328.558 141.946L326.463 143.163C328.048 144.975 329.435 147.127 330.426 149.392C331.53 151.912 332.182 154.574 332.182 157.009L334.277 155.791C334.277 153.356 333.626 150.695 332.521 148.175Z" fill="#C6C0B3"/>
<path d="M321.99 139.37C327.624 142.626 332.21 150.497 332.182 156.981L323.575 151.997C323.065 146.476 319.215 140.162 314.515 137.444L183.998 62.1299C179.27 59.4118 175.448 61.2805 174.91 66.2071L166.303 61.2239C166.332 54.74 170.89 52.1352 176.524 55.3913L321.99 139.37Z" fill="#A5A095"/>
<path d="M268.65 8.87227L270.745 7.65479C269.33 8.47588 268.395 10.0898 268.14 12.3832L266.045 13.6007C266.272 11.3072 267.234 9.69337 268.65 8.87227Z" fill="#C6C0B3"/>
<path d="M415.192 85.5454L269.726 1.56718C266.895 -0.0750125 264.319 -0.216581 262.478 0.859338L260.383 2.07682C262.224 1.00091 264.8 1.14247 267.631 2.78467L413.097 86.7629C414.711 87.6973 416.239 88.9997 417.598 90.557L419.694 89.3395C418.306 87.7822 416.806 86.4798 415.192 85.5454Z" fill="#E8DFD1"/>
<path d="M423.629 95.5684C422.638 93.3316 421.279 91.1797 419.665 89.3394L417.57 90.5568C419.156 92.3689 420.543 94.5208 421.534 96.7858C422.638 99.3058 423.289 101.967 423.289 104.402L425.384 103.185C425.384 100.721 424.733 98.0883 423.629 95.5684Z" fill="#C6C0B3"/>
<path d="M413.097 86.7631C418.731 90.0191 423.317 97.8903 423.289 104.374L414.682 99.391C414.173 93.8698 410.322 87.5559 405.622 84.8377L275.105 9.52346C270.377 6.80535 266.555 8.67405 266.017 13.6006L257.41 8.61742C257.439 2.13359 261.997 -0.47126 267.631 2.78481L413.097 86.7631Z" fill="#A5A095"/>
<path d="M542.651 259.533C529.26 271.509 499.08 286.686 489.85 291.187C488.321 291.924 487.67 293.736 488.321 295.321L498.683 319.869C499.306 321.341 501.09 321.936 502.477 321.143L546.332 295.831C547.719 295.038 548.54 293.481 548.399 291.867L545.737 260.807C545.624 259.25 543.812 258.485 542.651 259.533Z" fill="#383534"/>
<path d="M486.198 183.992C486.198 183.992 490.303 186.54 496.305 190.504C499.278 192.542 502.817 194.836 506.497 197.441C510.178 200.046 514.085 202.82 518.02 205.595C521.871 208.455 525.749 211.314 529.373 214.004C532.997 216.694 536.281 219.327 539.141 221.507C544.803 225.981 548.484 229.095 548.484 229.095C548.399 229.209 486.113 184.105 486.113 184.105L486.198 183.992Z" fill="#D3FCCF"/>
<path opacity="0.5" d="M382.18 244.045L454.262 283.514C454.205 283.627 449.534 281.476 442.626 278.05C439.2 276.294 435.152 274.312 430.905 272.047C426.658 269.782 422.128 267.347 417.598 264.94C413.125 262.42 408.652 259.901 404.433 257.551C400.243 255.201 396.393 252.85 393.052 250.925C386.455 246.933 382.095 244.186 382.095 244.186L382.18 244.045Z" fill="url(#paint15_linear_331_3824)"/>
<path d="M377.622 156.103L391.806 158.17C393.618 158.424 395.458 158.113 397.044 157.235C400.753 155.197 407.717 151.233 411.879 148.26C413.38 147.184 414.257 145.513 414.342 143.645L414.739 134.216C401.715 143.418 399.45 144.891 377.622 156.103Z" fill="#302C26"/>
<path d="M465.219 162.077C459.726 158.962 457.008 164.087 448.515 153.781C447.807 152.932 447.099 152.054 446.759 150.978C445.938 148.373 447.042 142.286 455.026 143.588C457.744 144.041 460.887 143.022 463.35 143.73C464.199 143.985 464.992 144.381 465.841 144.664C468.333 145.513 472.127 145.485 473.231 148.005C473.627 148.939 473.146 150.072 473.514 151.035C474.477 153.639 479.205 153.979 478.327 157.603C477.874 159.5 477.902 161.284 476.119 162.445C474.562 163.464 472.297 163.691 470.513 163.804C467.512 164.087 467.54 163.408 465.219 162.077Z" fill="#FFEB51"/>
<path d="M507.007 119.833C503.751 124.845 498.768 131.725 498.57 132.065C497.126 133.169 491.379 135.037 488.774 136.708L472.155 146.816C467.625 145.74 465.105 146.306 461.312 145.315C459.981 144.976 458.594 144.834 457.489 144.664C456.952 144.579 456.329 145.344 457.263 145.797C457.546 145.938 462.812 147.326 462.84 147.552C462.84 147.552 455.678 146.561 455.281 146.476C454.149 146.25 454.432 147.694 454.97 147.892C455.621 148.147 461.991 149.138 462.642 149.251C463.661 149.364 463.775 149.845 463.35 149.902C462.218 149.902 457.15 149.987 456.838 149.987C455.281 150.072 456.442 151.827 457.631 151.742C458.339 151.686 463.775 151.516 464.511 151.601C464.737 151.629 465.02 151.686 465.275 151.827C465.728 152.082 465.7 152.394 465.502 152.564C464.964 153.017 462.756 153.271 461.623 153.724C460.66 154.093 461.595 154.942 461.708 155.027C462.189 155.367 462.84 155.423 464.171 155.168C465.134 154.97 466.379 154.546 467.37 154.347C467.823 154.262 470.598 153.894 472.382 154.432C473.372 154.744 472.495 156.131 472.183 156.612C471.107 158.34 473.259 159.868 474.278 159.104C475.184 158.396 476.175 157.773 476.317 156.697C476.458 155.621 478.695 154.149 479.006 153.186C484.131 151.431 493.077 148.401 496.078 147.439C500.184 146.108 505.025 142.682 507.516 140.785C508.026 140.615 514.566 132.602 516.491 129.998C516.888 129.431 517.312 128.893 517.709 128.327C513.603 125.892 509.895 123.061 507.007 119.833Z" fill="#FCBE9F"/>
<path d="M504.883 121.617C508.054 116.266 511.735 109.782 516.18 105.478C518.19 103.525 520.54 101.741 523.286 101.118C526.032 100.495 528.863 101.571 530.109 103.355C530.817 104.374 533.138 108.649 533.195 109.895C533.45 114.284 522.21 124.93 519.351 129.007C516.774 132.744 503.496 123.967 504.883 121.617Z" fill="#FFD940"/>
<path d="M531.525 104.912C532.657 103.496 552.334 110.546 551.456 111.905C551.456 111.905 547.408 127.28 534.129 122.919C521.219 118.644 531.525 104.912 531.525 104.912Z" fill="#FCBE9F"/>
<path d="M544.803 99.0508C544.803 99.0508 542.906 103.326 546.332 109.64C549.786 116.011 538.688 123.372 533.28 119.493C532.629 119.04 532.063 118.531 531.581 117.936C530.477 116.69 529.911 115.02 529.883 113.349C529.854 109.272 529.713 104.43 529.713 104.43L544.803 99.0508Z" fill="#F3A984"/>
<path d="M547.153 98.8242C545.001 105.988 535.12 114.425 526.485 116.152C525.551 116.35 524.532 116.209 523.739 115.671C521.531 114.114 520.993 110.404 520.879 104.912C520.851 103.354 520.851 97.8615 521.927 92.397C523.003 87.1023 526.485 82.4872 531.44 80.3637C532.289 79.9956 533.11 79.7408 533.818 79.6275C537.612 79.0896 541.773 79.9673 543.727 81.5245C546.162 83.4499 550.522 87.7252 547.153 98.8242Z" fill="#FCBE9F"/>
<path d="M545.964 102.732C546.473 102.25 547.577 100.155 547.832 99.5038C549.219 96.0213 550.324 92.1706 549.418 88.5465C549.134 87.3856 548.115 84.9506 547.379 83.988C544.18 79.9674 539.622 78.5234 535.46 78.5234C529.345 78.5234 521.899 83.4217 522.493 90.3869C522.493 90.3869 524.447 92.0574 532.77 95.0586C537.045 96.6159 537.725 97.3237 535.941 101.627C535.347 103.043 537.527 103.836 538.178 102.505C538.716 101.401 541.858 98.4562 544.321 99.4755C545.511 99.9286 544.746 103.836 545.964 102.732Z" fill="#4F321F"/>
<path d="M544.548 99.532C546.615 100.523 546.502 103.581 542.566 106.979C541.972 107.488 539.311 109.414 538.631 109.074C537.187 108.366 539.424 102.93 540.245 101.571C541.179 100.013 542.765 98.6826 544.548 99.532Z" fill="#FCBE9F"/>
<path d="M536.253 98.145C532.317 98.2016 521.106 93.6431 520.879 88.2069C520.879 88.2069 523.994 70.9639 541.915 76.1736C553.41 80.1658 549.842 93.2467 549.842 93.2467C549.304 95.257 539.622 98.1167 536.253 98.145Z" fill="#FFD940"/>
<path d="M513.858 92.6238C516.604 93.3883 519.634 95.2286 522.776 97.9468C525.324 100.155 528.779 100.891 532.034 100.07C534.497 99.4474 537.499 98.5697 540.641 97.4371C536.225 97.6636 519.804 92.4539 521.049 87.499C521.078 87.499 511.254 91.8876 513.858 92.6238Z" fill="#FFF643"/>
<path d="M535.885 77.1647C535.8 77.6743 536.621 78.2123 537.697 78.3822C538.772 78.5521 539.707 78.2972 539.792 77.7876C539.877 77.278 539.056 76.74 537.98 76.5701C536.904 76.4002 535.97 76.6834 535.885 77.1647Z" fill="#FFF643"/>
<path d="M314.968 203.755L312.987 227.227L210.243 209.956L210.328 208.342L314.968 203.755Z" fill="url(#paint16_linear_331_3824)"/>
<path d="M315.563 196.761L312.42 234.135L210.243 209.955L210.328 208.342L315.563 196.761Z" fill="url(#paint17_linear_331_3824)"/>
<path d="M314.544 208.709L313.411 222.3L210.271 209.616L210.328 208.681L314.544 208.709Z" fill="url(#paint18_linear_331_3824)"/>
<path d="M314.204 212.957L313.751 218.081L210.271 209.332L210.3 208.993L314.204 212.957Z" fill="url(#paint19_linear_331_3824)"/>
<path d="M166.756 206.586C166.841 207.152 166.983 207.69 167.209 208.2C167.294 208.398 167.379 208.596 167.464 208.822C168.653 208.511 169.927 208.426 171.201 208.681C174.457 209.304 177.09 209.587 180.374 209.898C180.374 209.898 176.382 204.915 178.336 204.943C179.327 204.943 180.318 204.972 181.308 205C185.159 205.113 184.762 202.763 183.319 202.792C181.846 202.82 180.516 202.565 179.043 202.424C176.948 202.254 175.618 200.753 173.664 200.272C173.466 200.215 173.268 200.215 173.07 200.187C170.578 194.043 161.207 173.657 161.207 173.657C161.519 167.456 162.538 159.075 162.736 153.724C162.764 152.592 161.264 152.195 160.726 153.186C156.904 160.236 148.778 175.667 149.911 177.196C149.967 179.178 161.405 197.072 165.624 203.33C166.247 204.292 166.558 205.425 166.756 206.586Z" fill="#FCBE9F"/>
<path d="M182.582 312.196C181.422 310.299 177.062 308.685 172.815 306.986C168.511 305.259 162.424 302.71 162.17 302.088C161.943 301.578 162.056 300.927 161.688 300.53C161.462 300.304 161.122 300.219 160.811 300.162C157.781 299.596 154.554 300.049 151.779 301.408C150.505 302.031 148.976 304.636 148.976 304.636C149.118 306.25 148.863 311.601 149.203 312.224C149.203 312.224 155.658 314.829 155.969 314.97C156.592 315.197 156.79 314.432 157.328 314.404C162.085 316.839 168.115 318.878 170.89 319.246C174.061 319.67 181.167 320.888 182.865 317.207C183.573 315.65 183.46 313.668 182.582 312.196Z" fill="#191619"/>
<path d="M182.865 315.508C181.167 319.189 174.061 317.972 170.89 317.547C168.115 317.179 148.948 309.478 148.948 309.478C148.778 311.459 149.005 312.167 149.231 312.564C149.231 312.564 155.686 315.169 155.998 315.31C156.62 315.537 156.819 314.772 157.357 314.744C162.113 317.179 168.143 319.217 170.918 319.585C174.089 320.01 181.422 321.228 183.149 317.547C183.602 316.584 183.687 315.395 183.347 314.234C183.205 314.602 183.035 315.14 182.865 315.508Z" fill="#E58D2E"/>
<path d="M97.7038 340.339C101.951 343.822 108.151 342.944 110.331 340.962C113.417 338.131 108.066 329.977 107.471 320.237C107.443 319.67 107.754 314.97 107.5 314.829C104.074 312.819 95.3539 309.591 93.0323 312.535C92.183 313.611 92.4661 317.66 92.4095 318.991C92.1264 327.315 91.6734 335.413 97.7038 340.339Z" fill="#191619"/>
<path d="M110.812 338.64C108.632 340.622 102.432 341.5 98.1851 338.018C92.183 333.091 92.6076 324.993 92.8908 316.641C92.9191 315.961 92.8624 314.517 92.9191 313.13C92.1547 314.347 92.4095 318.17 92.3528 319.444C92.0697 327.768 91.6167 335.894 97.6471 340.821C101.894 344.303 108.094 343.425 110.274 341.444C111.095 340.707 111.378 339.462 111.265 338.046C111.152 338.216 110.982 338.499 110.812 338.64Z" fill="#E58D2E"/>
<path d="M108.066 227.311C107.103 237.476 105.914 247.471 105.263 255.823C105.15 257.466 105.008 259.108 104.612 260.722C104.216 262.364 103.536 263.949 102.913 265.535C98.0436 277.88 94.1365 300.616 92.1264 313.668C91.4186 318.255 106.679 320.803 108.066 315.452C108.519 313.696 115.427 284.109 119.079 276.181C121.004 271.99 123.836 268.253 125.648 264.034C126.922 261.005 127.658 257.805 128.479 254.606C130.8 245.347 133.773 236.259 137.284 227.396C138.444 224.48 139.69 221.507 139.888 218.364L112.114 208.568C110.642 212.107 108.462 220.799 108.066 227.311Z" fill="#211921"/>
<path d="M135.868 253.275C136.18 255.172 136.378 262.109 138.076 269.697C141.191 283.825 146.57 301.833 147.08 304.947C147.787 309.364 164.378 306.646 163.5 301.748C163.5 301.748 157.583 251.18 157.527 250.415C157.385 248.518 157.215 246.649 157.215 244.752C157.215 242.261 157.017 239.033 156.847 236.542C156.139 225.896 155.715 216.156 154.695 207.492C146.881 207.831 131.083 221.111 130.63 225.981C130.432 228.246 131.48 230.313 131.904 232.521C133.348 239.543 134.736 246.225 135.868 253.275Z" fill="#211921"/>
<path d="M131.933 139.624C127.12 141.097 122.108 142.314 117.465 144.268C112.709 146.25 108.972 150.327 108.038 155.395C107.075 160.69 107.754 168.164 111.492 178.527C112.794 182.123 113.983 188.239 114.209 192.061C114.436 195.572 114.379 197.865 113.672 201.914C113.332 203.953 112.511 207.266 111.605 209.106C107.047 218.676 126.384 222.951 136.293 221.536C145.494 220.233 155.488 217.628 155.205 208.313C154.893 198.403 154.157 188.352 156.451 178.697C157.668 173.544 159.706 168.618 160.641 163.379C161.179 160.265 161.32 157.094 161.462 153.951L161.745 146.986C162 141.125 157.413 136.085 151.553 135.774C144.984 135.406 138.105 137.727 131.933 139.624Z" fill="#FFD940"/>
<path d="M150.817 135.745C139.888 135.745 157.64 156.612 157.64 156.612L157.527 159.642C157.527 159.642 164.661 159.217 164.491 155.876C164.038 147.693 161.745 135.745 150.817 135.745Z" fill="#FFD940"/>
<path d="M144.192 136.312C138.898 138.322 133.49 139.284 124.798 142.427C123.694 142.824 123.269 144.126 123.892 145.117C127.771 151.233 134.283 157.943 141.304 155.253L141.474 155.197C146.485 153.271 149.26 147.779 147.674 142.654C146.768 139.907 145.466 138.577 144.192 136.312Z" fill="#FCBE9F"/>
<path d="M135.217 130.281L127.516 143.39C127.516 143.39 127.46 145.287 129.838 148.458C133.518 153.356 137.34 153.866 139.747 153.555C141.332 153.356 142.606 152.224 143.116 150.723L143.597 149.251L135.217 130.281Z" fill="#F3A984"/>
<path d="M139.294 113.689C133.575 115.926 129.356 119.974 130.687 130.96C131.735 139.398 138.812 147.92 145.126 152.507C146.683 153.639 151.496 154.857 153.025 151.204C154.327 148.118 157.442 139.086 157.498 131.243C157.555 124.929 157.328 119.521 152.487 115.614C149.203 112.953 145.268 111.367 139.294 113.689Z" fill="#FCBE9F"/>
<path d="M140.568 135.066C141.927 126.996 152.006 132.574 157.47 127.109C158.461 123.768 157.017 118.559 152.516 114.85C149.26 112.132 144.786 110.433 138.813 112.754C133.094 114.991 128.592 119.493 130.206 130.932C130.319 131.781 131.621 138.378 133.15 138.378C134.113 138.152 133.405 134.641 133.547 133.65C133.801 132.036 135.585 131.158 136.774 132.432C137.312 133.027 137.68 133.707 137.793 134.499C137.907 135.207 137.595 136.028 138.02 136.679C138.699 137.755 140.115 137.614 140.568 135.066Z" fill="#4F321F"/>
<path d="M123.241 345.861C122.873 345.861 122.505 345.691 122.25 345.379C121.825 344.841 121.91 344.049 122.477 343.624C134.905 333.912 133.207 310.837 132.273 298.435C132.103 296.17 131.961 294.302 131.961 292.971C131.876 285.581 130.489 278.05 129.13 270.745C126.978 259.108 124.742 247.074 127.743 235.409C129.328 229.18 132.556 223.461 137.001 218.846C137.482 218.364 138.275 218.336 138.756 218.817C139.237 219.299 139.266 220.091 138.784 220.573C134.622 224.876 131.65 230.228 130.149 236.032C127.29 247.188 129.356 258.4 131.565 270.292C132.924 277.71 134.339 285.354 134.453 292.942C134.481 294.245 134.594 296.057 134.764 298.237C135.727 311.092 137.482 335.017 124.034 345.578C123.779 345.776 123.524 345.861 123.241 345.861Z" fill="#3D3838"/>
<path d="M152.6 205C151.043 205.538 148.269 207.86 146.598 209.049C143.484 211.314 140.511 213.41 137.595 215.93C136.661 216.751 134.962 218.138 133.745 219.554C133.15 220.233 133.235 221.281 133.943 221.847C135.443 223.093 137.057 224.197 138.699 225.188C140.2 226.094 141.955 226.519 143.682 226.292C145.352 226.066 147.023 225.669 148.438 225.132C154.242 222.866 163.019 214.061 167.209 209.502C167.577 209.134 154.412 204.378 152.6 205ZM150.845 219.752C148.891 220.998 146.372 222.725 144.078 223.036C142.55 223.234 139.888 221.564 139.917 221.337C139.945 220.658 154.299 209.899 154.299 209.899C154.299 209.899 161.887 210.154 161.802 210.38C161.773 210.352 153.733 217.912 150.845 219.752Z" fill="#262323"/>
<path d="M151.496 211.965C146.202 216.014 141.417 213.183 142.182 211.682C142.295 211.456 142.634 211.229 142.861 211.116C144.418 210.323 145.069 208.115 144.163 206.586C144.078 206.444 143.965 206.303 143.824 206.218C143.54 206.076 143.201 206.189 142.946 206.387C142.493 206.756 142.436 207.237 142.125 207.69C141.813 208.2 141.191 208.483 140.681 208.681C139.18 209.275 137.538 209.53 135.925 209.332C118.881 202.254 112.652 197.242 112.652 197.242C115.597 188.437 121.344 173.629 119.306 170.429C118.541 169.24 115.37 168.306 113.757 168.221L102.715 169.07C102.856 170.316 101.413 179.603 100.592 189.06C99.8554 197.639 99.6289 201.461 100.705 203.216C103.423 207.605 125.846 214.004 133.037 217.571C134.283 218.138 137.652 220.431 141.247 222.356C142.436 223.008 145.579 222.385 147.278 221.394C149.203 220.29 150.986 218.336 151.383 217.656C151.553 217.373 151.638 217.033 151.779 216.722C152.034 216.184 152.402 215.731 152.629 215.193C153.195 213.976 152.345 211.342 151.496 211.965Z" fill="#FCBE9F"/>
<path d="M101.243 172.949C100.733 178.159 123.411 180.028 123.666 174.025C123.75 172.015 124.94 151.431 120.58 146.533C120.58 146.533 119.815 143.503 119.645 143.531C114.606 144.834 107.811 150.015 105.121 155.848C103.366 159.727 102.007 165.135 101.243 172.949Z" fill="#FFD940"/>
<path d="M214.773 207.294L153.393 204.887C152.006 204.774 150.845 205.906 150.788 207.294C150.732 208.681 151.807 209.842 153.195 209.87L214.745 211.456C214.745 211.456 215.849 207.35 214.773 207.294Z" fill="#262323"/>
<path d="M171.144 214.315C172.588 214.938 176.552 214.882 177.345 214.825C178.647 214.683 180.685 214.146 180.487 210.889L178.93 210.776C178.336 209.276 177.543 207.492 177.118 207.209C176.552 206.784 175.816 206.841 175.193 207.152C174.825 207.322 174.542 207.633 174.117 207.69C173.523 207.775 172.843 207.265 172.22 207.209C171.541 207.152 170.861 207.35 170.323 207.747C170.125 207.888 170.069 207.888 169.814 207.69C168.936 206.982 167.804 207.294 167.719 208.454C167.662 209.276 167.889 210.153 168.172 210.889C168.738 212.277 169.701 213.692 171.144 214.315Z" fill="#FCBE9F"/>
<path d="M194.785 279.579C194.332 279.579 193.794 279.748 193.256 280.06L164.775 296.51C163.614 297.19 162.679 298.804 162.679 300.163L162.793 344.332C162.793 344.785 162.878 345.153 163.047 345.464L165.029 349.202L199.003 279.465L194.785 279.579Z" fill="#E8E7E6"/>
<path d="M179.808 312.083L164.491 303.164L164.605 347.333C164.605 348.692 165.086 349.655 165.85 350.108L181.195 359.027L179.808 312.083Z" fill="#BEBBB9"/>
<path d="M200.504 279.805C199.541 279.239 198.211 279.324 196.767 280.173L168.285 296.624C166.19 297.841 164.491 300.757 164.491 303.192L179.808 312.111L215.821 288.752L200.504 279.805Z" fill="#F0EDEA"/>
<path d="M168.37 296.567C166.162 297.841 164.463 300.786 164.491 303.192L179.808 312.111L187.084 307.383L168.37 296.567Z" fill="#E8E7E6"/>
<path d="M216.868 289.829C216.019 288.243 214.207 287.847 212.084 289.064L183.574 305.514C182.724 306.024 181.931 306.788 181.309 307.694C180.403 309.025 179.808 310.639 179.808 312.055L179.921 356.224C179.921 358.206 180.941 359.339 182.384 359.282L186.631 359.14L218.85 293.538L216.868 289.829Z" fill="#E8E7E6"/>
<path d="M219.19 295.123C219.19 292.858 217.576 291.923 215.594 293.056L187.112 309.506C185.952 310.186 185.017 311.8 185.017 313.159L185.131 357.328C185.131 358.998 186.32 359.678 187.764 358.829L216.698 342.124C218.142 341.274 219.331 339.264 219.303 337.593L219.19 295.123Z" fill="#DDDAD7"/>
<path d="M202.571 287.762L199.768 286.148V283.628L202.571 285.27V287.762Z" fill="#BEBBB9"/>
<path d="M199.91 282.297L197.107 280.683L202.571 281.872L205.374 283.486L199.91 282.297Z" fill="#F9F9F9"/>
<path d="M187.509 296.482L184.706 294.84V287.847L187.481 289.461L187.509 296.482Z" fill="#BEBBB9"/>
<path d="M187.481 289.46L184.706 287.846L197.107 280.683L199.909 282.297L187.481 289.46Z" fill="#F0EDEA"/>
<path d="M199.91 282.297L205.374 283.486V286.148L202.571 287.761V285.27L199.91 284.902L190.284 290.451L190.312 294.868L187.509 296.482L187.481 289.46L199.91 282.297Z" fill="#DDDAD7"/>
<path d="M217.349 300.644L201.523 291.499L196.908 291.556L162.849 311.234L164.718 318.397L184.055 330.232L211.206 316.104L219.218 303.193L217.349 300.644Z" fill="#C0E87F"/>
<path d="M164.52 314.093L162.708 311.262L162.793 344.36C162.793 344.813 162.878 345.181 163.048 345.493L165.029 349.23L175.533 327.599L164.52 314.093Z" fill="#B5D66E"/>
<path d="M164.52 314.093L164.633 347.362C164.633 348.721 165.114 349.684 165.879 350.137L181.195 359.027L180.035 323.04L164.52 314.093Z" fill="#9AB758"/>
<path d="M179.836 322.927L179.921 356.252C179.921 358.234 180.941 359.366 182.384 359.31L186.631 359.168L204.439 322.898H179.836V322.927Z" fill="#B5D66E"/>
<path d="M185.046 322.927L185.131 357.328C185.131 358.999 186.32 359.678 187.764 358.829L216.698 342.124C218.142 341.274 219.331 339.264 219.303 337.593L219.218 303.192L185.046 322.927Z" fill="#C0E87F"/>
<path d="M174.825 297.303V298.238C174.825 299.087 175.42 299.936 176.552 300.588C178.845 301.918 182.554 301.918 184.819 300.588C185.98 299.908 186.546 299.03 186.546 298.153V297.218L174.825 297.303Z" fill="url(#paint20_linear_331_3824)"/>
<path d="M184.819 299.653C182.526 300.984 178.817 300.984 176.552 299.653C174.259 298.322 174.259 296.199 176.552 294.868C178.845 293.537 182.554 293.537 184.819 294.868C187.084 296.199 187.084 298.351 184.819 299.653Z" fill="#F0EDEA"/>
<path d="M175.675 292.377V296.992C175.675 297.728 176.184 298.436 177.147 299.002C179.1 300.135 182.243 300.135 184.196 299.002C185.187 298.436 185.669 297.672 185.669 296.935V292.32L175.675 292.377Z" fill="url(#paint21_linear_331_3824)"/>
<path d="M180.657 295.236C183.409 295.236 185.64 293.943 185.64 292.348C185.64 290.753 183.409 289.46 180.657 289.46C177.905 289.46 175.675 290.753 175.675 292.348C175.675 293.943 177.905 295.236 180.657 295.236Z" fill="#4C4254"/>
<path d="M177.656 291.103C179.327 290.14 181.988 290.14 183.659 291.103C184.395 291.527 184.763 292.065 184.876 292.603C184.989 291.896 184.593 291.159 183.659 290.621C181.988 289.659 179.327 289.659 177.656 290.621C176.722 291.159 176.326 291.896 176.439 292.603C176.552 292.037 176.949 291.527 177.656 291.103Z" fill="#342A3C"/>
<path d="M214.632 331.676L188.641 346.682V320.69L214.632 305.684V331.676Z" fill="#80A89E"/>
<path d="M214.632 307.496L188.641 322.502V316.472L214.632 301.465V307.496Z" fill="#EDCB00"/>
<path d="M247.586 385.33C247.473 385.33 247.388 385.33 247.275 385.302C246.624 385.132 246.199 384.453 246.369 383.801C246.964 381.48 247.275 379.498 247.303 377.742C247.332 375.675 246.85 372.759 246.284 369.333C244.699 359.706 242.49 346.541 249.483 337.395C254.551 330.77 267.971 314.574 268.112 314.433C268.537 313.895 269.33 313.838 269.868 314.263C270.406 314.688 270.462 315.48 270.038 316.018C269.896 316.188 256.505 332.327 251.465 338.924C245.123 347.22 247.218 359.791 248.719 368.965C249.313 372.476 249.823 375.534 249.766 377.827C249.738 379.781 249.398 381.961 248.775 384.453C248.634 384.962 248.124 385.33 247.586 385.33Z" fill="#3D3838"/>
<path d="M254.438 416.447L279.069 412.993C281.504 413.842 280.824 419.675 279.975 422.11C279.635 423.072 266.017 425.451 263.186 426.074C260.751 426.583 257.665 426.413 255.457 425.168C255.032 424.941 254.183 424.403 254.211 423.808C254.211 423.78 254.41 417.24 254.438 416.447Z" fill="white"/>
<path d="M258.062 425.734C260.072 426.13 262.167 426.074 264.205 425.706C266.81 425.224 275.841 423.044 278.503 422.11L277.597 424.913C275.162 425.819 262.563 428.226 261.261 428.169C256.08 428.254 254.692 426.782 254.324 426.13C254.211 425.932 254.183 425.706 254.183 425.507L254.268 423.554C254.239 423.526 254.239 424.969 258.062 425.734Z" fill="#E58D2E"/>
<path d="M259.109 364.18C258.458 353.392 258.571 341.133 260.1 330.289C266.074 334.196 272.387 337.792 278.701 341.161C278.333 352.062 277.427 365.567 277.144 370.692C276.719 378.167 271.68 407.273 270.491 416.674C269.839 422.308 253.334 420.298 253.447 417.636C254.749 386.944 255.514 381.027 257.864 372.448C258.373 370.551 259.222 366.134 259.109 364.18Z" fill="#211921"/>
<path d="M279.041 452.321C279.041 452.009 279.041 451.698 279.012 451.386C278.956 447.705 278.871 444.025 278.814 440.344C281.334 439.636 283.882 439.155 286.487 438.872L294.839 440.287C297.557 444.478 315.025 442.213 315.903 448.725C317.262 454.472 299.991 454.812 297.358 454.303C295.405 453.934 292.234 453.538 290.705 453.113C290.705 453.142 279.041 452.717 279.041 452.321Z" fill="white"/>
<path d="M279.154 451.301C279.833 451.952 288.1 452.632 290.082 452.83C299.906 453.708 305.144 453.396 309.277 453.226C311.089 453.142 312.93 452.66 314.374 451.528C315.308 450.791 316.016 449.829 315.818 448.498C316.242 449.291 316.271 450.254 315.761 451.443C315.025 453.17 313.411 454.444 311.571 454.869C306.786 455.945 294.98 455.152 292.29 454.925C289.657 454.699 280.06 454.104 279.38 453.453C279.097 453.17 279.069 452.745 279.069 452.349C279.069 451.924 279.041 451.471 279.041 451.046C279.041 451.131 279.069 451.244 279.154 451.301Z" fill="#E58D2E"/>
<path d="M279.012 373.325C277.314 363.755 275.388 354.129 275.388 344.417L299.199 330.628C299.708 333.347 300.982 343.086 301.209 347.249C301.209 347.249 303.219 367.606 301.803 379.045C300.473 389.776 298.689 395.184 298.208 402.035C297.557 411.52 297.557 428.962 297.472 441.448C297.415 448.045 278.701 447.79 278.361 442.382C275.841 403.932 278.05 409.17 279.72 385.217C280.032 380.913 279.777 377.629 279.012 373.325Z" fill="#211921"/>
<path d="M344.158 291.442C345.177 291.386 346.876 291.046 347.782 291.867C349.99 293.821 350.33 299.144 347.923 302.711C344.667 304.07 339.401 306.279 337.136 303.957C337.533 301.38 338.92 294.67 339.996 292.858C340.76 291.556 341.921 291.556 344.158 291.442Z" fill="#FBBD9E"/>
<path d="M483.225 279.607V303.164L379.377 294.614L379.349 293L483.225 279.607Z" fill="url(#paint22_linear_331_3824)"/>
<path d="M483.225 272.585V310.073L379.377 294.613L379.349 293L483.225 272.585Z" fill="url(#paint23_linear_331_3824)"/>
<path d="M483.225 284.59V298.209L379.377 294.274L379.349 293.339L483.225 284.59Z" fill="url(#paint24_linear_331_3824)"/>
<path d="M483.225 288.837V293.991H379.377L379.349 293.622L483.225 288.837Z" fill="url(#paint25_linear_331_3824)"/>
<path d="M379.434 292.603L355.794 294.047C355.143 294.104 355.284 296.482 355.935 296.454L379.576 295.01C380.255 294.925 380.085 292.546 379.434 292.603Z" fill="#BEBBB9"/>
<path d="M295.008 301.239C294.81 301.437 291.554 304.41 288.412 307.383C287.704 308.034 286.798 308.402 285.835 308.402H283.231C281.985 308.402 281.362 306.873 282.268 305.995C283.995 304.353 285.779 302.768 287.647 301.154C288.95 300.021 290.988 297.954 292.432 297.02C292.8 296.737 293.225 296.51 293.734 296.51L355.284 292.83C356.303 292.773 356.53 297.53 355.652 297.615C355.596 297.615 295.008 301.239 295.008 301.239Z" fill="#262323"/>
<path d="M257.609 263.723C250.899 266.951 251.522 308.884 258.033 309.478C261.657 309.818 292.036 307.694 292.347 307.27C293.338 305.967 293.366 300.786 291.668 299.597L263.809 296.992C263.809 296.992 267.206 271.708 267.15 267.97C267.122 266.272 264.29 260.524 257.609 263.723Z" fill="#FBBD9E"/>
<path d="M300.36 337.933C302.37 350.051 257.411 348.324 259.421 334.535C259.874 327.882 261.884 320.662 261.403 312.677C259.874 287.223 244.302 261.713 263.554 261.854C263.441 261.854 263.752 261.826 264.375 261.854C266.98 261.911 269.585 262.336 272.076 263.015L285.326 266.724C290.111 268.055 294.725 270.009 298.972 272.585C303.502 275.36 303.729 276.379 304.606 279.749C305.569 283.288 295.462 301.692 300.36 337.933Z" fill="#FFD940"/>
<path d="M309.504 289.177C312.534 297.841 315.648 307.694 315.648 307.694L339.684 301.211L347.923 302.739C346.649 304.693 343.393 308.544 341.553 309.252C335.919 311.318 318.904 317.491 311.429 319.813C309.363 320.464 307.126 319.586 306.05 317.689C303.134 312.508 297.585 301.975 295.037 292.32C299.906 291.329 304.719 290.31 309.504 289.177Z" fill="#FBBD9E"/>
<path d="M298.434 309.846C293.791 300.389 291.951 286.855 294.244 278.871C296.736 270.15 303.361 275.162 304.408 276.521C305.909 278.446 313.496 291.442 316.327 300.021C319.017 303.985 301.067 313.47 298.434 309.846Z" fill="#FFD940"/>
<path d="M250.446 294.217C251.097 283.685 252.116 269.046 256.788 263.723C262.337 258.967 270.151 265.507 270.406 267.206C270.774 269.613 270.944 284.647 269.16 293.509C269.5 298.294 250.955 298.662 250.446 294.217Z" fill="#FFD940"/>
<path d="M303.785 251.803C301.718 249.566 301.973 248.066 301.605 245.999C301.209 243.649 300.076 241.497 299.312 239.26C298.632 237.193 298.774 235.07 296.792 233.711C295.83 233.059 294.64 232.833 293.48 232.606C292.885 232.493 292.291 232.38 291.696 232.267C290.705 232.097 289.714 231.898 288.723 231.898C287.025 231.898 285.383 232.408 283.769 232.918C280.796 233.852 277.625 234.956 275.87 237.533C275.219 238.496 274.794 239.628 274.398 240.732C273.577 243.054 272.84 245.489 273.095 247.924C273.435 250.954 275.36 253.615 275.7 256.645C276.011 259.249 275.077 261.939 273.237 263.808C273.35 265.309 274.086 266.639 276.011 267.687C278.956 269.612 283.316 269.442 286.826 269.584C287.251 269.612 287.676 269.612 288.1 269.499C290.026 268.904 290.054 265.733 291.951 265.11C292.376 264.969 292.828 264.997 293.281 265.025C294.725 265.11 296.169 265.28 297.585 265.025C299 264.771 300.388 264.006 301.039 262.732C301.492 261.826 301.548 260.778 301.605 259.787C301.718 258.428 301.888 257.069 302.143 255.71C302.2 255.427 302.256 255.144 302.398 254.889C302.907 254.096 304.323 253.898 304.351 252.964C304.408 252.482 304.068 252.143 303.785 251.803Z" fill="#FBBD9E"/>
<path d="M287.676 253.7C280.683 254.266 286.77 266.017 276.068 260.977C274.851 260.411 274.794 260.071 274.652 258.967C274.058 254.55 267.914 248.122 272.529 238.156C275.615 231.446 285.241 228.869 291.724 230.511C294.159 231.134 297.443 232.21 298.717 234.56C299.369 235.806 299.595 238.269 299.454 239.005C299.312 239.77 298.208 241.554 296.424 242.799C294.782 243.932 294.471 244.017 294.216 246.707C294.018 248.944 293.48 251.152 292.63 253.247C291.668 255.597 290.819 253.445 287.676 253.7Z" fill="#513120"/>
<path d="M346.31 301.89C346.791 300.191 347.442 298.86 348.688 296.907C350.302 294.443 346.763 293.028 344.979 296.822C344.639 297.53 343.592 299.002 342.799 299.681C341.44 300.871 341.695 302.173 342.884 303.702C343.337 304.268 344.158 304.495 344.809 304.183C345.715 303.844 346.055 302.824 346.31 301.89Z" fill="#FBBD9E"/>
<path d="M283.91 249.595C288.044 249.595 300.727 247.415 301.265 241.752C301.265 241.752 301.265 224.141 280.003 227.906C267.744 231.361 270.689 245.263 270.689 245.263C271.142 247.386 275.587 249.595 283.91 249.595Z" fill="#FFD940"/>
<path d="M300.643 239.005C300.643 239.005 308.428 239.628 308.712 240.732C309.08 242.176 308.598 244.272 308.202 245.546C307.806 246.905 302.964 247.669 299.935 248.236C297.642 248.66 291.073 248.745 287.874 249.17C290.62 248.519 301.011 243.62 300.643 239.005Z" fill="#FFF643"/>
<path d="M286.288 229.294C286.345 229.832 285.467 230.342 284.335 230.455C283.202 230.568 282.24 230.228 282.183 229.719C282.127 229.181 283.004 228.671 284.137 228.558C285.269 228.445 286.232 228.756 286.288 229.294Z" fill="#FFF643"/>
<path d="M142.069 132.744C145.862 133.396 157.329 130.706 158.348 125.524C158.348 125.524 157.98 108.451 139.917 110.745C128.252 112.84 129.696 125.977 129.696 125.977C129.923 127.959 138.813 132.178 142.069 132.744Z" fill="#FFD940"/>
<path d="M164.435 130.819C161.689 131.13 158.489 132.433 155.064 134.585C152.289 136.312 148.835 136.51 145.834 135.236C143.569 134.273 140.795 132.942 137.935 131.385C142.154 132.291 158.744 129.771 158.291 124.788C158.291 124.788 167.068 130.507 164.435 130.819Z" fill="#FFF643"/>
<path d="M145.607 112.614C145.607 113.095 144.758 113.491 143.682 113.491C142.635 113.491 141.757 113.095 141.757 112.614C141.757 112.132 142.606 111.736 143.682 111.736C144.73 111.736 145.607 112.132 145.607 112.614Z" fill="#FFF643"/>
<path d="M605.39 307.014L617.819 299.794L636.023 310.299L623.595 322.898L605.39 307.014Z" fill="#FFD742"/>
<path d="M623.566 317.519L635.995 310.299V316.924L623.566 324.144V317.519Z" fill="#F1B527"/>
<path d="M623.566 317.519V324.144L605.362 313.64L605.39 307.015L623.566 317.519Z" fill="#DC9A11"/>
<path d="M609.014 301.493L618.385 296.029L632.088 303.957L622.717 313.47L609.014 301.493Z" fill="#FFD742"/>
<path d="M622.717 309.393L632.088 303.957V308.968L622.717 314.404V309.393Z" fill="#F1B527"/>
<path d="M622.717 309.393V314.404L608.986 306.476L609.014 301.493L622.717 309.393Z" fill="#DC9A11"/>
<path d="M600.832 287.676L596.953 291.64C596.217 292.405 595.708 293.452 595.481 294.755L595.311 295.774C595.509 294.585 603.861 293.396 601.964 287.337L601.568 286.119C601.455 286.77 601.2 287.308 600.832 287.676Z" fill="#E8E7E6"/>
<path d="M614.308 298.408L612.723 290.848C612.412 289.376 612.27 287.96 612.27 286.629L612.298 279.494L612.128 279.607L609.892 289.092L610.317 293.906L612.044 320.464H614.252L614.422 319.445C614.45 319.218 614.478 318.992 614.478 318.737L614.535 300.531C614.535 299.88 614.478 299.144 614.308 298.408Z" fill="#E8E7E6"/>
<path d="M614.11 299.087L612.525 291.527C612.242 290.14 612.1 288.809 612.1 287.535L612.128 279.607L609.014 281.419C604.909 289.857 607.287 308.459 609.977 324.173L613.091 322.361C613.855 321.908 614.337 320.974 614.337 319.643L614.393 301.437C614.365 300.701 614.28 299.908 614.11 299.087Z" fill="#DDDCDB"/>
<path d="M611.024 300.899L609.439 293.339C609.156 291.952 609.014 290.621 609.014 289.347L609.042 281.419L607.485 282.297C603.918 288.753 604.541 306.392 606.778 323.89L607.768 324.23C609.722 324.938 611.222 323.805 611.222 321.427L611.279 303.221C611.279 302.513 611.194 301.72 611.024 300.899Z" fill="#E8E7E6"/>
<path d="M609.495 301.211L607.91 293.651C607.599 292.178 607.457 290.763 607.457 289.432L607.485 282.297L601.512 278.843L601.483 286.148C601.483 287.337 601.143 288.3 600.549 288.922L596.67 292.886C595.708 293.877 595.198 295.406 595.198 297.303L595.141 313.131C595.141 315.396 596.727 318.142 598.68 319.275L606.098 323.55C608.052 324.683 609.665 323.777 609.665 321.511L609.722 303.306C609.722 302.683 609.637 301.947 609.495 301.211Z" fill="#CCCCCC"/>
<path d="M606.098 276.719L609.043 282.495L612.298 280.683V275.275L606.098 276.719Z" fill="#F1B527"/>
<path d="M609.24 275.587V280.145L610.713 279.296L611.109 274.454L609.24 275.587Z" fill="#DE9F00"/>
<path d="M616.63 285.242C616.319 284.647 615.979 283.911 615.611 283.09C614.79 281.249 612.95 277.002 612.299 274.681L611.393 275.219C612.044 277.569 613.912 281.816 614.705 283.628C615.073 284.449 615.413 285.185 615.696 285.751C615.781 285.949 615.753 286.091 615.668 286.119L616.574 285.581C616.659 285.553 616.687 285.412 616.63 285.242Z" fill="#EAE5E5"/>
<path d="M615.752 285.723C614.818 283.854 612.383 278.56 611.449 275.162L609.326 276.04C609.835 277.71 613.601 284.506 615.526 286.035C615.752 286.204 615.894 286.006 615.752 285.723Z" fill="#D0CACA"/>
<path d="M609.41 276.096V279.579L612.242 280.258L611.336 277.427L609.41 276.096Z" fill="#D0CACA"/>
<path d="M617.904 271.311L615.583 272.67V275.53L617.904 274.171V271.311Z" fill="#F1B527"/>
<path d="M608.42 267.376C607.655 267.149 607.004 267.206 606.466 267.489L602.644 269.726C603.154 269.414 603.833 269.358 604.598 269.612L615.583 272.67L617.904 271.311L608.42 267.376Z" fill="#FFD742"/>
<path d="M615.582 272.67L604.597 269.612C602.785 269.046 601.511 270.15 601.483 272.274L601.455 279.097L607.457 282.552L608.023 280.485L608.165 276.492L615.582 275.53V272.67Z" fill="#DC9A11"/>
<path d="M607.485 276.578L609.042 276.379V282.495L607.485 282.552V276.578Z" fill="#ECA900"/>
<path d="M612.78 291.131L604.824 286.544L603.437 286.317L600.492 288.016L600.153 289.092L600.577 290.536C600.577 290.536 606.976 294.557 607.032 294.698C607.117 294.84 611.76 293.962 611.76 293.962L613.006 293.169L612.78 291.131Z" fill="#C0E87F"/>
<path d="M600.521 289.064L600.492 288.016L596.953 291.64C596.217 292.405 595.708 293.452 595.481 294.755L595.311 295.774C595.481 294.868 600.407 293.962 601.851 290.847L600.521 289.064Z" fill="#859E41"/>
<path d="M612.78 291.131L612.553 291.669L610.826 295.633C610.798 295.604 610.656 295.463 610.401 295.208L612.043 320.492H614.252L614.422 319.473C614.45 319.246 614.478 319.02 614.478 318.765L614.535 300.559C614.535 299.88 614.45 299.172 614.308 298.436L612.78 291.131Z" fill="#B5D66E"/>
<path d="M612.553 291.697L606.806 295.009C606.806 303.815 608.335 314.546 609.977 324.173L613.091 322.36C613.856 321.907 614.337 320.973 614.337 319.642L614.393 301.437C614.393 300.701 614.309 299.908 614.139 299.087L612.553 291.697Z" fill="#C0E87F"/>
<path d="M611.024 300.899L609.467 293.48L607.429 293.735C607.429 293.735 607.231 294.698 607.231 294.726L606.806 323.946L607.797 324.286C609.75 324.994 611.251 323.861 611.251 321.483L611.307 303.277C611.279 302.513 611.194 301.72 611.024 300.899Z" fill="#B5D66E"/>
<path d="M609.495 301.21L607.91 293.651L600.521 288.951L596.642 292.915C595.679 293.906 595.17 295.434 595.17 297.332L595.113 313.159C595.113 315.424 596.698 318.17 598.652 319.303L606.07 323.578C608.023 324.711 609.637 323.805 609.637 321.54L609.694 303.334C609.722 302.683 609.637 301.947 609.495 301.21Z" fill="#9AB758"/>
<path d="M608.419 319.671L596.472 312.762V296.765L608.419 303.645V319.671Z" fill="#618078"/>
<path d="M608.419 304.495L596.472 297.586V294.812L608.419 301.72V304.495Z" fill="#B49A00"/>
<defs>
<linearGradient id="paint0_linear_331_3824" x1="608.482" y1="276.156" x2="620.276" y2="276.156" gradientUnits="userSpaceOnUse">
<stop stop-color="#DC9A11"/>
<stop offset="1" stop-color="#F1B527"/>
</linearGradient>
<linearGradient id="paint1_linear_331_3824" x1="608.967" y1="260.941" x2="621.376" y2="260.941" gradientUnits="userSpaceOnUse">
<stop stop-color="#DC9A11"/>
<stop offset="1" stop-color="#F1B527"/>
</linearGradient>
<linearGradient id="paint2_linear_331_3824" x1="611.584" y1="249.605" x2="583.453" y2="249.605" gradientUnits="userSpaceOnUse">
<stop stop-color="#DC9A11"/>
<stop offset="1" stop-color="#F1B527"/>
</linearGradient>
<linearGradient id="paint3_linear_331_3824" x1="269.449" y1="142.545" x2="297.193" y2="190.597" gradientUnits="userSpaceOnUse">
<stop offset="0.1773" stop-color="#C18C68"/>
<stop offset="0.202" stop-color="#F4C698"/>
<stop offset="0.8276" stop-color="#F4C698"/>
<stop offset="0.8807" stop-color="#E2B48A"/>
<stop offset="0.9393" stop-color="#D7A980"/>
<stop offset="1" stop-color="#D3A57D"/>
</linearGradient>
<linearGradient id="paint4_linear_331_3824" x1="246.41" y1="88.4872" x2="280.078" y2="146.798" gradientUnits="userSpaceOnUse">
<stop offset="0.1034" stop-color="#F4C698"/>
<stop offset="0.1156" stop-color="#E2B489"/>
<stop offset="0.1289" stop-color="#D7A980"/>
<stop offset="0.1429" stop-color="#D3A57D"/>
</linearGradient>
<linearGradient id="paint5_linear_331_3824" x1="373.951" y1="173.486" x2="401.696" y2="221.537" gradientUnits="userSpaceOnUse">
<stop offset="0.1773" stop-color="#C18C68"/>
<stop offset="0.202" stop-color="#F4C698"/>
<stop offset="0.8276" stop-color="#F4C698"/>
<stop offset="0.8807" stop-color="#E2B48A"/>
<stop offset="0.9393" stop-color="#D7A980"/>
<stop offset="1" stop-color="#D3A57D"/>
</linearGradient>
<linearGradient id="paint6_linear_331_3824" x1="350.913" y1="119.428" x2="384.581" y2="177.738" gradientUnits="userSpaceOnUse">
<stop offset="0.1034" stop-color="#F4C698"/>
<stop offset="0.1156" stop-color="#E2B489"/>
<stop offset="0.1289" stop-color="#D7A980"/>
<stop offset="0.1429" stop-color="#D3A57D"/>
</linearGradient>
<linearGradient id="paint7_linear_331_3824" x1="359.892" y1="102.038" x2="368.214" y2="116.451" gradientUnits="userSpaceOnUse">
<stop stop-color="#F4C698"/>
<stop offset="0.1689" stop-color="#F2C496"/>
<stop offset="0.2297" stop-color="#EBBD91"/>
<stop offset="0.2729" stop-color="#E0B287"/>
<stop offset="0.3005" stop-color="#D3A57D"/>
</linearGradient>
<linearGradient id="paint8_linear_331_3824" x1="310.373" y1="210.195" x2="338.117" y2="258.247" gradientUnits="userSpaceOnUse">
<stop offset="0.1773" stop-color="#C18C68"/>
<stop offset="0.202" stop-color="#F4C698"/>
<stop offset="0.8276" stop-color="#F4C698"/>
<stop offset="0.8807" stop-color="#E2B48A"/>
<stop offset="0.9393" stop-color="#D7A980"/>
<stop offset="1" stop-color="#D3A57D"/>
</linearGradient>
<linearGradient id="paint9_linear_331_3824" x1="287.335" y1="156.137" x2="321.002" y2="214.448" gradientUnits="userSpaceOnUse">
<stop offset="0.1034" stop-color="#F4C698"/>
<stop offset="0.1156" stop-color="#E2B489"/>
<stop offset="0.1289" stop-color="#D7A980"/>
<stop offset="0.1429" stop-color="#D3A57D"/>
</linearGradient>
<linearGradient id="paint10_linear_331_3824" x1="296.313" y1="138.747" x2="304.635" y2="153.16" gradientUnits="userSpaceOnUse">
<stop stop-color="#F4C698"/>
<stop offset="0.1689" stop-color="#F2C496"/>
<stop offset="0.2297" stop-color="#EBBD91"/>
<stop offset="0.2729" stop-color="#E0B287"/>
<stop offset="0.3005" stop-color="#D3A57D"/>
</linearGradient>
<linearGradient id="paint11_linear_331_3824" x1="249.48" y1="5.09152" x2="344.79" y2="170.161" gradientUnits="userSpaceOnUse">
<stop stop-color="#A5E8BE"/>
<stop offset="0.5129" stop-color="#A7E9BF"/>
<stop offset="0.6976" stop-color="#AEECC1"/>
<stop offset="0.8293" stop-color="#B9F1C5"/>
<stop offset="0.935" stop-color="#CAF8CC"/>
<stop offset="1" stop-color="#D9FFD1"/>
</linearGradient>
<linearGradient id="paint12_linear_331_3824" x1="398.182" y1="115.648" x2="296.472" y2="291.803" gradientUnits="userSpaceOnUse">
<stop stop-color="#88C399"/>
<stop offset="1" stop-color="#75AE8B"/>
</linearGradient>
<linearGradient id="paint13_linear_331_3824" x1="436.686" y1="196.857" x2="488.204" y2="286.084" gradientUnits="userSpaceOnUse">
<stop stop-color="#A5E8BE"/>
<stop offset="0.6042" stop-color="#A7E9BF"/>
<stop offset="0.8216" stop-color="#AEEBC3"/>
<stop offset="0.9763" stop-color="#B9F0C9"/>
<stop offset="1" stop-color="#BCF1CA"/>
</linearGradient>
<linearGradient id="paint14_linear_331_3824" x1="593.167" y1="278.792" x2="463.444" y2="326.308" gradientUnits="userSpaceOnUse">
<stop stop-color="#BCF1CA"/>
<stop offset="0.0237" stop-color="#B9F0C9"/>
<stop offset="0.1784" stop-color="#AEEBC3"/>
<stop offset="0.3958" stop-color="#A7E9BF"/>
<stop offset="1" stop-color="#A5E8BE"/>
</linearGradient>
<linearGradient id="paint15_linear_331_3824" x1="382.11" y1="263.784" x2="454.249" y2="263.784" gradientUnits="userSpaceOnUse">
<stop stop-color="#75AE8B"/>
<stop offset="1" stop-color="#88C399"/>
</linearGradient>
<linearGradient id="paint16_linear_331_3824" x1="313.984" y1="215.498" x2="210.475" y2="206.742" gradientUnits="userSpaceOnUse">
<stop offset="0.1626"/>
<stop offset="0.19" stop-color="#050708"/>
<stop offset="0.7552" stop-color="#708FA9"/>
<stop offset="1" stop-color="#9BC6EA"/>
</linearGradient>
<linearGradient id="paint17_linear_331_3824" x1="313.988" y1="215.452" x2="210.479" y2="206.696" gradientUnits="userSpaceOnUse">
<stop offset="0.1626"/>
<stop offset="0.19" stop-color="#050708"/>
<stop offset="0.7552" stop-color="#708FA9"/>
<stop offset="1" stop-color="#9BC6EA"/>
</linearGradient>
<linearGradient id="paint18_linear_331_3824" x1="313.982" y1="215.516" x2="210.481" y2="206.762" gradientUnits="userSpaceOnUse">
<stop offset="0.1626"/>
<stop offset="0.19" stop-color="#050708"/>
<stop offset="0.7552" stop-color="#708FA9"/>
<stop offset="1" stop-color="#9BC6EA"/>
</linearGradient>
<linearGradient id="paint19_linear_331_3824" x1="313.981" y1="215.524" x2="210.487" y2="206.77" gradientUnits="userSpaceOnUse">
<stop offset="0.1626"/>
<stop offset="0.19" stop-color="#050708"/>
<stop offset="0.7552" stop-color="#708FA9"/>
<stop offset="1" stop-color="#9BC6EA"/>
</linearGradient>
<linearGradient id="paint20_linear_331_3824" x1="174.816" y1="299.417" x2="186.525" y2="299.417" gradientUnits="userSpaceOnUse">
<stop offset="0.00492611" stop-color="#CCCCCC"/>
<stop offset="1" stop-color="#DDDCDB"/>
</linearGradient>
<linearGradient id="paint21_linear_331_3824" x1="175.679" y1="296.099" x2="185.662" y2="296.099" gradientUnits="userSpaceOnUse">
<stop stop-color="#2B2430"/>
<stop offset="1" stop-color="#3E3148"/>
</linearGradient>
<linearGradient id="paint22_linear_331_3824" x1="483.222" y1="291.385" x2="379.343" y2="291.38" gradientUnits="userSpaceOnUse">
<stop offset="0.1626"/>
<stop offset="0.19" stop-color="#050708"/>
<stop offset="0.7552" stop-color="#708FA9"/>
<stop offset="1" stop-color="#9BC6EA"/>
</linearGradient>
<linearGradient id="paint23_linear_331_3824" x1="483.222" y1="291.339" x2="379.343" y2="291.334" gradientUnits="userSpaceOnUse">
<stop offset="0.1626"/>
<stop offset="0.19" stop-color="#050708"/>
<stop offset="0.7552" stop-color="#708FA9"/>
<stop offset="1" stop-color="#9BC6EA"/>
</linearGradient>
<linearGradient id="paint24_linear_331_3824" x1="483.222" y1="291.404" x2="379.352" y2="291.399" gradientUnits="userSpaceOnUse">
<stop offset="0.1626"/>
<stop offset="0.19" stop-color="#050708"/>
<stop offset="0.7552" stop-color="#708FA9"/>
<stop offset="1" stop-color="#9BC6EA"/>
</linearGradient>
<linearGradient id="paint25_linear_331_3824" x1="483.222" y1="291.414" x2="379.358" y2="291.409" gradientUnits="userSpaceOnUse">
<stop offset="0.1626"/>
<stop offset="0.19" stop-color="#050708"/>
<stop offset="0.7552" stop-color="#708FA9"/>
<stop offset="1" stop-color="#9BC6EA"/>
</linearGradient>
</defs>
</svg>
