<svg width="56" height="56" viewBox="0 0 56 56" fill="none" xmlns="http://www.w3.org/2000/svg">
<path fill-rule="evenodd" clip-rule="evenodd" d="M18.0772 4.83313H37.946C45.7147 4.83313 50.9168 10.2873 50.9168 18.3998V37.125C50.9168 45.2123 45.7147 50.6665 37.946 50.6665H18.0772C10.3085 50.6665 5.0835 45.2123 5.0835 37.125V18.3998C5.0835 10.2873 10.3085 4.83313 18.0772 4.83313ZM26.6939 34.6019L37.5793 23.7165C38.3585 22.9373 38.3585 21.6769 37.5793 20.8748C36.8002 20.0956 35.5168 20.0956 34.7377 20.8748L25.2731 30.3394L21.2627 26.329C20.4835 25.5498 19.2002 25.5498 18.421 26.329C17.6418 27.1081 17.6418 28.3685 18.421 29.1706L23.8752 34.6019C24.2647 34.9915 24.7689 35.1748 25.2731 35.1748C25.8002 35.1748 26.3043 34.9915 26.6939 34.6019Z" fill="url(#paint0_linear_376_2676)"/>
<defs>
<linearGradient id="paint0_linear_376_2676" x1="28.0002" y1="4.83313" x2="28.0002" y2="50.6665" gradientUnits="userSpaceOnUse">
<stop stop-color="#3B6BB6"/>
<stop offset="1" stop-color="#57AAC4"/>
</linearGradient>
</defs>
</svg>
